G04 EAGLE Gerber RS-274X export*
G75*
%MOMM*%
%FSLAX34Y34*%
%LPD*%
%IN*%
%IPPOS*%
%AMOC8*
5,1,8,0,0,1.08239X$1,22.5*%
G01*
%ADD10C,0.254000*%


D10*
X1212596Y132080D02*
X1212644Y130973D01*
X1212789Y129875D01*
X1213029Y128793D01*
X1213362Y127736D01*
X1213786Y126713D01*
X1214297Y125730D01*
X1214893Y124796D01*
X1215567Y123917D01*
X1216316Y123100D01*
X1217133Y122351D01*
X1218012Y121677D01*
X1218946Y121081D01*
X1219929Y120570D01*
X1220952Y120146D01*
X1222009Y119813D01*
X1223091Y119573D01*
X1224189Y119428D01*
X1225296Y119380D01*
X1962412Y119880D01*
X1963298Y119919D01*
X1964176Y120034D01*
X1965042Y120226D01*
X1965887Y120493D01*
X1966706Y120832D01*
X1967492Y121241D01*
X1968240Y121717D01*
X1968943Y122257D01*
X1969596Y122856D01*
X1970195Y123509D01*
X1970735Y124212D01*
X1971211Y124960D01*
X1971620Y125746D01*
X1971959Y126565D01*
X1972226Y127410D01*
X1972418Y128276D01*
X1972533Y129155D01*
X1972572Y130040D01*
X1972572Y211320D01*
X1972543Y211984D01*
X1972456Y212643D01*
X1972312Y213292D01*
X1972112Y213926D01*
X1971858Y214540D01*
X1971551Y215130D01*
X1971194Y215691D01*
X1970789Y216218D01*
X1970340Y216708D01*
X1969850Y217157D01*
X1969323Y217562D01*
X1968762Y217919D01*
X1968172Y218226D01*
X1967558Y218480D01*
X1966924Y218680D01*
X1966275Y218824D01*
X1965616Y218911D01*
X1964952Y218940D01*
X1227836Y218440D01*
X1226508Y218382D01*
X1225190Y218208D01*
X1223892Y217921D01*
X1222624Y217521D01*
X1221395Y217012D01*
X1220216Y216398D01*
X1219095Y215684D01*
X1218040Y214875D01*
X1217060Y213976D01*
X1216161Y212996D01*
X1215352Y211941D01*
X1214638Y210820D01*
X1214024Y209641D01*
X1213515Y208412D01*
X1213115Y207144D01*
X1212828Y205846D01*
X1212654Y204528D01*
X1212596Y203200D01*
X1212596Y132080D01*
X1232574Y167331D02*
X1232505Y166717D01*
X1232367Y166115D01*
X1232163Y165532D01*
X1231895Y164975D01*
X1231567Y164452D01*
X1231182Y163969D01*
X1230745Y163533D01*
X1230262Y163147D01*
X1229739Y162819D01*
X1229182Y162551D01*
X1228599Y162347D01*
X1227997Y162209D01*
X1227383Y162140D01*
X1226765Y162140D01*
X1226151Y162209D01*
X1225549Y162347D01*
X1224966Y162551D01*
X1224409Y162819D01*
X1223886Y163147D01*
X1223403Y163533D01*
X1222967Y163969D01*
X1222581Y164452D01*
X1222253Y164975D01*
X1221985Y165532D01*
X1221781Y166115D01*
X1221643Y166717D01*
X1221574Y167331D01*
X1221574Y167949D01*
X1221643Y168563D01*
X1221781Y169165D01*
X1221985Y169748D01*
X1222253Y170305D01*
X1222581Y170828D01*
X1222967Y171311D01*
X1223403Y171748D01*
X1223886Y172133D01*
X1224409Y172461D01*
X1224966Y172729D01*
X1225549Y172933D01*
X1226151Y173071D01*
X1226765Y173140D01*
X1227383Y173140D01*
X1227997Y173071D01*
X1228599Y172933D01*
X1229182Y172729D01*
X1229739Y172461D01*
X1230262Y172133D01*
X1230745Y171748D01*
X1231182Y171311D01*
X1231567Y170828D01*
X1231895Y170305D01*
X1232163Y169748D01*
X1232367Y169165D01*
X1232505Y168563D01*
X1232574Y167949D01*
X1232574Y167331D01*
X1907960Y129231D02*
X1907891Y128617D01*
X1907753Y128015D01*
X1907549Y127432D01*
X1907281Y126875D01*
X1906953Y126352D01*
X1906568Y125869D01*
X1906131Y125433D01*
X1905648Y125047D01*
X1905125Y124719D01*
X1904568Y124451D01*
X1903985Y124247D01*
X1903383Y124109D01*
X1902769Y124040D01*
X1902151Y124040D01*
X1901537Y124109D01*
X1900935Y124247D01*
X1900352Y124451D01*
X1899795Y124719D01*
X1899272Y125047D01*
X1898789Y125433D01*
X1898353Y125869D01*
X1897967Y126352D01*
X1897639Y126875D01*
X1897371Y127432D01*
X1897167Y128015D01*
X1897029Y128617D01*
X1896960Y129231D01*
X1896960Y129849D01*
X1897029Y130463D01*
X1897167Y131065D01*
X1897371Y131648D01*
X1897639Y132205D01*
X1897967Y132728D01*
X1898353Y133211D01*
X1898789Y133648D01*
X1899272Y134033D01*
X1899795Y134361D01*
X1900352Y134629D01*
X1900935Y134833D01*
X1901537Y134971D01*
X1902151Y135040D01*
X1902769Y135040D01*
X1903383Y134971D01*
X1903985Y134833D01*
X1904568Y134629D01*
X1905125Y134361D01*
X1905648Y134033D01*
X1906131Y133648D01*
X1906568Y133211D01*
X1906953Y132728D01*
X1907281Y132205D01*
X1907549Y131648D01*
X1907753Y131065D01*
X1907891Y130463D01*
X1907960Y129849D01*
X1907960Y129231D01*
X1907960Y207971D02*
X1907891Y207357D01*
X1907753Y206755D01*
X1907549Y206172D01*
X1907281Y205615D01*
X1906953Y205092D01*
X1906568Y204609D01*
X1906131Y204173D01*
X1905648Y203787D01*
X1905125Y203459D01*
X1904568Y203191D01*
X1903985Y202987D01*
X1903383Y202849D01*
X1902769Y202780D01*
X1902151Y202780D01*
X1901537Y202849D01*
X1900935Y202987D01*
X1900352Y203191D01*
X1899795Y203459D01*
X1899272Y203787D01*
X1898789Y204173D01*
X1898353Y204609D01*
X1897967Y205092D01*
X1897639Y205615D01*
X1897371Y206172D01*
X1897167Y206755D01*
X1897029Y207357D01*
X1896960Y207971D01*
X1896960Y208589D01*
X1897029Y209203D01*
X1897167Y209805D01*
X1897371Y210388D01*
X1897639Y210945D01*
X1897967Y211468D01*
X1898353Y211951D01*
X1898789Y212388D01*
X1899272Y212773D01*
X1899795Y213101D01*
X1900352Y213369D01*
X1900935Y213573D01*
X1901537Y213711D01*
X1902151Y213780D01*
X1902769Y213780D01*
X1903383Y213711D01*
X1903985Y213573D01*
X1904568Y213369D01*
X1905125Y213101D01*
X1905648Y212773D01*
X1906131Y212388D01*
X1906568Y211951D01*
X1906953Y211468D01*
X1907281Y210945D01*
X1907549Y210388D01*
X1907753Y209805D01*
X1907891Y209203D01*
X1907960Y208589D01*
X1907960Y207971D01*
X1961402Y196314D02*
X1961326Y195246D01*
X1961173Y194185D01*
X1960945Y193138D01*
X1960643Y192110D01*
X1960269Y191106D01*
X1959824Y190131D01*
X1959310Y189191D01*
X1958731Y188290D01*
X1958089Y187432D01*
X1957387Y186622D01*
X1956630Y185865D01*
X1955820Y185163D01*
X1954962Y184521D01*
X1954061Y183942D01*
X1953121Y183428D01*
X1952146Y182983D01*
X1951142Y182609D01*
X1950114Y182307D01*
X1949067Y182079D01*
X1948006Y181926D01*
X1946938Y181850D01*
X1945866Y181850D01*
X1944798Y181926D01*
X1943737Y182079D01*
X1942690Y182307D01*
X1941662Y182609D01*
X1940658Y182983D01*
X1939683Y183428D01*
X1938743Y183942D01*
X1937842Y184521D01*
X1936984Y185163D01*
X1936174Y185865D01*
X1935417Y186622D01*
X1934715Y187432D01*
X1934073Y188290D01*
X1933494Y189191D01*
X1932980Y190131D01*
X1932535Y191106D01*
X1932161Y192110D01*
X1931859Y193138D01*
X1931631Y194185D01*
X1931478Y195246D01*
X1931402Y196314D01*
X1931402Y197386D01*
X1931478Y198454D01*
X1931631Y199515D01*
X1931859Y200562D01*
X1932161Y201590D01*
X1932535Y202594D01*
X1932980Y203569D01*
X1933494Y204509D01*
X1934073Y205410D01*
X1934715Y206268D01*
X1935417Y207078D01*
X1936174Y207835D01*
X1936984Y208537D01*
X1937842Y209179D01*
X1938743Y209758D01*
X1939683Y210272D01*
X1940658Y210717D01*
X1941662Y211091D01*
X1942690Y211393D01*
X1943737Y211621D01*
X1944798Y211774D01*
X1945866Y211850D01*
X1946938Y211850D01*
X1948006Y211774D01*
X1949067Y211621D01*
X1950114Y211393D01*
X1951142Y211091D01*
X1952146Y210717D01*
X1953121Y210272D01*
X1954061Y209758D01*
X1954962Y209179D01*
X1955820Y208537D01*
X1956630Y207835D01*
X1957387Y207078D01*
X1958089Y206268D01*
X1958731Y205410D01*
X1959310Y204509D01*
X1959824Y203569D01*
X1960269Y202594D01*
X1960643Y201590D01*
X1960945Y200562D01*
X1961173Y199515D01*
X1961326Y198454D01*
X1961402Y197386D01*
X1961402Y196314D01*
X1961148Y140942D02*
X1961072Y139874D01*
X1960919Y138813D01*
X1960691Y137766D01*
X1960389Y136738D01*
X1960015Y135734D01*
X1959570Y134759D01*
X1959056Y133819D01*
X1958477Y132918D01*
X1957835Y132060D01*
X1957133Y131250D01*
X1956376Y130493D01*
X1955566Y129791D01*
X1954708Y129149D01*
X1953807Y128570D01*
X1952867Y128056D01*
X1951892Y127611D01*
X1950888Y127237D01*
X1949860Y126935D01*
X1948813Y126707D01*
X1947752Y126554D01*
X1946684Y126478D01*
X1945612Y126478D01*
X1944544Y126554D01*
X1943483Y126707D01*
X1942436Y126935D01*
X1941408Y127237D01*
X1940404Y127611D01*
X1939429Y128056D01*
X1938489Y128570D01*
X1937588Y129149D01*
X1936730Y129791D01*
X1935920Y130493D01*
X1935163Y131250D01*
X1934461Y132060D01*
X1933819Y132918D01*
X1933240Y133819D01*
X1932726Y134759D01*
X1932281Y135734D01*
X1931907Y136738D01*
X1931605Y137766D01*
X1931377Y138813D01*
X1931224Y139874D01*
X1931148Y140942D01*
X1931148Y142014D01*
X1931224Y143082D01*
X1931377Y144143D01*
X1931605Y145190D01*
X1931907Y146218D01*
X1932281Y147222D01*
X1932726Y148197D01*
X1933240Y149137D01*
X1933819Y150038D01*
X1934461Y150896D01*
X1935163Y151706D01*
X1935920Y152463D01*
X1936730Y153165D01*
X1937588Y153807D01*
X1938489Y154386D01*
X1939429Y154900D01*
X1940404Y155345D01*
X1941408Y155719D01*
X1942436Y156021D01*
X1943483Y156249D01*
X1944544Y156402D01*
X1945612Y156478D01*
X1946684Y156478D01*
X1947752Y156402D01*
X1948813Y156249D01*
X1949860Y156021D01*
X1950888Y155719D01*
X1951892Y155345D01*
X1952867Y154900D01*
X1953807Y154386D01*
X1954708Y153807D01*
X1955566Y153165D01*
X1956376Y152463D01*
X1957133Y151706D01*
X1957835Y150896D01*
X1958477Y150038D01*
X1959056Y149137D01*
X1959570Y148197D01*
X1960015Y147222D01*
X1960389Y146218D01*
X1960691Y145190D01*
X1960919Y144143D01*
X1961072Y143082D01*
X1961148Y142014D01*
X1961148Y140942D01*
M02*
