G04 EAGLE Gerber RS-274X export*
G75*
%MOMM*%
%FSLAX34Y34*%
%LPD*%
%INBottom Copper*%
%IPPOS*%
%AMOC8*
5,1,8,0,0,1.08239X$1,22.5*%
G01*
%ADD10C,1.524000*%
%ADD11P,1.814519X8X202.500000*%
%ADD12C,1.508000*%
%ADD13C,1.308000*%
%ADD14C,2.250000*%
%ADD15C,0.525000*%
%ADD16C,0.508000*%
%ADD17C,0.406400*%
%ADD18C,0.812800*%
%ADD19C,0.352400*%
%ADD20C,1.778000*%
%ADD21C,0.304800*%
%ADD22C,0.254000*%
%ADD23C,1.270000*%

G36*
X624168Y465852D02*
X624168Y465852D01*
X624259Y465859D01*
X624289Y465871D01*
X624321Y465877D01*
X624401Y465919D01*
X624485Y465955D01*
X624517Y465981D01*
X624538Y465992D01*
X624560Y466015D01*
X624616Y466060D01*
X634014Y475458D01*
X634067Y475532D01*
X634127Y475601D01*
X634139Y475631D01*
X634158Y475657D01*
X634185Y475744D01*
X634219Y475829D01*
X634223Y475870D01*
X634230Y475893D01*
X634229Y475925D01*
X634237Y475996D01*
X634237Y489853D01*
X635900Y493867D01*
X697393Y555360D01*
X701407Y557023D01*
X1786407Y557023D01*
X1846857Y557045D01*
X1846947Y557060D01*
X1847038Y557067D01*
X1847068Y557080D01*
X1847100Y557085D01*
X1847180Y557128D01*
X1847264Y557164D01*
X1847296Y557189D01*
X1847317Y557200D01*
X1847339Y557224D01*
X1847395Y557268D01*
X1875597Y585471D01*
X1927341Y585471D01*
X1927432Y585486D01*
X1927522Y585493D01*
X1927552Y585505D01*
X1927584Y585511D01*
X1927665Y585553D01*
X1927749Y585589D01*
X1927760Y585598D01*
X1930758Y585598D01*
X1930778Y585581D01*
X1930808Y585569D01*
X1930834Y585550D01*
X1930921Y585523D01*
X1931006Y585489D01*
X1931047Y585485D01*
X1931069Y585478D01*
X1931101Y585479D01*
X1931173Y585471D01*
X1997964Y585471D01*
X1998054Y585486D01*
X1998145Y585493D01*
X1998175Y585505D01*
X1998207Y585511D01*
X1998287Y585553D01*
X1998371Y585589D01*
X1998403Y585615D01*
X1998424Y585626D01*
X1998446Y585649D01*
X1998502Y585694D01*
X2003328Y590520D01*
X2003381Y590594D01*
X2003441Y590663D01*
X2003453Y590693D01*
X2003472Y590719D01*
X2003499Y590806D01*
X2003533Y590891D01*
X2003537Y590932D01*
X2003544Y590955D01*
X2003543Y590987D01*
X2003551Y591058D01*
X2003551Y621612D01*
X2003536Y621708D01*
X2003526Y621805D01*
X2003516Y621829D01*
X2003512Y621854D01*
X2003466Y621940D01*
X2003426Y622029D01*
X2003409Y622049D01*
X2003396Y622072D01*
X2003326Y622139D01*
X2003260Y622211D01*
X2003237Y622223D01*
X2003218Y622241D01*
X2003130Y622282D01*
X2003044Y622329D01*
X2003019Y622334D01*
X2002995Y622345D01*
X2002898Y622356D01*
X2002802Y622373D01*
X2002776Y622369D01*
X2002751Y622372D01*
X2002655Y622351D01*
X2002559Y622337D01*
X2002536Y622325D01*
X2002510Y622320D01*
X2002427Y622270D01*
X2002340Y622226D01*
X2002321Y622207D01*
X2002299Y622193D01*
X2002236Y622120D01*
X2002168Y622050D01*
X2002152Y622021D01*
X2002139Y622007D01*
X2002127Y621976D01*
X2002087Y621903D01*
X2001125Y619581D01*
X1997359Y615815D01*
X1997338Y615786D01*
X1997311Y615763D01*
X1997219Y615623D01*
X1997002Y615197D01*
X1996062Y613903D01*
X1994931Y612772D01*
X1993637Y611832D01*
X1992212Y611106D01*
X1990691Y610611D01*
X1989835Y610476D01*
X1989835Y612267D01*
X1989832Y612287D01*
X1989834Y612306D01*
X1989812Y612408D01*
X1989795Y612510D01*
X1989786Y612527D01*
X1989782Y612547D01*
X1989729Y612636D01*
X1989680Y612727D01*
X1989666Y612741D01*
X1989656Y612758D01*
X1989577Y612825D01*
X1989502Y612897D01*
X1989484Y612905D01*
X1989469Y612918D01*
X1989373Y612957D01*
X1989279Y613000D01*
X1989259Y613002D01*
X1989241Y613010D01*
X1989074Y613028D01*
X1987550Y613028D01*
X1987530Y613025D01*
X1987511Y613027D01*
X1987409Y613005D01*
X1987307Y612989D01*
X1987290Y612979D01*
X1987270Y612975D01*
X1987181Y612922D01*
X1987090Y612873D01*
X1987076Y612859D01*
X1987059Y612849D01*
X1986992Y612770D01*
X1986921Y612695D01*
X1986912Y612677D01*
X1986899Y612662D01*
X1986860Y612566D01*
X1986817Y612472D01*
X1986815Y612452D01*
X1986807Y612434D01*
X1986789Y612267D01*
X1986789Y610476D01*
X1985933Y610611D01*
X1984412Y611106D01*
X1982987Y611832D01*
X1981693Y612772D01*
X1980562Y613903D01*
X1979622Y615197D01*
X1979592Y615254D01*
X1979552Y615309D01*
X1979520Y615369D01*
X1979480Y615408D01*
X1979447Y615453D01*
X1979391Y615492D01*
X1979342Y615538D01*
X1979291Y615562D01*
X1979246Y615594D01*
X1979181Y615613D01*
X1979119Y615642D01*
X1979063Y615648D01*
X1979010Y615664D01*
X1978942Y615662D01*
X1978875Y615669D01*
X1978820Y615657D01*
X1978764Y615655D01*
X1978701Y615631D01*
X1978634Y615617D01*
X1978586Y615588D01*
X1978534Y615568D01*
X1978481Y615525D01*
X1978423Y615491D01*
X1978387Y615448D01*
X1978343Y615413D01*
X1978307Y615355D01*
X1978263Y615304D01*
X1978242Y615252D01*
X1978213Y615205D01*
X1978197Y615139D01*
X1978171Y615076D01*
X1978163Y614997D01*
X1978155Y614965D01*
X1978157Y614944D01*
X1978153Y614909D01*
X1978153Y592581D01*
X671576Y592581D01*
X671486Y592567D01*
X671395Y592559D01*
X671365Y592547D01*
X671333Y592542D01*
X671253Y592499D01*
X671169Y592463D01*
X671137Y592437D01*
X671116Y592426D01*
X671094Y592403D01*
X671038Y592358D01*
X628112Y549432D01*
X628059Y549358D01*
X627999Y549289D01*
X627987Y549259D01*
X627968Y549233D01*
X627941Y549146D01*
X627907Y549061D01*
X627903Y549020D01*
X627896Y548997D01*
X627897Y548965D01*
X627896Y548963D01*
X622747Y543813D01*
X580357Y543813D01*
X580267Y543799D01*
X580176Y543791D01*
X580146Y543779D01*
X580114Y543774D01*
X580034Y543731D01*
X579950Y543695D01*
X579917Y543669D01*
X579897Y543658D01*
X579875Y543635D01*
X579819Y543590D01*
X578010Y541781D01*
X526128Y541781D01*
X524319Y543590D01*
X524245Y543643D01*
X524176Y543703D01*
X524146Y543715D01*
X524120Y543734D01*
X524033Y543761D01*
X523948Y543795D01*
X523907Y543799D01*
X523885Y543806D01*
X523852Y543805D01*
X523781Y543813D01*
X488249Y543813D01*
X478535Y553527D01*
X478535Y612295D01*
X478521Y612385D01*
X478513Y612476D01*
X478501Y612506D01*
X478496Y612538D01*
X478453Y612619D01*
X478417Y612703D01*
X478391Y612735D01*
X478380Y612756D01*
X478357Y612778D01*
X478312Y612834D01*
X478058Y613088D01*
X478042Y613099D01*
X478030Y613115D01*
X477942Y613171D01*
X477859Y613231D01*
X477840Y613237D01*
X477823Y613248D01*
X477722Y613273D01*
X477623Y613304D01*
X477604Y613303D01*
X477584Y613308D01*
X477481Y613300D01*
X477378Y613297D01*
X477359Y613290D01*
X477339Y613289D01*
X477244Y613248D01*
X477147Y613213D01*
X477131Y613200D01*
X477113Y613193D01*
X476982Y613088D01*
X473867Y609973D01*
X473846Y609944D01*
X473819Y609921D01*
X473727Y609780D01*
X473510Y609355D01*
X472570Y608061D01*
X471439Y606930D01*
X470145Y605990D01*
X468720Y605264D01*
X467199Y604769D01*
X466343Y604634D01*
X466343Y606425D01*
X466340Y606445D01*
X466342Y606464D01*
X466320Y606566D01*
X466303Y606668D01*
X466294Y606685D01*
X466290Y606705D01*
X466237Y606794D01*
X466188Y606885D01*
X466174Y606899D01*
X466164Y606916D01*
X466085Y606983D01*
X466010Y607055D01*
X465992Y607063D01*
X465977Y607076D01*
X465881Y607115D01*
X465787Y607158D01*
X465767Y607160D01*
X465749Y607168D01*
X465582Y607186D01*
X464058Y607186D01*
X464038Y607183D01*
X464019Y607185D01*
X463917Y607163D01*
X463815Y607147D01*
X463798Y607137D01*
X463778Y607133D01*
X463689Y607080D01*
X463598Y607031D01*
X463584Y607017D01*
X463567Y607007D01*
X463500Y606928D01*
X463429Y606853D01*
X463420Y606835D01*
X463407Y606820D01*
X463368Y606724D01*
X463325Y606630D01*
X463323Y606610D01*
X463315Y606592D01*
X463297Y606425D01*
X463297Y604634D01*
X462441Y604769D01*
X460920Y605264D01*
X459495Y605990D01*
X458201Y606930D01*
X457070Y608061D01*
X456130Y609355D01*
X455913Y609780D01*
X455892Y609809D01*
X455878Y609842D01*
X455773Y609973D01*
X452658Y613088D01*
X452642Y613099D01*
X452630Y613115D01*
X452542Y613171D01*
X452459Y613231D01*
X452440Y613237D01*
X452423Y613248D01*
X452322Y613273D01*
X452223Y613304D01*
X452204Y613303D01*
X452184Y613308D01*
X452081Y613300D01*
X451978Y613297D01*
X451959Y613290D01*
X451939Y613289D01*
X451844Y613248D01*
X451747Y613213D01*
X451731Y613200D01*
X451713Y613193D01*
X451582Y613088D01*
X448467Y609973D01*
X448446Y609944D01*
X448419Y609921D01*
X448327Y609780D01*
X448110Y609355D01*
X447170Y608061D01*
X446039Y606930D01*
X444745Y605990D01*
X443320Y605264D01*
X441799Y604769D01*
X440943Y604634D01*
X440943Y606425D01*
X440940Y606445D01*
X440942Y606464D01*
X440920Y606566D01*
X440903Y606668D01*
X440894Y606685D01*
X440890Y606705D01*
X440837Y606794D01*
X440788Y606885D01*
X440774Y606899D01*
X440764Y606916D01*
X440685Y606983D01*
X440610Y607055D01*
X440592Y607063D01*
X440577Y607076D01*
X440481Y607115D01*
X440387Y607158D01*
X440367Y607160D01*
X440349Y607168D01*
X440182Y607186D01*
X438658Y607186D01*
X438638Y607183D01*
X438619Y607185D01*
X438517Y607163D01*
X438415Y607147D01*
X438398Y607137D01*
X438378Y607133D01*
X438289Y607080D01*
X438198Y607031D01*
X438184Y607017D01*
X438167Y607007D01*
X438100Y606928D01*
X438029Y606853D01*
X438020Y606835D01*
X438007Y606820D01*
X437968Y606724D01*
X437925Y606630D01*
X437923Y606610D01*
X437915Y606592D01*
X437897Y606425D01*
X437897Y604634D01*
X437041Y604769D01*
X435520Y605264D01*
X434095Y605990D01*
X432801Y606930D01*
X431670Y608061D01*
X430730Y609355D01*
X430513Y609780D01*
X430492Y609809D01*
X430478Y609842D01*
X430373Y609973D01*
X427258Y613088D01*
X427200Y613129D01*
X427148Y613179D01*
X427101Y613201D01*
X427059Y613231D01*
X426990Y613252D01*
X426925Y613283D01*
X426873Y613288D01*
X426823Y613304D01*
X426752Y613302D01*
X426681Y613310D01*
X426630Y613299D01*
X426578Y613297D01*
X426510Y613273D01*
X426440Y613257D01*
X426396Y613231D01*
X426347Y613213D01*
X426291Y613168D01*
X426229Y613131D01*
X426195Y613092D01*
X426155Y613059D01*
X426116Y612999D01*
X426069Y612944D01*
X426050Y612896D01*
X426022Y612852D01*
X426004Y612783D01*
X425977Y612716D01*
X425969Y612645D01*
X425961Y612614D01*
X425963Y612590D01*
X425959Y612549D01*
X425959Y591820D01*
X425974Y591730D01*
X425981Y591639D01*
X425993Y591609D01*
X425999Y591577D01*
X426041Y591497D01*
X426077Y591413D01*
X426103Y591381D01*
X426114Y591360D01*
X426137Y591338D01*
X426182Y591282D01*
X436119Y581345D01*
X436119Y504698D01*
X436134Y504608D01*
X436141Y504517D01*
X436153Y504487D01*
X436159Y504455D01*
X436201Y504375D01*
X436237Y504291D01*
X436263Y504259D01*
X436274Y504238D01*
X436297Y504216D01*
X436342Y504160D01*
X474442Y466060D01*
X474516Y466007D01*
X474585Y465947D01*
X474615Y465935D01*
X474641Y465916D01*
X474728Y465889D01*
X474813Y465855D01*
X474854Y465851D01*
X474877Y465844D01*
X474909Y465845D01*
X474980Y465837D01*
X624078Y465837D01*
X624168Y465852D01*
G37*
G36*
X1849374Y594376D02*
X1849374Y594376D01*
X1849465Y594383D01*
X1849495Y594395D01*
X1849527Y594401D01*
X1849607Y594443D01*
X1849691Y594479D01*
X1849723Y594505D01*
X1849744Y594516D01*
X1849766Y594539D01*
X1849822Y594584D01*
X1853320Y598082D01*
X1855374Y598933D01*
X1963076Y598933D01*
X1963166Y598947D01*
X1963257Y598955D01*
X1963287Y598967D01*
X1963318Y598972D01*
X1963399Y599015D01*
X1963483Y599051D01*
X1963515Y599077D01*
X1963536Y599088D01*
X1963558Y599111D01*
X1963614Y599156D01*
X1975134Y610676D01*
X1975187Y610750D01*
X1975247Y610819D01*
X1975259Y610849D01*
X1975278Y610876D01*
X1975305Y610963D01*
X1975339Y611048D01*
X1975343Y611088D01*
X1975350Y611111D01*
X1975349Y611143D01*
X1975357Y611214D01*
X1975357Y617375D01*
X1975346Y617446D01*
X1975344Y617518D01*
X1975326Y617567D01*
X1975318Y617618D01*
X1975284Y617681D01*
X1975259Y617749D01*
X1975227Y617790D01*
X1975202Y617836D01*
X1975151Y617885D01*
X1975106Y617941D01*
X1975062Y617969D01*
X1975024Y618005D01*
X1974959Y618035D01*
X1974899Y618074D01*
X1974848Y618087D01*
X1974801Y618109D01*
X1974730Y618116D01*
X1974660Y618134D01*
X1974608Y618130D01*
X1974557Y618136D01*
X1974486Y618120D01*
X1974415Y618115D01*
X1974367Y618094D01*
X1974316Y618083D01*
X1974255Y618047D01*
X1974189Y618019D01*
X1974133Y617974D01*
X1974105Y617957D01*
X1974090Y617939D01*
X1974058Y617914D01*
X1971959Y615815D01*
X1971938Y615786D01*
X1971911Y615763D01*
X1971819Y615623D01*
X1971602Y615197D01*
X1970662Y613903D01*
X1969531Y612772D01*
X1968237Y611832D01*
X1966812Y611106D01*
X1965291Y610611D01*
X1964435Y610476D01*
X1964435Y612267D01*
X1964432Y612287D01*
X1964434Y612306D01*
X1964412Y612408D01*
X1964395Y612510D01*
X1964386Y612527D01*
X1964382Y612547D01*
X1964329Y612636D01*
X1964280Y612727D01*
X1964266Y612741D01*
X1964256Y612758D01*
X1964177Y612825D01*
X1964102Y612897D01*
X1964084Y612905D01*
X1964069Y612918D01*
X1963973Y612957D01*
X1963879Y613000D01*
X1963859Y613002D01*
X1963841Y613010D01*
X1963674Y613028D01*
X1962150Y613028D01*
X1962130Y613025D01*
X1962111Y613027D01*
X1962009Y613005D01*
X1961907Y612989D01*
X1961890Y612979D01*
X1961870Y612975D01*
X1961781Y612922D01*
X1961690Y612873D01*
X1961676Y612859D01*
X1961659Y612849D01*
X1961592Y612770D01*
X1961521Y612695D01*
X1961512Y612677D01*
X1961499Y612662D01*
X1961460Y612566D01*
X1961417Y612472D01*
X1961415Y612452D01*
X1961407Y612434D01*
X1961389Y612267D01*
X1961389Y610476D01*
X1960533Y610611D01*
X1959012Y611106D01*
X1957587Y611832D01*
X1956293Y612772D01*
X1955162Y613903D01*
X1954222Y615197D01*
X1954005Y615623D01*
X1953984Y615651D01*
X1953970Y615684D01*
X1953865Y615815D01*
X1950750Y618930D01*
X1950734Y618941D01*
X1950722Y618957D01*
X1950635Y619013D01*
X1950551Y619073D01*
X1950531Y619079D01*
X1950515Y619090D01*
X1950414Y619115D01*
X1950315Y619146D01*
X1950296Y619145D01*
X1950276Y619150D01*
X1950173Y619142D01*
X1950070Y619139D01*
X1950051Y619132D01*
X1950031Y619131D01*
X1949936Y619090D01*
X1949839Y619055D01*
X1949823Y619042D01*
X1949805Y619034D01*
X1949674Y618930D01*
X1946073Y615329D01*
X1944811Y614806D01*
X1944755Y614772D01*
X1944695Y614746D01*
X1944630Y614694D01*
X1944602Y614677D01*
X1944589Y614662D01*
X1944564Y614641D01*
X1942692Y612769D01*
X1939331Y611377D01*
X1935693Y611377D01*
X1932332Y612769D01*
X1930460Y614641D01*
X1930407Y614679D01*
X1930360Y614725D01*
X1930287Y614766D01*
X1930260Y614785D01*
X1930242Y614791D01*
X1930213Y614806D01*
X1928951Y615329D01*
X1925350Y618930D01*
X1925334Y618941D01*
X1925322Y618957D01*
X1925234Y619013D01*
X1925151Y619073D01*
X1925132Y619079D01*
X1925115Y619090D01*
X1925014Y619115D01*
X1924915Y619146D01*
X1924896Y619145D01*
X1924876Y619150D01*
X1924773Y619142D01*
X1924670Y619139D01*
X1924651Y619132D01*
X1924631Y619131D01*
X1924536Y619090D01*
X1924439Y619055D01*
X1924423Y619042D01*
X1924405Y619034D01*
X1924274Y618930D01*
X1920673Y615329D01*
X1919411Y614806D01*
X1919355Y614772D01*
X1919295Y614746D01*
X1919230Y614694D01*
X1919202Y614677D01*
X1919189Y614662D01*
X1919164Y614641D01*
X1917292Y612769D01*
X1913931Y611377D01*
X1910293Y611377D01*
X1906932Y612769D01*
X1905060Y614641D01*
X1905007Y614679D01*
X1904960Y614725D01*
X1904887Y614766D01*
X1904860Y614785D01*
X1904842Y614791D01*
X1904813Y614806D01*
X1903551Y615329D01*
X1899950Y618930D01*
X1899934Y618941D01*
X1899922Y618957D01*
X1899834Y619013D01*
X1899751Y619073D01*
X1899732Y619079D01*
X1899715Y619090D01*
X1899614Y619115D01*
X1899515Y619146D01*
X1899496Y619145D01*
X1899476Y619150D01*
X1899373Y619142D01*
X1899270Y619139D01*
X1899251Y619132D01*
X1899231Y619131D01*
X1899136Y619090D01*
X1899039Y619055D01*
X1899023Y619042D01*
X1899005Y619034D01*
X1898874Y618930D01*
X1895273Y615329D01*
X1894011Y614806D01*
X1893955Y614772D01*
X1893895Y614746D01*
X1893830Y614694D01*
X1893802Y614677D01*
X1893789Y614662D01*
X1893764Y614641D01*
X1891892Y612769D01*
X1888531Y611377D01*
X1884893Y611377D01*
X1881532Y612769D01*
X1879660Y614641D01*
X1879607Y614679D01*
X1879560Y614725D01*
X1879487Y614766D01*
X1879460Y614785D01*
X1879442Y614791D01*
X1879413Y614806D01*
X1878151Y615329D01*
X1873899Y619581D01*
X1871598Y625136D01*
X1871598Y631148D01*
X1873899Y636703D01*
X1878151Y640955D01*
X1878633Y641155D01*
X1878716Y641206D01*
X1878802Y641252D01*
X1878820Y641271D01*
X1878842Y641284D01*
X1878905Y641359D01*
X1878972Y641430D01*
X1878983Y641454D01*
X1878999Y641474D01*
X1879034Y641565D01*
X1879075Y641653D01*
X1879078Y641679D01*
X1879087Y641703D01*
X1879092Y641801D01*
X1879102Y641897D01*
X1879097Y641923D01*
X1879098Y641949D01*
X1879071Y642043D01*
X1879050Y642138D01*
X1879037Y642160D01*
X1879029Y642185D01*
X1878974Y642265D01*
X1878924Y642349D01*
X1878904Y642366D01*
X1878889Y642387D01*
X1878811Y642446D01*
X1878737Y642509D01*
X1878713Y642519D01*
X1878692Y642534D01*
X1878599Y642564D01*
X1878509Y642601D01*
X1878476Y642604D01*
X1878458Y642610D01*
X1878425Y642610D01*
X1878342Y642619D01*
X556260Y642619D01*
X556170Y642605D01*
X556079Y642597D01*
X556049Y642585D01*
X556017Y642580D01*
X555937Y642537D01*
X555853Y642501D01*
X555821Y642475D01*
X555800Y642464D01*
X555778Y642441D01*
X555722Y642396D01*
X552674Y639348D01*
X552621Y639274D01*
X552561Y639205D01*
X552549Y639175D01*
X552530Y639149D01*
X552503Y639062D01*
X552469Y638977D01*
X552465Y638936D01*
X552458Y638913D01*
X552459Y638881D01*
X552451Y638810D01*
X552451Y632559D01*
X552466Y632469D01*
X552473Y632378D01*
X552485Y632348D01*
X552491Y632316D01*
X552533Y632235D01*
X552569Y632151D01*
X552595Y632119D01*
X552606Y632098D01*
X552629Y632076D01*
X552674Y632020D01*
X553182Y631512D01*
X553198Y631501D01*
X553210Y631485D01*
X553298Y631429D01*
X553381Y631369D01*
X553400Y631363D01*
X553417Y631352D01*
X553518Y631327D01*
X553617Y631296D01*
X553636Y631297D01*
X553656Y631292D01*
X553759Y631300D01*
X553862Y631303D01*
X553881Y631310D01*
X553901Y631311D01*
X553996Y631352D01*
X554093Y631387D01*
X554109Y631400D01*
X554127Y631408D01*
X554258Y631512D01*
X557859Y635113D01*
X559121Y635636D01*
X559177Y635670D01*
X559237Y635696D01*
X559302Y635748D01*
X559330Y635765D01*
X559343Y635780D01*
X559368Y635801D01*
X561240Y637673D01*
X564601Y639065D01*
X568239Y639065D01*
X571600Y637673D01*
X573472Y635801D01*
X573525Y635762D01*
X573572Y635717D01*
X573645Y635676D01*
X573672Y635657D01*
X573690Y635651D01*
X573719Y635636D01*
X574981Y635113D01*
X578582Y631512D01*
X578598Y631501D01*
X578610Y631485D01*
X578698Y631429D01*
X578781Y631369D01*
X578800Y631363D01*
X578817Y631352D01*
X578918Y631327D01*
X579017Y631296D01*
X579036Y631297D01*
X579056Y631292D01*
X579159Y631300D01*
X579262Y631303D01*
X579281Y631310D01*
X579301Y631311D01*
X579396Y631352D01*
X579493Y631387D01*
X579509Y631400D01*
X579527Y631408D01*
X579658Y631512D01*
X583259Y635113D01*
X584521Y635636D01*
X584577Y635670D01*
X584637Y635696D01*
X584702Y635748D01*
X584730Y635765D01*
X584743Y635780D01*
X584768Y635801D01*
X586640Y637673D01*
X590001Y639065D01*
X593639Y639065D01*
X597000Y637673D01*
X598872Y635801D01*
X598925Y635762D01*
X598972Y635717D01*
X599045Y635676D01*
X599072Y635657D01*
X599090Y635651D01*
X599119Y635636D01*
X600381Y635113D01*
X603982Y631512D01*
X603998Y631501D01*
X604010Y631485D01*
X604098Y631429D01*
X604181Y631369D01*
X604200Y631363D01*
X604217Y631352D01*
X604318Y631327D01*
X604417Y631296D01*
X604436Y631297D01*
X604456Y631292D01*
X604559Y631300D01*
X604662Y631303D01*
X604681Y631310D01*
X604701Y631311D01*
X604796Y631352D01*
X604893Y631387D01*
X604909Y631400D01*
X604927Y631407D01*
X605058Y631512D01*
X608173Y634627D01*
X608194Y634656D01*
X608221Y634679D01*
X608313Y634820D01*
X608530Y635245D01*
X609470Y636539D01*
X610601Y637670D01*
X611895Y638610D01*
X613320Y639336D01*
X614841Y639831D01*
X615697Y639966D01*
X615697Y638175D01*
X615700Y638155D01*
X615698Y638136D01*
X615720Y638034D01*
X615737Y637932D01*
X615746Y637915D01*
X615750Y637895D01*
X615803Y637806D01*
X615852Y637715D01*
X615866Y637701D01*
X615876Y637684D01*
X615955Y637617D01*
X616030Y637545D01*
X616048Y637537D01*
X616063Y637524D01*
X616159Y637485D01*
X616253Y637442D01*
X616273Y637440D01*
X616291Y637432D01*
X616458Y637414D01*
X617982Y637414D01*
X618002Y637417D01*
X618021Y637415D01*
X618123Y637437D01*
X618225Y637453D01*
X618242Y637463D01*
X618262Y637467D01*
X618351Y637520D01*
X618442Y637569D01*
X618456Y637583D01*
X618473Y637593D01*
X618540Y637672D01*
X618611Y637747D01*
X618620Y637765D01*
X618633Y637780D01*
X618672Y637876D01*
X618715Y637970D01*
X618717Y637990D01*
X618725Y638008D01*
X618743Y638175D01*
X618743Y639966D01*
X619599Y639831D01*
X621120Y639336D01*
X622545Y638610D01*
X623839Y637670D01*
X624970Y636539D01*
X625910Y635245D01*
X626127Y634820D01*
X626148Y634791D01*
X626162Y634758D01*
X626267Y634627D01*
X630033Y630861D01*
X632334Y625306D01*
X632334Y619294D01*
X630033Y613739D01*
X626267Y609973D01*
X626246Y609944D01*
X626219Y609921D01*
X626127Y609780D01*
X625910Y609355D01*
X624970Y608061D01*
X623839Y606930D01*
X622545Y605990D01*
X622488Y605960D01*
X622433Y605920D01*
X622373Y605888D01*
X622334Y605848D01*
X622289Y605815D01*
X622250Y605759D01*
X622204Y605710D01*
X622180Y605659D01*
X622148Y605614D01*
X622129Y605549D01*
X622100Y605487D01*
X622094Y605431D01*
X622078Y605378D01*
X622080Y605310D01*
X622073Y605243D01*
X622085Y605188D01*
X622087Y605132D01*
X622111Y605069D01*
X622125Y605002D01*
X622154Y604954D01*
X622174Y604902D01*
X622216Y604849D01*
X622251Y604791D01*
X622294Y604755D01*
X622329Y604711D01*
X622387Y604675D01*
X622438Y604631D01*
X622490Y604610D01*
X622537Y604580D01*
X622603Y604565D01*
X622666Y604539D01*
X622745Y604531D01*
X622777Y604523D01*
X622797Y604525D01*
X622833Y604521D01*
X635497Y604521D01*
X635588Y604535D01*
X635678Y604543D01*
X635708Y604555D01*
X635740Y604560D01*
X635821Y604603D01*
X635905Y604639D01*
X635937Y604665D01*
X635958Y604676D01*
X635980Y604699D01*
X636036Y604744D01*
X642163Y610871D01*
X647181Y610871D01*
X647272Y610885D01*
X647362Y610893D01*
X647392Y610905D01*
X647424Y610910D01*
X647505Y610953D01*
X647589Y610989D01*
X647621Y611015D01*
X647642Y611026D01*
X647664Y611049D01*
X647720Y611094D01*
X651307Y614681D01*
X654253Y614681D01*
X656337Y612597D01*
X656337Y609651D01*
X650443Y603757D01*
X649997Y603757D01*
X649926Y603746D01*
X649854Y603744D01*
X649805Y603726D01*
X649754Y603718D01*
X649690Y603684D01*
X649623Y603659D01*
X649582Y603627D01*
X649536Y603602D01*
X649487Y603550D01*
X649431Y603506D01*
X649403Y603462D01*
X649367Y603424D01*
X649337Y603359D01*
X649298Y603299D01*
X649285Y603248D01*
X649263Y603201D01*
X649255Y603130D01*
X649238Y603060D01*
X649242Y603008D01*
X649236Y602957D01*
X649252Y602886D01*
X649257Y602815D01*
X649277Y602767D01*
X649289Y602716D01*
X649325Y602655D01*
X649353Y602589D01*
X649398Y602533D01*
X649415Y602505D01*
X649433Y602490D01*
X649458Y602458D01*
X650241Y601675D01*
X650241Y600456D01*
X650244Y600436D01*
X650242Y600417D01*
X650264Y600315D01*
X650280Y600213D01*
X650290Y600196D01*
X650294Y600176D01*
X650347Y600087D01*
X650396Y599996D01*
X650410Y599982D01*
X650420Y599965D01*
X650499Y599898D01*
X650574Y599827D01*
X650592Y599818D01*
X650607Y599805D01*
X650703Y599766D01*
X650797Y599723D01*
X650817Y599721D01*
X650835Y599713D01*
X651002Y599695D01*
X660400Y599695D01*
X660490Y599710D01*
X660581Y599717D01*
X660611Y599729D01*
X660643Y599735D01*
X660723Y599777D01*
X660807Y599813D01*
X660839Y599839D01*
X660860Y599850D01*
X660882Y599873D01*
X660938Y599918D01*
X663763Y602743D01*
X666435Y602743D01*
X674594Y594584D01*
X674668Y594531D01*
X674737Y594471D01*
X674767Y594459D01*
X674793Y594440D01*
X674880Y594413D01*
X674965Y594379D01*
X675006Y594375D01*
X675029Y594368D01*
X675061Y594369D01*
X675132Y594361D01*
X1849284Y594361D01*
X1849374Y594376D01*
G37*
D10*
X1988312Y635762D02*
X1988312Y620522D01*
X1962912Y620522D02*
X1962912Y635762D01*
X1937512Y635762D02*
X1937512Y620522D01*
X1912112Y620522D02*
X1912112Y635762D01*
X1886712Y635762D02*
X1886712Y620522D01*
X1886712Y570738D02*
X1886712Y555498D01*
X1912112Y555498D02*
X1912112Y570738D01*
X1937512Y570738D02*
X1937512Y555498D01*
X1962912Y555498D02*
X1962912Y570738D01*
X1988312Y570738D02*
X1988312Y555498D01*
X236728Y398780D02*
X236728Y383540D01*
X262128Y383540D02*
X262128Y398780D01*
X287528Y398780D02*
X287528Y383540D01*
X312928Y383540D02*
X312928Y398780D01*
X338328Y398780D02*
X338328Y383540D01*
X363728Y383540D02*
X363728Y398780D01*
X389128Y398780D02*
X389128Y383540D01*
X414528Y383540D02*
X414528Y398780D01*
X439928Y398780D02*
X439928Y383540D01*
X465328Y383540D02*
X465328Y398780D01*
X490728Y398780D02*
X490728Y383540D01*
X516128Y383540D02*
X516128Y398780D01*
X541528Y398780D02*
X541528Y383540D01*
X566928Y383540D02*
X566928Y398780D01*
X592328Y398780D02*
X592328Y383540D01*
X617728Y383540D02*
X617728Y398780D01*
X134620Y614680D02*
X134620Y629920D01*
X160020Y629920D02*
X160020Y614680D01*
X185420Y614680D02*
X185420Y629920D01*
X210820Y629920D02*
X210820Y614680D01*
X236220Y614680D02*
X236220Y629920D01*
X261620Y629920D02*
X261620Y614680D01*
X287020Y614680D02*
X287020Y629920D01*
X312420Y629920D02*
X312420Y614680D01*
X337820Y614680D02*
X337820Y629920D01*
X363220Y629920D02*
X363220Y614680D01*
X388620Y614680D02*
X388620Y629920D01*
X414020Y629920D02*
X414020Y614680D01*
X439420Y614680D02*
X439420Y629920D01*
X464820Y629920D02*
X464820Y614680D01*
X490220Y614680D02*
X490220Y629920D01*
X515620Y629920D02*
X515620Y614680D01*
X541020Y614680D02*
X541020Y629920D01*
X566420Y629920D02*
X566420Y614680D01*
X591820Y614680D02*
X591820Y629920D01*
X617220Y629920D02*
X617220Y614680D01*
D11*
X543560Y563372D03*
X492760Y563372D03*
X566674Y589026D03*
X515874Y589026D03*
D12*
X471786Y333502D03*
X421786Y333502D03*
D13*
X322580Y332740D03*
X282580Y332740D03*
X342580Y332740D03*
X362580Y332740D03*
D14*
X261580Y332740D03*
X383580Y332740D03*
D15*
X665480Y596900D03*
D16*
X657606Y589026D01*
X656590Y588010D01*
X657606Y589026D02*
X657860Y589026D01*
X656590Y588010D02*
X618490Y588010D01*
X576326Y545846D01*
X527812Y545846D01*
X527812Y573532D02*
X541020Y586740D01*
X527812Y573532D02*
X527812Y545846D01*
D17*
X620014Y551180D02*
X657860Y589026D01*
X620014Y551180D02*
X619760Y551180D01*
D15*
X619760Y551180D03*
D18*
X541020Y586740D02*
X541020Y622300D01*
D19*
X617728Y414020D03*
D18*
X617728Y398018D01*
D19*
X1974342Y580644D03*
D17*
X1986280Y568706D01*
D20*
X471786Y338582D02*
X471786Y333502D01*
X471786Y338582D02*
X472948Y339744D01*
D21*
X472948Y352552D02*
X477266Y356870D01*
X472948Y352552D02*
X472948Y339744D01*
D15*
X477266Y356870D03*
D21*
X477266Y407416D01*
X483362Y413512D01*
X617220Y413512D02*
X617728Y414020D01*
X617220Y413512D02*
X483362Y413512D01*
D22*
X1912112Y628142D02*
X1912112Y635254D01*
X1903857Y643509D01*
X1901190Y646176D01*
X275590Y646176D02*
X272796Y643382D01*
X261366Y631952D01*
X275590Y646176D02*
X1901190Y646176D01*
D19*
X1903857Y643509D03*
X272796Y643382D03*
D22*
X1937512Y637286D02*
X1937512Y628142D01*
X1930781Y644017D02*
X1924558Y650240D01*
X256032Y650240D02*
X251714Y645922D01*
X236728Y630936D01*
X256032Y650240D02*
X1924558Y650240D01*
D19*
X1930781Y644017D03*
D22*
X1937512Y637286D01*
D19*
X251714Y645922D03*
D15*
X426720Y581660D03*
D17*
X375920Y581660D01*
D15*
X375920Y581660D03*
X350520Y581660D03*
D17*
X294640Y581660D01*
X287020Y589280D02*
X287020Y599186D01*
X287020Y589280D02*
X294640Y581660D01*
D18*
X287020Y604266D02*
X287020Y622300D01*
X287020Y604266D02*
X287020Y599186D01*
D19*
X287020Y604266D03*
D23*
X730758Y600456D02*
X1844802Y600456D01*
X708914Y622300D02*
X617220Y622300D01*
X708914Y622300D02*
X730758Y600456D01*
D18*
X1962912Y619506D02*
X1962912Y628142D01*
X1962912Y619506D02*
X1947926Y604520D01*
X1848866Y604520D01*
X1844802Y600456D01*
D15*
X624840Y580221D03*
D17*
X624840Y568537D02*
X607483Y551180D01*
X607314Y551180D01*
X624840Y568537D02*
X624840Y580221D01*
D15*
X607314Y551180D03*
X364490Y552196D03*
D17*
X363220Y553466D02*
X363220Y598424D01*
X363220Y553466D02*
X364490Y552196D01*
D18*
X363220Y598424D02*
X363220Y622300D01*
D19*
X1954022Y581660D03*
D17*
X1962912Y572770D01*
X1962912Y570992D01*
D23*
X1849374Y586232D02*
X682244Y586232D01*
X612140Y516128D01*
X475996Y516128D01*
X464820Y527304D02*
X464820Y589788D01*
X464820Y622300D01*
X464820Y527304D02*
X475996Y516128D01*
X464820Y589788D02*
X439420Y615188D01*
X439420Y622300D01*
D18*
X1988312Y628142D02*
X1988312Y615950D01*
X1965706Y593344D01*
X1856486Y593344D01*
X1849374Y586232D01*
D19*
X337820Y601980D03*
D18*
X337566Y602234D01*
X337566Y611378D01*
D19*
X1868678Y561340D03*
D17*
X1879346Y561340D01*
X1880870Y562864D01*
D19*
X388620Y601980D03*
D18*
X388620Y614680D01*
X388366Y614934D01*
D19*
X1901952Y579628D03*
D17*
X1910588Y570992D01*
D19*
X414020Y601472D03*
D18*
X414020Y611378D01*
D19*
X1929257Y582041D03*
D17*
X1937004Y574294D01*
X1937004Y571246D01*
D15*
X646684Y600202D03*
D17*
X641350Y594868D01*
X611886Y594868D01*
X580390Y563372D02*
X543560Y563372D01*
X580390Y563372D02*
X611886Y594868D01*
D15*
X652780Y611124D03*
D17*
X648970Y607314D01*
X643636Y607314D01*
X637286Y600964D01*
X591820Y600964D01*
X579882Y589026D02*
X566674Y589026D01*
X579882Y589026D02*
X591820Y600964D01*
D18*
X515366Y589534D02*
X515366Y622554D01*
X515366Y589534D02*
X515874Y589026D01*
X490220Y565912D02*
X490220Y621792D01*
X490220Y565912D02*
X492760Y563372D01*
D20*
X421786Y348742D02*
X421786Y333502D01*
X421786Y348742D02*
X388874Y381654D01*
X388874Y385572D01*
M02*
