G04 EAGLE Gerber RS-274X export*
G75*
%MOMM*%
%FSLAX34Y34*%
%LPD*%
%INSilkscreen Top*%
%IPPOS*%
%AMOC8*
5,1,8,0,0,1.08239X$1,22.5*%
G01*
%ADD10C,0.050800*%
%ADD11C,0.152400*%
%ADD12C,0.127000*%


D10*
X2527046Y630428D02*
X2527046Y636016D01*
X2528598Y636016D01*
X2528675Y636014D01*
X2528753Y636008D01*
X2528829Y635999D01*
X2528906Y635985D01*
X2528981Y635968D01*
X2529055Y635947D01*
X2529129Y635922D01*
X2529201Y635894D01*
X2529271Y635862D01*
X2529340Y635827D01*
X2529407Y635788D01*
X2529472Y635746D01*
X2529535Y635701D01*
X2529596Y635653D01*
X2529654Y635602D01*
X2529709Y635548D01*
X2529762Y635491D01*
X2529811Y635432D01*
X2529858Y635370D01*
X2529902Y635306D01*
X2529942Y635240D01*
X2529979Y635172D01*
X2530013Y635102D01*
X2530043Y635031D01*
X2530069Y634958D01*
X2530092Y634884D01*
X2530111Y634809D01*
X2530126Y634734D01*
X2530138Y634657D01*
X2530146Y634580D01*
X2530150Y634503D01*
X2530150Y634425D01*
X2530146Y634348D01*
X2530138Y634271D01*
X2530126Y634194D01*
X2530111Y634119D01*
X2530092Y634044D01*
X2530069Y633970D01*
X2530043Y633897D01*
X2530013Y633826D01*
X2529979Y633756D01*
X2529942Y633688D01*
X2529902Y633622D01*
X2529858Y633558D01*
X2529811Y633496D01*
X2529762Y633437D01*
X2529709Y633380D01*
X2529654Y633326D01*
X2529596Y633275D01*
X2529535Y633227D01*
X2529472Y633182D01*
X2529407Y633140D01*
X2529340Y633101D01*
X2529271Y633066D01*
X2529201Y633034D01*
X2529129Y633006D01*
X2529055Y632981D01*
X2528981Y632960D01*
X2528906Y632943D01*
X2528829Y632929D01*
X2528753Y632920D01*
X2528675Y632914D01*
X2528598Y632912D01*
X2527046Y632912D01*
X2528909Y632912D02*
X2530150Y630428D01*
X2532690Y630428D02*
X2535174Y630428D01*
X2532690Y630428D02*
X2532690Y636016D01*
X2535174Y636016D01*
X2534553Y633532D02*
X2532690Y633532D01*
X2537434Y636016D02*
X2537434Y630428D01*
X2537434Y636016D02*
X2538986Y636016D01*
X2539062Y636014D01*
X2539138Y636009D01*
X2539214Y635999D01*
X2539289Y635986D01*
X2539363Y635969D01*
X2539437Y635949D01*
X2539509Y635925D01*
X2539580Y635898D01*
X2539650Y635867D01*
X2539718Y635833D01*
X2539784Y635795D01*
X2539848Y635754D01*
X2539911Y635711D01*
X2539971Y635664D01*
X2540028Y635614D01*
X2540083Y635561D01*
X2540136Y635506D01*
X2540186Y635449D01*
X2540233Y635389D01*
X2540276Y635326D01*
X2540317Y635262D01*
X2540355Y635196D01*
X2540389Y635128D01*
X2540420Y635058D01*
X2540447Y634987D01*
X2540471Y634914D01*
X2540491Y634841D01*
X2540508Y634767D01*
X2540521Y634692D01*
X2540531Y634616D01*
X2540536Y634540D01*
X2540538Y634464D01*
X2540538Y631980D01*
X2540536Y631901D01*
X2540530Y631823D01*
X2540520Y631745D01*
X2540506Y631668D01*
X2540488Y631591D01*
X2540467Y631515D01*
X2540441Y631441D01*
X2540412Y631368D01*
X2540379Y631297D01*
X2540343Y631227D01*
X2540303Y631159D01*
X2540260Y631093D01*
X2540213Y631030D01*
X2540164Y630969D01*
X2540111Y630911D01*
X2540055Y630855D01*
X2539997Y630802D01*
X2539936Y630753D01*
X2539873Y630706D01*
X2539807Y630663D01*
X2539739Y630623D01*
X2539670Y630587D01*
X2539598Y630554D01*
X2539525Y630525D01*
X2539451Y630499D01*
X2539375Y630478D01*
X2539298Y630460D01*
X2539221Y630446D01*
X2539143Y630436D01*
X2539065Y630430D01*
X2538986Y630428D01*
X2537434Y630428D01*
X2542865Y629807D02*
X2545349Y629807D01*
X2547182Y630428D02*
X2549045Y636016D01*
X2550907Y630428D01*
X2550442Y631825D02*
X2547648Y631825D01*
X2553173Y630428D02*
X2553173Y636016D01*
X2553173Y630428D02*
X2555656Y630428D01*
X2558920Y630428D02*
X2558920Y636016D01*
X2557368Y636016D02*
X2560472Y636016D01*
X2532747Y562356D02*
X2532747Y556768D01*
X2532126Y556768D02*
X2533368Y556768D01*
X2533368Y562356D02*
X2532126Y562356D01*
X2535803Y562356D02*
X2535803Y556768D01*
X2535803Y562356D02*
X2537355Y562356D01*
X2537432Y562354D01*
X2537510Y562348D01*
X2537586Y562339D01*
X2537663Y562325D01*
X2537738Y562308D01*
X2537812Y562287D01*
X2537886Y562262D01*
X2537958Y562234D01*
X2538028Y562202D01*
X2538097Y562167D01*
X2538164Y562128D01*
X2538229Y562086D01*
X2538292Y562041D01*
X2538353Y561993D01*
X2538411Y561942D01*
X2538466Y561888D01*
X2538519Y561831D01*
X2538568Y561772D01*
X2538615Y561710D01*
X2538659Y561646D01*
X2538699Y561580D01*
X2538736Y561512D01*
X2538770Y561442D01*
X2538800Y561371D01*
X2538826Y561298D01*
X2538849Y561224D01*
X2538868Y561149D01*
X2538883Y561074D01*
X2538895Y560997D01*
X2538903Y560920D01*
X2538907Y560843D01*
X2538907Y560765D01*
X2538903Y560688D01*
X2538895Y560611D01*
X2538883Y560534D01*
X2538868Y560459D01*
X2538849Y560384D01*
X2538826Y560310D01*
X2538800Y560237D01*
X2538770Y560166D01*
X2538736Y560096D01*
X2538699Y560028D01*
X2538659Y559962D01*
X2538615Y559898D01*
X2538568Y559836D01*
X2538519Y559777D01*
X2538466Y559720D01*
X2538411Y559666D01*
X2538353Y559615D01*
X2538292Y559567D01*
X2538229Y559522D01*
X2538164Y559480D01*
X2538097Y559441D01*
X2538028Y559406D01*
X2537958Y559374D01*
X2537886Y559346D01*
X2537812Y559321D01*
X2537738Y559300D01*
X2537663Y559283D01*
X2537586Y559269D01*
X2537510Y559260D01*
X2537432Y559254D01*
X2537355Y559252D01*
X2535803Y559252D01*
X2537665Y559252D02*
X2538907Y556768D01*
X2541015Y556147D02*
X2543498Y556147D01*
X2545332Y556768D02*
X2547194Y562356D01*
X2549057Y556768D01*
X2548591Y558165D02*
X2545797Y558165D01*
X2551322Y556768D02*
X2551322Y562356D01*
X2551322Y556768D02*
X2553806Y556768D01*
X2557070Y556768D02*
X2557070Y562356D01*
X2555518Y562356D02*
X2558622Y562356D01*
D11*
X178562Y559054D02*
X178562Y576580D01*
X178562Y568791D02*
X188299Y568791D01*
X188299Y576580D02*
X188299Y559054D01*
X196262Y559054D02*
X204051Y559054D01*
X196262Y559054D02*
X196262Y576580D01*
X204051Y576580D01*
X202104Y568791D02*
X196262Y568791D01*
X217406Y568791D02*
X220327Y568791D01*
X220327Y559054D01*
X214485Y559054D01*
X214363Y559056D01*
X214240Y559062D01*
X214118Y559071D01*
X213997Y559085D01*
X213876Y559102D01*
X213755Y559123D01*
X213635Y559148D01*
X213516Y559176D01*
X213398Y559209D01*
X213281Y559245D01*
X213166Y559284D01*
X213051Y559328D01*
X212938Y559374D01*
X212827Y559425D01*
X212717Y559479D01*
X212609Y559536D01*
X212502Y559596D01*
X212398Y559660D01*
X212296Y559728D01*
X212196Y559798D01*
X212098Y559871D01*
X212002Y559948D01*
X211909Y560027D01*
X211819Y560110D01*
X211731Y560195D01*
X211646Y560283D01*
X211563Y560373D01*
X211484Y560466D01*
X211407Y560562D01*
X211334Y560660D01*
X211264Y560760D01*
X211196Y560862D01*
X211132Y560966D01*
X211072Y561073D01*
X211015Y561181D01*
X210961Y561291D01*
X210910Y561402D01*
X210864Y561515D01*
X210820Y561630D01*
X210781Y561745D01*
X210745Y561862D01*
X210712Y561980D01*
X210684Y562099D01*
X210659Y562219D01*
X210638Y562340D01*
X210621Y562461D01*
X210607Y562582D01*
X210598Y562704D01*
X210592Y562827D01*
X210590Y562949D01*
X210590Y572685D01*
X210592Y572807D01*
X210598Y572930D01*
X210607Y573052D01*
X210621Y573173D01*
X210638Y573294D01*
X210659Y573415D01*
X210684Y573535D01*
X210712Y573654D01*
X210745Y573772D01*
X210781Y573889D01*
X210820Y574004D01*
X210864Y574119D01*
X210910Y574232D01*
X210961Y574343D01*
X211015Y574453D01*
X211072Y574561D01*
X211132Y574668D01*
X211196Y574772D01*
X211264Y574874D01*
X211334Y574974D01*
X211407Y575072D01*
X211484Y575168D01*
X211563Y575261D01*
X211646Y575351D01*
X211731Y575439D01*
X211819Y575524D01*
X211909Y575607D01*
X212002Y575686D01*
X212098Y575763D01*
X212196Y575836D01*
X212296Y575906D01*
X212398Y575974D01*
X212502Y576038D01*
X212609Y576098D01*
X212717Y576155D01*
X212827Y576209D01*
X212938Y576260D01*
X213051Y576306D01*
X213166Y576350D01*
X213281Y576389D01*
X213398Y576425D01*
X213516Y576458D01*
X213635Y576486D01*
X213755Y576511D01*
X213876Y576532D01*
X213997Y576549D01*
X214118Y576563D01*
X214240Y576572D01*
X214363Y576578D01*
X214485Y576580D01*
X220327Y576580D01*
X235298Y576580D02*
X235298Y559054D01*
X230430Y559054D01*
X230323Y559056D01*
X230217Y559062D01*
X230111Y559072D01*
X230005Y559085D01*
X229899Y559103D01*
X229795Y559124D01*
X229691Y559149D01*
X229588Y559178D01*
X229487Y559210D01*
X229387Y559247D01*
X229288Y559287D01*
X229190Y559330D01*
X229094Y559377D01*
X229000Y559428D01*
X228908Y559482D01*
X228818Y559539D01*
X228730Y559599D01*
X228645Y559663D01*
X228562Y559730D01*
X228481Y559800D01*
X228403Y559872D01*
X228327Y559948D01*
X228255Y560026D01*
X228185Y560107D01*
X228118Y560190D01*
X228054Y560275D01*
X227994Y560363D01*
X227937Y560453D01*
X227883Y560545D01*
X227832Y560639D01*
X227785Y560735D01*
X227742Y560833D01*
X227702Y560932D01*
X227665Y561032D01*
X227633Y561133D01*
X227604Y561236D01*
X227579Y561340D01*
X227558Y561444D01*
X227540Y561550D01*
X227527Y561656D01*
X227517Y561762D01*
X227511Y561868D01*
X227509Y561975D01*
X227509Y567817D01*
X227511Y567924D01*
X227517Y568030D01*
X227527Y568136D01*
X227540Y568242D01*
X227558Y568348D01*
X227579Y568452D01*
X227604Y568556D01*
X227633Y568659D01*
X227665Y568760D01*
X227702Y568860D01*
X227742Y568959D01*
X227785Y569057D01*
X227832Y569153D01*
X227883Y569247D01*
X227937Y569339D01*
X227994Y569429D01*
X228054Y569517D01*
X228118Y569602D01*
X228185Y569685D01*
X228255Y569766D01*
X228327Y569844D01*
X228403Y569920D01*
X228481Y569992D01*
X228562Y570062D01*
X228645Y570129D01*
X228730Y570193D01*
X228818Y570253D01*
X228908Y570310D01*
X229000Y570364D01*
X229094Y570415D01*
X229190Y570462D01*
X229288Y570505D01*
X229387Y570545D01*
X229487Y570582D01*
X229588Y570614D01*
X229691Y570643D01*
X229795Y570668D01*
X229899Y570689D01*
X230005Y570707D01*
X230111Y570720D01*
X230217Y570730D01*
X230323Y570736D01*
X230430Y570738D01*
X235298Y570738D01*
X243040Y570738D02*
X243040Y561975D01*
X243042Y561868D01*
X243048Y561762D01*
X243058Y561656D01*
X243071Y561550D01*
X243089Y561444D01*
X243110Y561340D01*
X243135Y561236D01*
X243164Y561133D01*
X243196Y561032D01*
X243233Y560932D01*
X243273Y560833D01*
X243316Y560735D01*
X243363Y560639D01*
X243414Y560545D01*
X243468Y560453D01*
X243525Y560363D01*
X243585Y560275D01*
X243649Y560190D01*
X243716Y560107D01*
X243786Y560026D01*
X243858Y559948D01*
X243934Y559872D01*
X244012Y559800D01*
X244093Y559730D01*
X244176Y559663D01*
X244261Y559599D01*
X244349Y559539D01*
X244439Y559482D01*
X244531Y559428D01*
X244625Y559377D01*
X244721Y559330D01*
X244819Y559287D01*
X244918Y559247D01*
X245018Y559210D01*
X245119Y559178D01*
X245222Y559149D01*
X245326Y559124D01*
X245430Y559103D01*
X245536Y559085D01*
X245642Y559072D01*
X245748Y559062D01*
X245854Y559056D01*
X245961Y559054D01*
X250829Y559054D01*
X250829Y570738D01*
X257979Y570738D02*
X257979Y559054D01*
X257492Y575606D02*
X257492Y576580D01*
X258465Y576580D01*
X258465Y575606D01*
X257492Y575606D01*
X265128Y570738D02*
X265128Y559054D01*
X265128Y570738D02*
X269996Y570738D01*
X270103Y570736D01*
X270209Y570730D01*
X270315Y570720D01*
X270421Y570707D01*
X270527Y570689D01*
X270631Y570668D01*
X270735Y570643D01*
X270838Y570614D01*
X270939Y570582D01*
X271039Y570545D01*
X271138Y570505D01*
X271236Y570462D01*
X271332Y570415D01*
X271426Y570364D01*
X271518Y570310D01*
X271608Y570253D01*
X271696Y570193D01*
X271781Y570129D01*
X271864Y570062D01*
X271945Y569992D01*
X272023Y569920D01*
X272099Y569844D01*
X272171Y569766D01*
X272241Y569685D01*
X272308Y569602D01*
X272372Y569517D01*
X272432Y569429D01*
X272489Y569339D01*
X272543Y569247D01*
X272594Y569153D01*
X272641Y569057D01*
X272684Y568959D01*
X272724Y568860D01*
X272761Y568760D01*
X272793Y568659D01*
X272822Y568556D01*
X272847Y568452D01*
X272868Y568348D01*
X272886Y568242D01*
X272899Y568136D01*
X272909Y568030D01*
X272915Y567924D01*
X272917Y567817D01*
X272917Y559054D01*
X280038Y562949D02*
X280038Y566843D01*
X280037Y566843D02*
X280039Y566967D01*
X280045Y567090D01*
X280055Y567213D01*
X280068Y567336D01*
X280086Y567458D01*
X280107Y567580D01*
X280133Y567701D01*
X280162Y567821D01*
X280195Y567940D01*
X280231Y568058D01*
X280272Y568175D01*
X280316Y568291D01*
X280364Y568405D01*
X280415Y568517D01*
X280470Y568628D01*
X280528Y568737D01*
X280590Y568844D01*
X280655Y568949D01*
X280724Y569052D01*
X280795Y569152D01*
X280870Y569251D01*
X280948Y569347D01*
X281029Y569440D01*
X281113Y569531D01*
X281200Y569619D01*
X281289Y569704D01*
X281381Y569787D01*
X281476Y569866D01*
X281573Y569942D01*
X281673Y570016D01*
X281774Y570086D01*
X281878Y570153D01*
X281985Y570216D01*
X282093Y570276D01*
X282202Y570333D01*
X282314Y570386D01*
X282427Y570436D01*
X282542Y570482D01*
X282658Y570524D01*
X282775Y570562D01*
X282894Y570597D01*
X283014Y570628D01*
X283134Y570655D01*
X283256Y570679D01*
X283378Y570698D01*
X283500Y570714D01*
X283623Y570726D01*
X283747Y570734D01*
X283870Y570738D01*
X283994Y570738D01*
X284117Y570734D01*
X284241Y570726D01*
X284364Y570714D01*
X284486Y570698D01*
X284608Y570679D01*
X284730Y570655D01*
X284850Y570628D01*
X284970Y570597D01*
X285089Y570562D01*
X285206Y570524D01*
X285322Y570482D01*
X285437Y570436D01*
X285550Y570386D01*
X285662Y570333D01*
X285771Y570276D01*
X285880Y570216D01*
X285986Y570153D01*
X286090Y570086D01*
X286191Y570016D01*
X286291Y569942D01*
X286388Y569866D01*
X286483Y569787D01*
X286575Y569704D01*
X286664Y569619D01*
X286751Y569531D01*
X286835Y569440D01*
X286916Y569347D01*
X286994Y569251D01*
X287069Y569152D01*
X287140Y569052D01*
X287209Y568949D01*
X287274Y568844D01*
X287336Y568737D01*
X287394Y568628D01*
X287449Y568517D01*
X287500Y568405D01*
X287548Y568291D01*
X287592Y568175D01*
X287633Y568058D01*
X287669Y567940D01*
X287702Y567821D01*
X287731Y567701D01*
X287757Y567580D01*
X287778Y567458D01*
X287796Y567336D01*
X287809Y567213D01*
X287819Y567090D01*
X287825Y566967D01*
X287827Y566843D01*
X287827Y562949D01*
X287825Y562825D01*
X287819Y562702D01*
X287809Y562579D01*
X287796Y562456D01*
X287778Y562334D01*
X287757Y562212D01*
X287731Y562091D01*
X287702Y561971D01*
X287669Y561852D01*
X287633Y561734D01*
X287592Y561617D01*
X287548Y561501D01*
X287500Y561387D01*
X287449Y561275D01*
X287394Y561164D01*
X287336Y561055D01*
X287274Y560948D01*
X287209Y560843D01*
X287140Y560740D01*
X287069Y560640D01*
X286994Y560541D01*
X286916Y560445D01*
X286835Y560352D01*
X286751Y560261D01*
X286664Y560173D01*
X286575Y560088D01*
X286483Y560005D01*
X286388Y559926D01*
X286291Y559850D01*
X286191Y559776D01*
X286090Y559706D01*
X285986Y559639D01*
X285880Y559576D01*
X285771Y559516D01*
X285662Y559459D01*
X285550Y559406D01*
X285437Y559356D01*
X285322Y559310D01*
X285206Y559268D01*
X285089Y559230D01*
X284970Y559195D01*
X284850Y559164D01*
X284730Y559137D01*
X284608Y559113D01*
X284486Y559094D01*
X284364Y559078D01*
X284241Y559066D01*
X284117Y559058D01*
X283994Y559054D01*
X283870Y559054D01*
X283747Y559058D01*
X283623Y559066D01*
X283500Y559078D01*
X283378Y559094D01*
X283256Y559113D01*
X283134Y559137D01*
X283014Y559164D01*
X282894Y559195D01*
X282775Y559230D01*
X282658Y559268D01*
X282542Y559310D01*
X282427Y559356D01*
X282314Y559406D01*
X282202Y559459D01*
X282093Y559516D01*
X281985Y559576D01*
X281878Y559639D01*
X281774Y559706D01*
X281673Y559776D01*
X281573Y559850D01*
X281476Y559926D01*
X281381Y560005D01*
X281289Y560088D01*
X281200Y560173D01*
X281113Y560261D01*
X281029Y560352D01*
X280948Y560445D01*
X280870Y560541D01*
X280795Y560640D01*
X280724Y560740D01*
X280655Y560843D01*
X280590Y560948D01*
X280528Y561055D01*
X280470Y561164D01*
X280415Y561275D01*
X280364Y561387D01*
X280316Y561501D01*
X280272Y561617D01*
X280231Y561734D01*
X280195Y561852D01*
X280162Y561971D01*
X280133Y562091D01*
X280107Y562212D01*
X280086Y562334D01*
X280068Y562456D01*
X280055Y562579D01*
X280045Y562702D01*
X280039Y562825D01*
X280037Y562949D01*
X302388Y576580D02*
X308230Y559054D01*
X314072Y576580D01*
X322718Y559054D02*
X327586Y559054D01*
X322718Y559054D02*
X322611Y559056D01*
X322505Y559062D01*
X322399Y559072D01*
X322293Y559085D01*
X322187Y559103D01*
X322083Y559124D01*
X321979Y559149D01*
X321876Y559178D01*
X321775Y559210D01*
X321675Y559247D01*
X321576Y559287D01*
X321478Y559330D01*
X321382Y559377D01*
X321288Y559428D01*
X321196Y559482D01*
X321106Y559539D01*
X321018Y559599D01*
X320933Y559663D01*
X320850Y559730D01*
X320769Y559800D01*
X320691Y559872D01*
X320615Y559948D01*
X320543Y560026D01*
X320473Y560107D01*
X320406Y560190D01*
X320342Y560275D01*
X320282Y560363D01*
X320225Y560453D01*
X320171Y560545D01*
X320120Y560639D01*
X320073Y560735D01*
X320030Y560833D01*
X319990Y560932D01*
X319953Y561032D01*
X319921Y561133D01*
X319892Y561236D01*
X319867Y561340D01*
X319846Y561444D01*
X319828Y561550D01*
X319815Y561656D01*
X319805Y561762D01*
X319799Y561868D01*
X319797Y561975D01*
X319797Y566843D01*
X319799Y566967D01*
X319805Y567090D01*
X319815Y567213D01*
X319828Y567336D01*
X319846Y567458D01*
X319867Y567580D01*
X319893Y567701D01*
X319922Y567821D01*
X319955Y567940D01*
X319991Y568058D01*
X320032Y568175D01*
X320076Y568291D01*
X320124Y568405D01*
X320175Y568517D01*
X320230Y568628D01*
X320288Y568737D01*
X320350Y568844D01*
X320415Y568949D01*
X320484Y569052D01*
X320555Y569152D01*
X320630Y569251D01*
X320708Y569347D01*
X320789Y569440D01*
X320873Y569531D01*
X320960Y569619D01*
X321049Y569704D01*
X321141Y569787D01*
X321236Y569866D01*
X321333Y569942D01*
X321433Y570016D01*
X321534Y570086D01*
X321638Y570153D01*
X321745Y570216D01*
X321853Y570276D01*
X321962Y570333D01*
X322074Y570386D01*
X322187Y570436D01*
X322302Y570482D01*
X322418Y570524D01*
X322535Y570562D01*
X322654Y570597D01*
X322774Y570628D01*
X322894Y570655D01*
X323016Y570679D01*
X323138Y570698D01*
X323260Y570714D01*
X323383Y570726D01*
X323507Y570734D01*
X323630Y570738D01*
X323754Y570738D01*
X323877Y570734D01*
X324001Y570726D01*
X324124Y570714D01*
X324246Y570698D01*
X324368Y570679D01*
X324490Y570655D01*
X324610Y570628D01*
X324730Y570597D01*
X324849Y570562D01*
X324966Y570524D01*
X325082Y570482D01*
X325197Y570436D01*
X325310Y570386D01*
X325422Y570333D01*
X325531Y570276D01*
X325640Y570216D01*
X325746Y570153D01*
X325850Y570086D01*
X325951Y570016D01*
X326051Y569942D01*
X326148Y569866D01*
X326243Y569787D01*
X326335Y569704D01*
X326424Y569619D01*
X326511Y569531D01*
X326595Y569440D01*
X326676Y569347D01*
X326754Y569251D01*
X326829Y569152D01*
X326900Y569052D01*
X326969Y568949D01*
X327034Y568844D01*
X327096Y568737D01*
X327154Y568628D01*
X327209Y568517D01*
X327260Y568405D01*
X327308Y568291D01*
X327352Y568175D01*
X327393Y568058D01*
X327429Y567940D01*
X327462Y567821D01*
X327491Y567701D01*
X327517Y567580D01*
X327538Y567458D01*
X327556Y567336D01*
X327569Y567213D01*
X327579Y567090D01*
X327585Y566967D01*
X327587Y566843D01*
X327586Y566843D02*
X327586Y564896D01*
X319797Y564896D01*
X334788Y559054D02*
X334788Y570738D01*
X340630Y570738D01*
X340630Y568791D01*
X347211Y565870D02*
X352080Y563922D01*
X347211Y565870D02*
X347119Y565909D01*
X347028Y565951D01*
X346940Y565997D01*
X346853Y566047D01*
X346768Y566100D01*
X346685Y566157D01*
X346605Y566216D01*
X346527Y566279D01*
X346451Y566345D01*
X346379Y566414D01*
X346309Y566485D01*
X346242Y566559D01*
X346177Y566636D01*
X346117Y566716D01*
X346059Y566798D01*
X346004Y566881D01*
X345953Y566968D01*
X345905Y567056D01*
X345861Y567145D01*
X345821Y567237D01*
X345784Y567330D01*
X345751Y567424D01*
X345721Y567520D01*
X345696Y567617D01*
X345674Y567715D01*
X345656Y567813D01*
X345642Y567912D01*
X345632Y568012D01*
X345626Y568112D01*
X345624Y568212D01*
X345626Y568312D01*
X345632Y568412D01*
X345642Y568512D01*
X345655Y568611D01*
X345673Y568709D01*
X345695Y568807D01*
X345720Y568904D01*
X345749Y569000D01*
X345782Y569094D01*
X345819Y569187D01*
X345859Y569279D01*
X345903Y569369D01*
X345951Y569457D01*
X346002Y569543D01*
X346056Y569627D01*
X346114Y569709D01*
X346175Y569788D01*
X346239Y569865D01*
X346306Y569940D01*
X346376Y570011D01*
X346448Y570080D01*
X346524Y570146D01*
X346601Y570209D01*
X346682Y570269D01*
X346764Y570325D01*
X346849Y570379D01*
X346936Y570429D01*
X347025Y570475D01*
X347115Y570518D01*
X347207Y570557D01*
X347301Y570592D01*
X347396Y570624D01*
X347492Y570652D01*
X347589Y570676D01*
X347687Y570696D01*
X347786Y570713D01*
X347885Y570725D01*
X347985Y570734D01*
X348085Y570738D01*
X348185Y570739D01*
X348451Y570732D01*
X348716Y570718D01*
X348982Y570699D01*
X349246Y570673D01*
X349510Y570640D01*
X349773Y570601D01*
X350035Y570556D01*
X350296Y570505D01*
X350555Y570447D01*
X350814Y570383D01*
X351070Y570313D01*
X351325Y570237D01*
X351578Y570154D01*
X351828Y570066D01*
X352077Y569972D01*
X352323Y569871D01*
X352567Y569765D01*
X352080Y563922D02*
X352172Y563883D01*
X352263Y563841D01*
X352351Y563795D01*
X352438Y563745D01*
X352523Y563692D01*
X352606Y563635D01*
X352686Y563576D01*
X352764Y563513D01*
X352840Y563447D01*
X352912Y563378D01*
X352982Y563307D01*
X353049Y563233D01*
X353113Y563156D01*
X353174Y563076D01*
X353232Y562994D01*
X353287Y562911D01*
X353338Y562824D01*
X353386Y562736D01*
X353430Y562647D01*
X353470Y562555D01*
X353507Y562462D01*
X353540Y562368D01*
X353570Y562272D01*
X353595Y562175D01*
X353617Y562077D01*
X353635Y561979D01*
X353649Y561880D01*
X353659Y561780D01*
X353665Y561680D01*
X353667Y561580D01*
X353665Y561480D01*
X353659Y561380D01*
X353649Y561280D01*
X353636Y561181D01*
X353618Y561083D01*
X353596Y560985D01*
X353571Y560888D01*
X353542Y560792D01*
X353509Y560698D01*
X353472Y560605D01*
X353432Y560513D01*
X353388Y560423D01*
X353340Y560335D01*
X353289Y560249D01*
X353235Y560165D01*
X353177Y560083D01*
X353116Y560004D01*
X353052Y559927D01*
X352985Y559852D01*
X352915Y559781D01*
X352843Y559712D01*
X352767Y559646D01*
X352690Y559583D01*
X352609Y559523D01*
X352527Y559467D01*
X352442Y559413D01*
X352355Y559363D01*
X352266Y559317D01*
X352176Y559274D01*
X352084Y559235D01*
X351990Y559200D01*
X351895Y559168D01*
X351799Y559140D01*
X351702Y559116D01*
X351604Y559096D01*
X351505Y559079D01*
X351406Y559067D01*
X351306Y559058D01*
X351206Y559054D01*
X351106Y559053D01*
X351106Y559054D02*
X350716Y559064D01*
X350326Y559083D01*
X349936Y559112D01*
X349547Y559150D01*
X349160Y559197D01*
X348773Y559253D01*
X348388Y559318D01*
X348005Y559393D01*
X347623Y559476D01*
X347244Y559569D01*
X346867Y559670D01*
X346492Y559780D01*
X346120Y559899D01*
X345751Y560027D01*
X360137Y559054D02*
X360137Y570738D01*
X359651Y575606D02*
X359651Y576580D01*
X360624Y576580D01*
X360624Y575606D01*
X359651Y575606D01*
X366735Y566843D02*
X366735Y562949D01*
X366734Y566843D02*
X366736Y566967D01*
X366742Y567090D01*
X366752Y567213D01*
X366765Y567336D01*
X366783Y567458D01*
X366804Y567580D01*
X366830Y567701D01*
X366859Y567821D01*
X366892Y567940D01*
X366928Y568058D01*
X366969Y568175D01*
X367013Y568291D01*
X367061Y568405D01*
X367112Y568517D01*
X367167Y568628D01*
X367225Y568737D01*
X367287Y568844D01*
X367352Y568949D01*
X367421Y569052D01*
X367492Y569152D01*
X367567Y569251D01*
X367645Y569347D01*
X367726Y569440D01*
X367810Y569531D01*
X367897Y569619D01*
X367986Y569704D01*
X368078Y569787D01*
X368173Y569866D01*
X368270Y569942D01*
X368370Y570016D01*
X368471Y570086D01*
X368575Y570153D01*
X368682Y570216D01*
X368790Y570276D01*
X368899Y570333D01*
X369011Y570386D01*
X369124Y570436D01*
X369239Y570482D01*
X369355Y570524D01*
X369472Y570562D01*
X369591Y570597D01*
X369711Y570628D01*
X369831Y570655D01*
X369953Y570679D01*
X370075Y570698D01*
X370197Y570714D01*
X370320Y570726D01*
X370444Y570734D01*
X370567Y570738D01*
X370691Y570738D01*
X370814Y570734D01*
X370938Y570726D01*
X371061Y570714D01*
X371183Y570698D01*
X371305Y570679D01*
X371427Y570655D01*
X371547Y570628D01*
X371667Y570597D01*
X371786Y570562D01*
X371903Y570524D01*
X372019Y570482D01*
X372134Y570436D01*
X372247Y570386D01*
X372359Y570333D01*
X372468Y570276D01*
X372577Y570216D01*
X372683Y570153D01*
X372787Y570086D01*
X372888Y570016D01*
X372988Y569942D01*
X373085Y569866D01*
X373180Y569787D01*
X373272Y569704D01*
X373361Y569619D01*
X373448Y569531D01*
X373532Y569440D01*
X373613Y569347D01*
X373691Y569251D01*
X373766Y569152D01*
X373837Y569052D01*
X373906Y568949D01*
X373971Y568844D01*
X374033Y568737D01*
X374091Y568628D01*
X374146Y568517D01*
X374197Y568405D01*
X374245Y568291D01*
X374289Y568175D01*
X374330Y568058D01*
X374366Y567940D01*
X374399Y567821D01*
X374428Y567701D01*
X374454Y567580D01*
X374475Y567458D01*
X374493Y567336D01*
X374506Y567213D01*
X374516Y567090D01*
X374522Y566967D01*
X374524Y566843D01*
X374524Y562949D01*
X374522Y562825D01*
X374516Y562702D01*
X374506Y562579D01*
X374493Y562456D01*
X374475Y562334D01*
X374454Y562212D01*
X374428Y562091D01*
X374399Y561971D01*
X374366Y561852D01*
X374330Y561734D01*
X374289Y561617D01*
X374245Y561501D01*
X374197Y561387D01*
X374146Y561275D01*
X374091Y561164D01*
X374033Y561055D01*
X373971Y560948D01*
X373906Y560843D01*
X373837Y560740D01*
X373766Y560640D01*
X373691Y560541D01*
X373613Y560445D01*
X373532Y560352D01*
X373448Y560261D01*
X373361Y560173D01*
X373272Y560088D01*
X373180Y560005D01*
X373085Y559926D01*
X372988Y559850D01*
X372888Y559776D01*
X372787Y559706D01*
X372683Y559639D01*
X372577Y559576D01*
X372468Y559516D01*
X372359Y559459D01*
X372247Y559406D01*
X372134Y559356D01*
X372019Y559310D01*
X371903Y559268D01*
X371786Y559230D01*
X371667Y559195D01*
X371547Y559164D01*
X371427Y559137D01*
X371305Y559113D01*
X371183Y559094D01*
X371061Y559078D01*
X370938Y559066D01*
X370814Y559058D01*
X370691Y559054D01*
X370567Y559054D01*
X370444Y559058D01*
X370320Y559066D01*
X370197Y559078D01*
X370075Y559094D01*
X369953Y559113D01*
X369831Y559137D01*
X369711Y559164D01*
X369591Y559195D01*
X369472Y559230D01*
X369355Y559268D01*
X369239Y559310D01*
X369124Y559356D01*
X369011Y559406D01*
X368899Y559459D01*
X368790Y559516D01*
X368682Y559576D01*
X368575Y559639D01*
X368471Y559706D01*
X368370Y559776D01*
X368270Y559850D01*
X368173Y559926D01*
X368078Y560005D01*
X367986Y560088D01*
X367897Y560173D01*
X367810Y560261D01*
X367726Y560352D01*
X367645Y560445D01*
X367567Y560541D01*
X367492Y560640D01*
X367421Y560740D01*
X367352Y560843D01*
X367287Y560948D01*
X367225Y561055D01*
X367167Y561164D01*
X367112Y561275D01*
X367061Y561387D01*
X367013Y561501D01*
X366969Y561617D01*
X366928Y561734D01*
X366892Y561852D01*
X366859Y561971D01*
X366830Y562091D01*
X366804Y562212D01*
X366783Y562334D01*
X366765Y562456D01*
X366752Y562579D01*
X366742Y562702D01*
X366736Y562825D01*
X366734Y562949D01*
X381644Y559054D02*
X381644Y570738D01*
X386513Y570738D01*
X386620Y570736D01*
X386726Y570730D01*
X386832Y570720D01*
X386938Y570707D01*
X387044Y570689D01*
X387148Y570668D01*
X387252Y570643D01*
X387355Y570614D01*
X387456Y570582D01*
X387556Y570545D01*
X387655Y570505D01*
X387753Y570462D01*
X387849Y570415D01*
X387943Y570364D01*
X388035Y570310D01*
X388125Y570253D01*
X388213Y570193D01*
X388298Y570129D01*
X388381Y570062D01*
X388462Y569992D01*
X388540Y569920D01*
X388616Y569844D01*
X388688Y569766D01*
X388758Y569685D01*
X388825Y569602D01*
X388889Y569517D01*
X388949Y569429D01*
X389006Y569339D01*
X389060Y569247D01*
X389111Y569153D01*
X389158Y569057D01*
X389201Y568959D01*
X389241Y568860D01*
X389278Y568760D01*
X389310Y568659D01*
X389339Y568556D01*
X389364Y568452D01*
X389385Y568348D01*
X389403Y568242D01*
X389416Y568136D01*
X389426Y568030D01*
X389432Y567924D01*
X389434Y567817D01*
X389434Y559054D01*
X410875Y576581D02*
X411005Y576579D01*
X411135Y576573D01*
X411264Y576564D01*
X411393Y576550D01*
X411522Y576533D01*
X411650Y576512D01*
X411778Y576487D01*
X411904Y576458D01*
X412030Y576426D01*
X412155Y576390D01*
X412278Y576350D01*
X412401Y576307D01*
X412522Y576260D01*
X412641Y576209D01*
X412760Y576155D01*
X412876Y576097D01*
X412991Y576036D01*
X413103Y575972D01*
X413214Y575904D01*
X413323Y575833D01*
X413430Y575759D01*
X413534Y575682D01*
X413636Y575602D01*
X413736Y575518D01*
X413833Y575432D01*
X413927Y575343D01*
X414019Y575251D01*
X414108Y575157D01*
X414194Y575060D01*
X414278Y574960D01*
X414358Y574858D01*
X414435Y574754D01*
X414509Y574647D01*
X414580Y574538D01*
X414648Y574427D01*
X414712Y574315D01*
X414773Y574200D01*
X414831Y574084D01*
X414885Y573965D01*
X414936Y573846D01*
X414983Y573725D01*
X415026Y573602D01*
X415066Y573479D01*
X415102Y573354D01*
X415134Y573228D01*
X415163Y573102D01*
X415188Y572974D01*
X415209Y572846D01*
X415226Y572717D01*
X415240Y572588D01*
X415249Y572459D01*
X415255Y572329D01*
X415257Y572199D01*
X410875Y576580D02*
X410728Y576578D01*
X410580Y576572D01*
X410433Y576563D01*
X410286Y576549D01*
X410140Y576532D01*
X409994Y576511D01*
X409848Y576486D01*
X409704Y576457D01*
X409560Y576424D01*
X409417Y576388D01*
X409275Y576348D01*
X409134Y576304D01*
X408995Y576257D01*
X408856Y576206D01*
X408719Y576151D01*
X408584Y576093D01*
X408450Y576031D01*
X408318Y575966D01*
X408187Y575897D01*
X408059Y575825D01*
X407932Y575749D01*
X407807Y575671D01*
X407685Y575589D01*
X407564Y575503D01*
X407446Y575415D01*
X407330Y575324D01*
X407217Y575229D01*
X407106Y575132D01*
X406998Y575032D01*
X406892Y574929D01*
X406789Y574823D01*
X406689Y574715D01*
X406592Y574604D01*
X406498Y574490D01*
X406407Y574375D01*
X406319Y574256D01*
X406234Y574136D01*
X406152Y574013D01*
X406073Y573888D01*
X405998Y573762D01*
X405926Y573633D01*
X405857Y573502D01*
X405792Y573370D01*
X405731Y573236D01*
X405673Y573100D01*
X405618Y572963D01*
X405567Y572825D01*
X405520Y572685D01*
X413797Y568791D02*
X413894Y568887D01*
X413988Y568985D01*
X414080Y569085D01*
X414168Y569189D01*
X414254Y569294D01*
X414336Y569403D01*
X414415Y569513D01*
X414491Y569626D01*
X414564Y569741D01*
X414634Y569858D01*
X414700Y569977D01*
X414762Y570098D01*
X414821Y570221D01*
X414877Y570345D01*
X414928Y570471D01*
X414976Y570598D01*
X415021Y570727D01*
X415062Y570857D01*
X415098Y570988D01*
X415132Y571120D01*
X415161Y571253D01*
X415186Y571386D01*
X415208Y571521D01*
X415226Y571656D01*
X415239Y571791D01*
X415249Y571927D01*
X415255Y572063D01*
X415257Y572199D01*
X413796Y568791D02*
X405520Y559054D01*
X415257Y559054D01*
X431116Y567817D02*
X431121Y568218D01*
X431135Y568619D01*
X431159Y569019D01*
X431193Y569419D01*
X431236Y569817D01*
X431289Y570215D01*
X431352Y570611D01*
X431424Y571006D01*
X431505Y571398D01*
X431596Y571789D01*
X431696Y572177D01*
X431806Y572563D01*
X431925Y572946D01*
X432052Y573326D01*
X432190Y573703D01*
X432336Y574077D01*
X432491Y574447D01*
X432655Y574813D01*
X432827Y575175D01*
X433008Y575532D01*
X433198Y575886D01*
X433397Y576234D01*
X433603Y576578D01*
X433818Y576917D01*
X434041Y577250D01*
X434272Y577578D01*
X434510Y577900D01*
X434757Y578217D01*
X435011Y578527D01*
X431116Y567817D02*
X431121Y567416D01*
X431135Y567015D01*
X431159Y566615D01*
X431193Y566215D01*
X431236Y565817D01*
X431289Y565419D01*
X431352Y565023D01*
X431424Y564628D01*
X431505Y564236D01*
X431596Y563845D01*
X431696Y563457D01*
X431806Y563071D01*
X431925Y562688D01*
X432052Y562308D01*
X432190Y561931D01*
X432336Y561557D01*
X432491Y561187D01*
X432655Y560821D01*
X432827Y560459D01*
X433008Y560102D01*
X433198Y559748D01*
X433397Y559400D01*
X433603Y559056D01*
X433818Y558717D01*
X434041Y558384D01*
X434272Y558056D01*
X434510Y557734D01*
X434757Y557417D01*
X435011Y557107D01*
X442097Y559054D02*
X442097Y576580D01*
X447939Y566843D01*
X453781Y576580D01*
X453781Y559054D01*
X462848Y559054D02*
X462848Y576580D01*
X460901Y559054D02*
X464796Y559054D01*
X464796Y576580D02*
X460901Y576580D01*
X474997Y576580D02*
X474997Y559054D01*
X470129Y576580D02*
X479865Y576580D01*
X495007Y576580D02*
X495007Y559054D01*
X502796Y559054D01*
X508682Y559054D02*
X508682Y570738D01*
X508195Y575606D02*
X508195Y576580D01*
X509169Y576580D01*
X509169Y575606D01*
X508195Y575606D01*
X518217Y559054D02*
X522112Y559054D01*
X518217Y559054D02*
X518110Y559056D01*
X518004Y559062D01*
X517898Y559072D01*
X517792Y559085D01*
X517686Y559103D01*
X517582Y559124D01*
X517478Y559149D01*
X517375Y559178D01*
X517274Y559210D01*
X517174Y559247D01*
X517075Y559287D01*
X516977Y559330D01*
X516881Y559377D01*
X516787Y559428D01*
X516695Y559482D01*
X516605Y559539D01*
X516517Y559599D01*
X516432Y559663D01*
X516349Y559730D01*
X516268Y559800D01*
X516190Y559872D01*
X516114Y559948D01*
X516042Y560026D01*
X515972Y560107D01*
X515905Y560190D01*
X515841Y560275D01*
X515781Y560363D01*
X515724Y560453D01*
X515670Y560545D01*
X515619Y560639D01*
X515572Y560735D01*
X515529Y560833D01*
X515489Y560932D01*
X515452Y561032D01*
X515420Y561133D01*
X515391Y561236D01*
X515366Y561340D01*
X515345Y561444D01*
X515327Y561550D01*
X515314Y561656D01*
X515304Y561762D01*
X515298Y561868D01*
X515296Y561975D01*
X515296Y567817D01*
X515298Y567924D01*
X515304Y568030D01*
X515314Y568136D01*
X515327Y568242D01*
X515345Y568348D01*
X515366Y568452D01*
X515391Y568556D01*
X515420Y568659D01*
X515452Y568760D01*
X515489Y568860D01*
X515529Y568959D01*
X515572Y569057D01*
X515619Y569153D01*
X515670Y569247D01*
X515724Y569339D01*
X515781Y569429D01*
X515841Y569517D01*
X515905Y569602D01*
X515972Y569685D01*
X516042Y569766D01*
X516114Y569844D01*
X516190Y569920D01*
X516268Y569992D01*
X516349Y570062D01*
X516432Y570129D01*
X516517Y570193D01*
X516605Y570253D01*
X516695Y570310D01*
X516787Y570364D01*
X516881Y570415D01*
X516977Y570462D01*
X517075Y570505D01*
X517174Y570545D01*
X517274Y570582D01*
X517375Y570614D01*
X517478Y570643D01*
X517582Y570668D01*
X517686Y570689D01*
X517792Y570707D01*
X517898Y570720D01*
X518004Y570730D01*
X518110Y570736D01*
X518217Y570738D01*
X522112Y570738D01*
X530901Y559054D02*
X535769Y559054D01*
X530901Y559054D02*
X530794Y559056D01*
X530688Y559062D01*
X530582Y559072D01*
X530476Y559085D01*
X530370Y559103D01*
X530266Y559124D01*
X530162Y559149D01*
X530059Y559178D01*
X529958Y559210D01*
X529858Y559247D01*
X529759Y559287D01*
X529661Y559330D01*
X529565Y559377D01*
X529471Y559428D01*
X529379Y559482D01*
X529289Y559539D01*
X529201Y559599D01*
X529116Y559663D01*
X529033Y559730D01*
X528952Y559800D01*
X528874Y559872D01*
X528798Y559948D01*
X528726Y560026D01*
X528656Y560107D01*
X528589Y560190D01*
X528525Y560275D01*
X528465Y560363D01*
X528408Y560453D01*
X528354Y560545D01*
X528303Y560639D01*
X528256Y560735D01*
X528213Y560833D01*
X528173Y560932D01*
X528136Y561032D01*
X528104Y561133D01*
X528075Y561236D01*
X528050Y561340D01*
X528029Y561444D01*
X528011Y561550D01*
X527998Y561656D01*
X527988Y561762D01*
X527982Y561868D01*
X527980Y561975D01*
X527980Y566843D01*
X527982Y566967D01*
X527988Y567090D01*
X527998Y567213D01*
X528011Y567336D01*
X528029Y567458D01*
X528050Y567580D01*
X528076Y567701D01*
X528105Y567821D01*
X528138Y567940D01*
X528174Y568058D01*
X528215Y568175D01*
X528259Y568291D01*
X528307Y568405D01*
X528358Y568517D01*
X528413Y568628D01*
X528471Y568737D01*
X528533Y568844D01*
X528598Y568949D01*
X528667Y569052D01*
X528738Y569152D01*
X528813Y569251D01*
X528891Y569347D01*
X528972Y569440D01*
X529056Y569531D01*
X529143Y569619D01*
X529232Y569704D01*
X529324Y569787D01*
X529419Y569866D01*
X529516Y569942D01*
X529616Y570016D01*
X529717Y570086D01*
X529821Y570153D01*
X529928Y570216D01*
X530036Y570276D01*
X530145Y570333D01*
X530257Y570386D01*
X530370Y570436D01*
X530485Y570482D01*
X530601Y570524D01*
X530718Y570562D01*
X530837Y570597D01*
X530957Y570628D01*
X531077Y570655D01*
X531199Y570679D01*
X531321Y570698D01*
X531443Y570714D01*
X531566Y570726D01*
X531690Y570734D01*
X531813Y570738D01*
X531937Y570738D01*
X532060Y570734D01*
X532184Y570726D01*
X532307Y570714D01*
X532429Y570698D01*
X532551Y570679D01*
X532673Y570655D01*
X532793Y570628D01*
X532913Y570597D01*
X533032Y570562D01*
X533149Y570524D01*
X533265Y570482D01*
X533380Y570436D01*
X533493Y570386D01*
X533605Y570333D01*
X533714Y570276D01*
X533823Y570216D01*
X533929Y570153D01*
X534033Y570086D01*
X534134Y570016D01*
X534234Y569942D01*
X534331Y569866D01*
X534426Y569787D01*
X534518Y569704D01*
X534607Y569619D01*
X534694Y569531D01*
X534778Y569440D01*
X534859Y569347D01*
X534937Y569251D01*
X535012Y569152D01*
X535083Y569052D01*
X535152Y568949D01*
X535217Y568844D01*
X535279Y568737D01*
X535337Y568628D01*
X535392Y568517D01*
X535443Y568405D01*
X535491Y568291D01*
X535535Y568175D01*
X535576Y568058D01*
X535612Y567940D01*
X535645Y567821D01*
X535674Y567701D01*
X535700Y567580D01*
X535721Y567458D01*
X535739Y567336D01*
X535752Y567213D01*
X535762Y567090D01*
X535768Y566967D01*
X535770Y566843D01*
X535769Y566843D02*
X535769Y564896D01*
X527980Y564896D01*
X542890Y559054D02*
X542890Y570738D01*
X547758Y570738D01*
X547865Y570736D01*
X547971Y570730D01*
X548077Y570720D01*
X548183Y570707D01*
X548289Y570689D01*
X548393Y570668D01*
X548497Y570643D01*
X548600Y570614D01*
X548701Y570582D01*
X548801Y570545D01*
X548900Y570505D01*
X548998Y570462D01*
X549094Y570415D01*
X549188Y570364D01*
X549280Y570310D01*
X549370Y570253D01*
X549458Y570193D01*
X549543Y570129D01*
X549626Y570062D01*
X549707Y569992D01*
X549785Y569920D01*
X549861Y569844D01*
X549933Y569766D01*
X550003Y569685D01*
X550070Y569602D01*
X550134Y569517D01*
X550194Y569429D01*
X550251Y569339D01*
X550305Y569247D01*
X550356Y569153D01*
X550403Y569057D01*
X550446Y568959D01*
X550486Y568860D01*
X550523Y568760D01*
X550555Y568659D01*
X550584Y568556D01*
X550609Y568452D01*
X550630Y568348D01*
X550648Y568242D01*
X550661Y568136D01*
X550671Y568030D01*
X550677Y567924D01*
X550679Y567817D01*
X550679Y559054D01*
X559260Y565870D02*
X564128Y563922D01*
X559259Y565870D02*
X559167Y565909D01*
X559076Y565951D01*
X558988Y565997D01*
X558901Y566047D01*
X558816Y566100D01*
X558733Y566157D01*
X558653Y566216D01*
X558575Y566279D01*
X558499Y566345D01*
X558427Y566414D01*
X558357Y566485D01*
X558290Y566559D01*
X558225Y566636D01*
X558165Y566716D01*
X558107Y566798D01*
X558052Y566881D01*
X558001Y566968D01*
X557953Y567056D01*
X557909Y567145D01*
X557869Y567237D01*
X557832Y567330D01*
X557799Y567424D01*
X557769Y567520D01*
X557744Y567617D01*
X557722Y567715D01*
X557704Y567813D01*
X557690Y567912D01*
X557680Y568012D01*
X557674Y568112D01*
X557672Y568212D01*
X557674Y568312D01*
X557680Y568412D01*
X557690Y568512D01*
X557703Y568611D01*
X557721Y568709D01*
X557743Y568807D01*
X557768Y568904D01*
X557797Y569000D01*
X557830Y569094D01*
X557867Y569187D01*
X557907Y569279D01*
X557951Y569369D01*
X557999Y569457D01*
X558050Y569543D01*
X558104Y569627D01*
X558162Y569709D01*
X558223Y569788D01*
X558287Y569865D01*
X558354Y569940D01*
X558424Y570011D01*
X558496Y570080D01*
X558572Y570146D01*
X558649Y570209D01*
X558730Y570269D01*
X558812Y570325D01*
X558897Y570379D01*
X558984Y570429D01*
X559073Y570475D01*
X559163Y570518D01*
X559255Y570557D01*
X559349Y570592D01*
X559444Y570624D01*
X559540Y570652D01*
X559637Y570676D01*
X559735Y570696D01*
X559834Y570713D01*
X559933Y570725D01*
X560033Y570734D01*
X560133Y570738D01*
X560233Y570739D01*
X560499Y570732D01*
X560764Y570718D01*
X561030Y570699D01*
X561294Y570673D01*
X561558Y570640D01*
X561821Y570601D01*
X562083Y570556D01*
X562344Y570505D01*
X562603Y570447D01*
X562862Y570383D01*
X563118Y570313D01*
X563373Y570237D01*
X563626Y570154D01*
X563876Y570066D01*
X564125Y569972D01*
X564371Y569871D01*
X564615Y569765D01*
X564129Y563922D02*
X564221Y563883D01*
X564312Y563841D01*
X564400Y563795D01*
X564487Y563745D01*
X564572Y563692D01*
X564655Y563635D01*
X564735Y563576D01*
X564813Y563513D01*
X564889Y563447D01*
X564961Y563378D01*
X565031Y563307D01*
X565098Y563233D01*
X565162Y563156D01*
X565223Y563076D01*
X565281Y562994D01*
X565336Y562911D01*
X565387Y562824D01*
X565435Y562736D01*
X565479Y562647D01*
X565519Y562555D01*
X565556Y562462D01*
X565589Y562368D01*
X565619Y562272D01*
X565644Y562175D01*
X565666Y562077D01*
X565684Y561979D01*
X565698Y561880D01*
X565708Y561780D01*
X565714Y561680D01*
X565716Y561580D01*
X565714Y561480D01*
X565708Y561380D01*
X565698Y561280D01*
X565685Y561181D01*
X565667Y561083D01*
X565645Y560985D01*
X565620Y560888D01*
X565591Y560792D01*
X565558Y560698D01*
X565521Y560605D01*
X565481Y560513D01*
X565437Y560423D01*
X565389Y560335D01*
X565338Y560249D01*
X565284Y560165D01*
X565226Y560083D01*
X565165Y560004D01*
X565101Y559927D01*
X565034Y559852D01*
X564964Y559781D01*
X564892Y559712D01*
X564816Y559646D01*
X564739Y559583D01*
X564658Y559523D01*
X564576Y559467D01*
X564491Y559413D01*
X564404Y559363D01*
X564315Y559317D01*
X564225Y559274D01*
X564133Y559235D01*
X564039Y559200D01*
X563944Y559168D01*
X563848Y559140D01*
X563751Y559116D01*
X563653Y559096D01*
X563554Y559079D01*
X563455Y559067D01*
X563355Y559058D01*
X563255Y559054D01*
X563155Y559053D01*
X563154Y559054D02*
X562764Y559064D01*
X562374Y559083D01*
X561984Y559112D01*
X561595Y559150D01*
X561208Y559197D01*
X560821Y559253D01*
X560436Y559318D01*
X560053Y559393D01*
X559671Y559476D01*
X559292Y559569D01*
X558915Y559670D01*
X558540Y559780D01*
X558168Y559899D01*
X557799Y560027D01*
X575078Y559054D02*
X579946Y559054D01*
X575078Y559054D02*
X574971Y559056D01*
X574865Y559062D01*
X574759Y559072D01*
X574653Y559085D01*
X574547Y559103D01*
X574443Y559124D01*
X574339Y559149D01*
X574236Y559178D01*
X574135Y559210D01*
X574035Y559247D01*
X573936Y559287D01*
X573838Y559330D01*
X573742Y559377D01*
X573648Y559428D01*
X573556Y559482D01*
X573466Y559539D01*
X573378Y559599D01*
X573293Y559663D01*
X573210Y559730D01*
X573129Y559800D01*
X573051Y559872D01*
X572975Y559948D01*
X572903Y560026D01*
X572833Y560107D01*
X572766Y560190D01*
X572702Y560275D01*
X572642Y560363D01*
X572585Y560453D01*
X572531Y560545D01*
X572480Y560639D01*
X572433Y560735D01*
X572390Y560833D01*
X572350Y560932D01*
X572313Y561032D01*
X572281Y561133D01*
X572252Y561236D01*
X572227Y561340D01*
X572206Y561444D01*
X572188Y561550D01*
X572175Y561656D01*
X572165Y561762D01*
X572159Y561868D01*
X572157Y561975D01*
X572157Y566843D01*
X572156Y566843D02*
X572158Y566967D01*
X572164Y567090D01*
X572174Y567213D01*
X572187Y567336D01*
X572205Y567458D01*
X572226Y567580D01*
X572252Y567701D01*
X572281Y567821D01*
X572314Y567940D01*
X572350Y568058D01*
X572391Y568175D01*
X572435Y568291D01*
X572483Y568405D01*
X572534Y568517D01*
X572589Y568628D01*
X572647Y568737D01*
X572709Y568844D01*
X572774Y568949D01*
X572843Y569052D01*
X572914Y569152D01*
X572989Y569251D01*
X573067Y569347D01*
X573148Y569440D01*
X573232Y569531D01*
X573319Y569619D01*
X573408Y569704D01*
X573500Y569787D01*
X573595Y569866D01*
X573692Y569942D01*
X573792Y570016D01*
X573893Y570086D01*
X573997Y570153D01*
X574104Y570216D01*
X574212Y570276D01*
X574321Y570333D01*
X574433Y570386D01*
X574546Y570436D01*
X574661Y570482D01*
X574777Y570524D01*
X574894Y570562D01*
X575013Y570597D01*
X575133Y570628D01*
X575253Y570655D01*
X575375Y570679D01*
X575497Y570698D01*
X575619Y570714D01*
X575742Y570726D01*
X575866Y570734D01*
X575989Y570738D01*
X576113Y570738D01*
X576236Y570734D01*
X576360Y570726D01*
X576483Y570714D01*
X576605Y570698D01*
X576727Y570679D01*
X576849Y570655D01*
X576969Y570628D01*
X577089Y570597D01*
X577208Y570562D01*
X577325Y570524D01*
X577441Y570482D01*
X577556Y570436D01*
X577669Y570386D01*
X577781Y570333D01*
X577890Y570276D01*
X577999Y570216D01*
X578105Y570153D01*
X578209Y570086D01*
X578310Y570016D01*
X578410Y569942D01*
X578507Y569866D01*
X578602Y569787D01*
X578694Y569704D01*
X578783Y569619D01*
X578870Y569531D01*
X578954Y569440D01*
X579035Y569347D01*
X579113Y569251D01*
X579188Y569152D01*
X579259Y569052D01*
X579328Y568949D01*
X579393Y568844D01*
X579455Y568737D01*
X579513Y568628D01*
X579568Y568517D01*
X579619Y568405D01*
X579667Y568291D01*
X579711Y568175D01*
X579752Y568058D01*
X579788Y567940D01*
X579821Y567821D01*
X579850Y567701D01*
X579876Y567580D01*
X579897Y567458D01*
X579915Y567336D01*
X579928Y567213D01*
X579938Y567090D01*
X579944Y566967D01*
X579946Y566843D01*
X579946Y564896D01*
X572157Y564896D01*
X586218Y557107D02*
X586472Y557417D01*
X586719Y557734D01*
X586957Y558056D01*
X587188Y558384D01*
X587411Y558717D01*
X587626Y559056D01*
X587832Y559400D01*
X588031Y559748D01*
X588221Y560102D01*
X588402Y560459D01*
X588574Y560821D01*
X588738Y561187D01*
X588893Y561557D01*
X589039Y561931D01*
X589177Y562308D01*
X589304Y562688D01*
X589423Y563071D01*
X589533Y563457D01*
X589633Y563845D01*
X589724Y564236D01*
X589805Y564628D01*
X589877Y565023D01*
X589940Y565419D01*
X589993Y565817D01*
X590036Y566215D01*
X590070Y566615D01*
X590094Y567015D01*
X590108Y567416D01*
X590113Y567817D01*
X590108Y568218D01*
X590094Y568619D01*
X590070Y569019D01*
X590036Y569419D01*
X589993Y569817D01*
X589940Y570215D01*
X589877Y570611D01*
X589805Y571006D01*
X589724Y571398D01*
X589633Y571789D01*
X589533Y572177D01*
X589423Y572563D01*
X589304Y572946D01*
X589177Y573326D01*
X589039Y573703D01*
X588893Y574077D01*
X588738Y574447D01*
X588574Y574813D01*
X588402Y575175D01*
X588221Y575532D01*
X588031Y575886D01*
X587832Y576234D01*
X587626Y576578D01*
X587411Y576917D01*
X587188Y577250D01*
X586957Y577578D01*
X586719Y577900D01*
X586472Y578217D01*
X586218Y578527D01*
X184404Y548005D02*
X178562Y530479D01*
X190246Y530479D02*
X184404Y548005D01*
X180023Y534861D02*
X188786Y534861D01*
X196854Y530479D02*
X196854Y548005D01*
X206590Y548005D02*
X196854Y537295D01*
X200748Y541189D02*
X206590Y530479D01*
X211695Y530479D02*
X217537Y548005D01*
X223379Y530479D01*
X221918Y534861D02*
X213155Y534861D01*
X241834Y530479D02*
X241834Y548005D01*
X236966Y548005D02*
X246702Y548005D01*
X252849Y548005D02*
X252849Y530479D01*
X252849Y542163D02*
X257717Y542163D01*
X257824Y542161D01*
X257930Y542155D01*
X258036Y542145D01*
X258142Y542132D01*
X258248Y542114D01*
X258352Y542093D01*
X258456Y542068D01*
X258559Y542039D01*
X258660Y542007D01*
X258760Y541970D01*
X258859Y541930D01*
X258957Y541887D01*
X259053Y541840D01*
X259147Y541789D01*
X259239Y541735D01*
X259329Y541678D01*
X259417Y541618D01*
X259502Y541554D01*
X259585Y541487D01*
X259666Y541417D01*
X259744Y541345D01*
X259820Y541269D01*
X259892Y541191D01*
X259962Y541110D01*
X260029Y541027D01*
X260093Y540942D01*
X260153Y540854D01*
X260210Y540764D01*
X260264Y540672D01*
X260315Y540578D01*
X260362Y540482D01*
X260405Y540384D01*
X260445Y540285D01*
X260482Y540185D01*
X260514Y540084D01*
X260543Y539981D01*
X260568Y539877D01*
X260589Y539773D01*
X260607Y539667D01*
X260620Y539561D01*
X260630Y539455D01*
X260636Y539349D01*
X260638Y539242D01*
X260638Y530479D01*
X270680Y530479D02*
X275548Y530479D01*
X270680Y530479D02*
X270573Y530481D01*
X270467Y530487D01*
X270361Y530497D01*
X270255Y530510D01*
X270149Y530528D01*
X270045Y530549D01*
X269941Y530574D01*
X269838Y530603D01*
X269737Y530635D01*
X269637Y530672D01*
X269538Y530712D01*
X269440Y530755D01*
X269344Y530802D01*
X269250Y530853D01*
X269158Y530907D01*
X269068Y530964D01*
X268980Y531024D01*
X268895Y531088D01*
X268812Y531155D01*
X268731Y531225D01*
X268653Y531297D01*
X268577Y531373D01*
X268505Y531451D01*
X268435Y531532D01*
X268368Y531615D01*
X268304Y531700D01*
X268244Y531788D01*
X268187Y531878D01*
X268133Y531970D01*
X268082Y532064D01*
X268035Y532160D01*
X267992Y532258D01*
X267952Y532357D01*
X267915Y532457D01*
X267883Y532558D01*
X267854Y532661D01*
X267829Y532765D01*
X267808Y532869D01*
X267790Y532975D01*
X267777Y533081D01*
X267767Y533187D01*
X267761Y533293D01*
X267759Y533400D01*
X267759Y538268D01*
X267758Y538268D02*
X267760Y538392D01*
X267766Y538515D01*
X267776Y538638D01*
X267789Y538761D01*
X267807Y538883D01*
X267828Y539005D01*
X267854Y539126D01*
X267883Y539246D01*
X267916Y539365D01*
X267952Y539483D01*
X267993Y539600D01*
X268037Y539716D01*
X268085Y539830D01*
X268136Y539942D01*
X268191Y540053D01*
X268249Y540162D01*
X268311Y540269D01*
X268376Y540374D01*
X268445Y540477D01*
X268516Y540577D01*
X268591Y540676D01*
X268669Y540772D01*
X268750Y540865D01*
X268834Y540956D01*
X268921Y541044D01*
X269010Y541129D01*
X269102Y541212D01*
X269197Y541291D01*
X269294Y541367D01*
X269394Y541441D01*
X269495Y541511D01*
X269599Y541578D01*
X269706Y541641D01*
X269814Y541701D01*
X269923Y541758D01*
X270035Y541811D01*
X270148Y541861D01*
X270263Y541907D01*
X270379Y541949D01*
X270496Y541987D01*
X270615Y542022D01*
X270735Y542053D01*
X270855Y542080D01*
X270977Y542104D01*
X271099Y542123D01*
X271221Y542139D01*
X271344Y542151D01*
X271468Y542159D01*
X271591Y542163D01*
X271715Y542163D01*
X271838Y542159D01*
X271962Y542151D01*
X272085Y542139D01*
X272207Y542123D01*
X272329Y542104D01*
X272451Y542080D01*
X272571Y542053D01*
X272691Y542022D01*
X272810Y541987D01*
X272927Y541949D01*
X273043Y541907D01*
X273158Y541861D01*
X273271Y541811D01*
X273383Y541758D01*
X273492Y541701D01*
X273601Y541641D01*
X273707Y541578D01*
X273811Y541511D01*
X273912Y541441D01*
X274012Y541367D01*
X274109Y541291D01*
X274204Y541212D01*
X274296Y541129D01*
X274385Y541044D01*
X274472Y540956D01*
X274556Y540865D01*
X274637Y540772D01*
X274715Y540676D01*
X274790Y540577D01*
X274861Y540477D01*
X274930Y540374D01*
X274995Y540269D01*
X275057Y540162D01*
X275115Y540053D01*
X275170Y539942D01*
X275221Y539830D01*
X275269Y539716D01*
X275313Y539600D01*
X275354Y539483D01*
X275390Y539365D01*
X275423Y539246D01*
X275452Y539126D01*
X275478Y539005D01*
X275499Y538883D01*
X275517Y538761D01*
X275530Y538638D01*
X275540Y538515D01*
X275546Y538392D01*
X275548Y538268D01*
X275548Y536321D01*
X267759Y536321D01*
X291634Y530479D02*
X291634Y548005D01*
X296503Y548005D01*
X296640Y548003D01*
X296776Y547997D01*
X296912Y547988D01*
X297048Y547974D01*
X297183Y547957D01*
X297318Y547936D01*
X297453Y547911D01*
X297586Y547883D01*
X297719Y547851D01*
X297851Y547815D01*
X297981Y547775D01*
X298111Y547732D01*
X298239Y547685D01*
X298366Y547634D01*
X298491Y547580D01*
X298615Y547523D01*
X298737Y547462D01*
X298858Y547398D01*
X298976Y547330D01*
X299093Y547259D01*
X299208Y547185D01*
X299320Y547107D01*
X299430Y547027D01*
X299538Y546943D01*
X299644Y546856D01*
X299747Y546767D01*
X299847Y546674D01*
X299945Y546579D01*
X300040Y546481D01*
X300133Y546381D01*
X300222Y546278D01*
X300309Y546172D01*
X300393Y546064D01*
X300473Y545954D01*
X300551Y545842D01*
X300625Y545727D01*
X300696Y545610D01*
X300764Y545492D01*
X300828Y545371D01*
X300889Y545249D01*
X300946Y545125D01*
X301000Y545000D01*
X301051Y544873D01*
X301098Y544745D01*
X301141Y544615D01*
X301181Y544485D01*
X301217Y544353D01*
X301249Y544220D01*
X301277Y544087D01*
X301302Y543952D01*
X301323Y543817D01*
X301340Y543682D01*
X301354Y543546D01*
X301363Y543410D01*
X301369Y543274D01*
X301371Y543137D01*
X301371Y535347D01*
X301369Y535210D01*
X301363Y535074D01*
X301354Y534938D01*
X301340Y534802D01*
X301323Y534667D01*
X301302Y534532D01*
X301277Y534397D01*
X301249Y534264D01*
X301217Y534131D01*
X301181Y533999D01*
X301141Y533869D01*
X301098Y533739D01*
X301051Y533611D01*
X301000Y533484D01*
X300946Y533359D01*
X300889Y533235D01*
X300828Y533113D01*
X300764Y532992D01*
X300696Y532874D01*
X300625Y532757D01*
X300551Y532642D01*
X300473Y532530D01*
X300393Y532420D01*
X300309Y532312D01*
X300222Y532206D01*
X300133Y532103D01*
X300040Y532003D01*
X299945Y531905D01*
X299847Y531810D01*
X299747Y531717D01*
X299644Y531628D01*
X299538Y531541D01*
X299430Y531457D01*
X299320Y531377D01*
X299208Y531299D01*
X299093Y531225D01*
X298976Y531154D01*
X298858Y531086D01*
X298737Y531022D01*
X298615Y530961D01*
X298491Y530904D01*
X298366Y530850D01*
X298239Y530799D01*
X298111Y530752D01*
X297981Y530709D01*
X297851Y530669D01*
X297719Y530633D01*
X297586Y530601D01*
X297453Y530573D01*
X297318Y530548D01*
X297183Y530527D01*
X297048Y530510D01*
X296912Y530496D01*
X296776Y530487D01*
X296640Y530481D01*
X296503Y530479D01*
X291634Y530479D01*
X311543Y530479D02*
X316411Y530479D01*
X311543Y530479D02*
X311436Y530481D01*
X311330Y530487D01*
X311224Y530497D01*
X311118Y530510D01*
X311012Y530528D01*
X310908Y530549D01*
X310804Y530574D01*
X310701Y530603D01*
X310600Y530635D01*
X310500Y530672D01*
X310401Y530712D01*
X310303Y530755D01*
X310207Y530802D01*
X310113Y530853D01*
X310021Y530907D01*
X309931Y530964D01*
X309843Y531024D01*
X309758Y531088D01*
X309675Y531155D01*
X309594Y531225D01*
X309516Y531297D01*
X309440Y531373D01*
X309368Y531451D01*
X309298Y531532D01*
X309231Y531615D01*
X309167Y531700D01*
X309107Y531788D01*
X309050Y531878D01*
X308996Y531970D01*
X308945Y532064D01*
X308898Y532160D01*
X308855Y532258D01*
X308815Y532357D01*
X308778Y532457D01*
X308746Y532558D01*
X308717Y532661D01*
X308692Y532765D01*
X308671Y532869D01*
X308653Y532975D01*
X308640Y533081D01*
X308630Y533187D01*
X308624Y533293D01*
X308622Y533400D01*
X308622Y538268D01*
X308624Y538392D01*
X308630Y538515D01*
X308640Y538638D01*
X308653Y538761D01*
X308671Y538883D01*
X308692Y539005D01*
X308718Y539126D01*
X308747Y539246D01*
X308780Y539365D01*
X308816Y539483D01*
X308857Y539600D01*
X308901Y539716D01*
X308949Y539830D01*
X309000Y539942D01*
X309055Y540053D01*
X309113Y540162D01*
X309175Y540269D01*
X309240Y540374D01*
X309309Y540477D01*
X309380Y540577D01*
X309455Y540676D01*
X309533Y540772D01*
X309614Y540865D01*
X309698Y540956D01*
X309785Y541044D01*
X309874Y541129D01*
X309966Y541212D01*
X310061Y541291D01*
X310158Y541367D01*
X310258Y541441D01*
X310359Y541511D01*
X310463Y541578D01*
X310570Y541641D01*
X310678Y541701D01*
X310787Y541758D01*
X310899Y541811D01*
X311012Y541861D01*
X311127Y541907D01*
X311243Y541949D01*
X311360Y541987D01*
X311479Y542022D01*
X311599Y542053D01*
X311719Y542080D01*
X311841Y542104D01*
X311963Y542123D01*
X312085Y542139D01*
X312208Y542151D01*
X312332Y542159D01*
X312455Y542163D01*
X312579Y542163D01*
X312702Y542159D01*
X312826Y542151D01*
X312949Y542139D01*
X313071Y542123D01*
X313193Y542104D01*
X313315Y542080D01*
X313435Y542053D01*
X313555Y542022D01*
X313674Y541987D01*
X313791Y541949D01*
X313907Y541907D01*
X314022Y541861D01*
X314135Y541811D01*
X314247Y541758D01*
X314356Y541701D01*
X314465Y541641D01*
X314571Y541578D01*
X314675Y541511D01*
X314776Y541441D01*
X314876Y541367D01*
X314973Y541291D01*
X315068Y541212D01*
X315160Y541129D01*
X315249Y541044D01*
X315336Y540956D01*
X315420Y540865D01*
X315501Y540772D01*
X315579Y540676D01*
X315654Y540577D01*
X315725Y540477D01*
X315794Y540374D01*
X315859Y540269D01*
X315921Y540162D01*
X315979Y540053D01*
X316034Y539942D01*
X316085Y539830D01*
X316133Y539716D01*
X316177Y539600D01*
X316218Y539483D01*
X316254Y539365D01*
X316287Y539246D01*
X316316Y539126D01*
X316342Y539005D01*
X316363Y538883D01*
X316381Y538761D01*
X316394Y538638D01*
X316404Y538515D01*
X316410Y538392D01*
X316412Y538268D01*
X316411Y538268D02*
X316411Y536321D01*
X308622Y536321D01*
X323265Y533400D02*
X323265Y548005D01*
X323265Y533400D02*
X323267Y533293D01*
X323273Y533187D01*
X323283Y533081D01*
X323296Y532975D01*
X323314Y532869D01*
X323335Y532765D01*
X323360Y532661D01*
X323389Y532558D01*
X323421Y532457D01*
X323458Y532357D01*
X323498Y532258D01*
X323541Y532160D01*
X323588Y532064D01*
X323639Y531970D01*
X323693Y531878D01*
X323750Y531788D01*
X323810Y531700D01*
X323874Y531615D01*
X323941Y531532D01*
X324011Y531451D01*
X324083Y531373D01*
X324159Y531297D01*
X324237Y531225D01*
X324318Y531155D01*
X324401Y531088D01*
X324486Y531024D01*
X324574Y530964D01*
X324664Y530907D01*
X324756Y530853D01*
X324850Y530802D01*
X324946Y530755D01*
X325044Y530712D01*
X325143Y530672D01*
X325243Y530635D01*
X325344Y530603D01*
X325447Y530574D01*
X325551Y530549D01*
X325655Y530528D01*
X325761Y530510D01*
X325867Y530497D01*
X325973Y530487D01*
X326079Y530481D01*
X326186Y530479D01*
X331815Y534374D02*
X331815Y538268D01*
X331817Y538392D01*
X331823Y538515D01*
X331833Y538638D01*
X331846Y538761D01*
X331864Y538883D01*
X331885Y539005D01*
X331911Y539126D01*
X331940Y539246D01*
X331973Y539365D01*
X332009Y539483D01*
X332050Y539600D01*
X332094Y539716D01*
X332142Y539830D01*
X332193Y539942D01*
X332248Y540053D01*
X332306Y540162D01*
X332368Y540269D01*
X332433Y540374D01*
X332502Y540477D01*
X332573Y540577D01*
X332648Y540676D01*
X332726Y540772D01*
X332807Y540865D01*
X332891Y540956D01*
X332978Y541044D01*
X333067Y541129D01*
X333159Y541212D01*
X333254Y541291D01*
X333351Y541367D01*
X333451Y541441D01*
X333552Y541511D01*
X333656Y541578D01*
X333763Y541641D01*
X333871Y541701D01*
X333980Y541758D01*
X334092Y541811D01*
X334205Y541861D01*
X334320Y541907D01*
X334436Y541949D01*
X334553Y541987D01*
X334672Y542022D01*
X334792Y542053D01*
X334912Y542080D01*
X335034Y542104D01*
X335156Y542123D01*
X335278Y542139D01*
X335401Y542151D01*
X335525Y542159D01*
X335648Y542163D01*
X335772Y542163D01*
X335895Y542159D01*
X336019Y542151D01*
X336142Y542139D01*
X336264Y542123D01*
X336386Y542104D01*
X336508Y542080D01*
X336628Y542053D01*
X336748Y542022D01*
X336867Y541987D01*
X336984Y541949D01*
X337100Y541907D01*
X337215Y541861D01*
X337328Y541811D01*
X337440Y541758D01*
X337549Y541701D01*
X337658Y541641D01*
X337764Y541578D01*
X337868Y541511D01*
X337969Y541441D01*
X338069Y541367D01*
X338166Y541291D01*
X338261Y541212D01*
X338353Y541129D01*
X338442Y541044D01*
X338529Y540956D01*
X338613Y540865D01*
X338694Y540772D01*
X338772Y540676D01*
X338847Y540577D01*
X338918Y540477D01*
X338987Y540374D01*
X339052Y540269D01*
X339114Y540162D01*
X339172Y540053D01*
X339227Y539942D01*
X339278Y539830D01*
X339326Y539716D01*
X339370Y539600D01*
X339411Y539483D01*
X339447Y539365D01*
X339480Y539246D01*
X339509Y539126D01*
X339535Y539005D01*
X339556Y538883D01*
X339574Y538761D01*
X339587Y538638D01*
X339597Y538515D01*
X339603Y538392D01*
X339605Y538268D01*
X339604Y538268D02*
X339604Y534374D01*
X339605Y534374D02*
X339603Y534250D01*
X339597Y534127D01*
X339587Y534004D01*
X339574Y533881D01*
X339556Y533759D01*
X339535Y533637D01*
X339509Y533516D01*
X339480Y533396D01*
X339447Y533277D01*
X339411Y533159D01*
X339370Y533042D01*
X339326Y532926D01*
X339278Y532812D01*
X339227Y532700D01*
X339172Y532589D01*
X339114Y532480D01*
X339052Y532373D01*
X338987Y532268D01*
X338918Y532165D01*
X338847Y532065D01*
X338772Y531966D01*
X338694Y531870D01*
X338613Y531777D01*
X338529Y531686D01*
X338442Y531598D01*
X338353Y531513D01*
X338261Y531430D01*
X338166Y531351D01*
X338069Y531275D01*
X337969Y531201D01*
X337868Y531131D01*
X337764Y531064D01*
X337658Y531001D01*
X337549Y530941D01*
X337440Y530884D01*
X337328Y530831D01*
X337215Y530781D01*
X337100Y530735D01*
X336984Y530693D01*
X336867Y530655D01*
X336748Y530620D01*
X336628Y530589D01*
X336508Y530562D01*
X336386Y530538D01*
X336264Y530519D01*
X336142Y530503D01*
X336019Y530491D01*
X335895Y530483D01*
X335772Y530479D01*
X335648Y530479D01*
X335525Y530483D01*
X335401Y530491D01*
X335278Y530503D01*
X335156Y530519D01*
X335034Y530538D01*
X334912Y530562D01*
X334792Y530589D01*
X334672Y530620D01*
X334553Y530655D01*
X334436Y530693D01*
X334320Y530735D01*
X334205Y530781D01*
X334092Y530831D01*
X333980Y530884D01*
X333871Y530941D01*
X333763Y531001D01*
X333656Y531064D01*
X333552Y531131D01*
X333451Y531201D01*
X333351Y531275D01*
X333254Y531351D01*
X333159Y531430D01*
X333067Y531513D01*
X332978Y531598D01*
X332891Y531686D01*
X332807Y531777D01*
X332726Y531870D01*
X332648Y531966D01*
X332573Y532065D01*
X332502Y532165D01*
X332433Y532268D01*
X332368Y532373D01*
X332306Y532480D01*
X332248Y532589D01*
X332193Y532700D01*
X332142Y532812D01*
X332094Y532926D01*
X332050Y533042D01*
X332009Y533159D01*
X331973Y533277D01*
X331940Y533396D01*
X331911Y533516D01*
X331885Y533637D01*
X331864Y533759D01*
X331846Y533881D01*
X331833Y534004D01*
X331823Y534127D01*
X331817Y534250D01*
X331815Y534374D01*
X346794Y530479D02*
X346794Y548005D01*
X346794Y530479D02*
X351662Y530479D01*
X351769Y530481D01*
X351875Y530487D01*
X351981Y530497D01*
X352087Y530510D01*
X352193Y530528D01*
X352297Y530549D01*
X352401Y530574D01*
X352504Y530603D01*
X352605Y530635D01*
X352705Y530672D01*
X352804Y530712D01*
X352902Y530755D01*
X352998Y530802D01*
X353092Y530853D01*
X353184Y530907D01*
X353274Y530964D01*
X353362Y531024D01*
X353447Y531088D01*
X353530Y531155D01*
X353611Y531225D01*
X353689Y531297D01*
X353765Y531373D01*
X353837Y531451D01*
X353907Y531532D01*
X353974Y531615D01*
X354038Y531700D01*
X354098Y531788D01*
X354155Y531878D01*
X354209Y531970D01*
X354260Y532064D01*
X354307Y532160D01*
X354350Y532258D01*
X354390Y532357D01*
X354427Y532457D01*
X354459Y532558D01*
X354488Y532661D01*
X354513Y532765D01*
X354534Y532869D01*
X354552Y532975D01*
X354565Y533081D01*
X354575Y533187D01*
X354581Y533293D01*
X354583Y533400D01*
X354583Y539242D01*
X354581Y539349D01*
X354575Y539455D01*
X354565Y539561D01*
X354552Y539667D01*
X354534Y539773D01*
X354513Y539877D01*
X354488Y539981D01*
X354459Y540084D01*
X354427Y540185D01*
X354390Y540285D01*
X354350Y540384D01*
X354307Y540482D01*
X354260Y540578D01*
X354209Y540672D01*
X354155Y540764D01*
X354098Y540854D01*
X354038Y540942D01*
X353974Y541027D01*
X353907Y541110D01*
X353837Y541191D01*
X353765Y541269D01*
X353689Y541345D01*
X353611Y541417D01*
X353530Y541487D01*
X353447Y541554D01*
X353362Y541618D01*
X353274Y541678D01*
X353184Y541735D01*
X353092Y541789D01*
X352998Y541840D01*
X352902Y541887D01*
X352804Y541930D01*
X352705Y541970D01*
X352605Y542007D01*
X352504Y542039D01*
X352401Y542068D01*
X352297Y542093D01*
X352193Y542114D01*
X352087Y542132D01*
X351981Y542145D01*
X351875Y542155D01*
X351769Y542161D01*
X351662Y542163D01*
X346794Y542163D01*
X361082Y538268D02*
X361082Y534374D01*
X361082Y538268D02*
X361084Y538392D01*
X361090Y538515D01*
X361100Y538638D01*
X361113Y538761D01*
X361131Y538883D01*
X361152Y539005D01*
X361178Y539126D01*
X361207Y539246D01*
X361240Y539365D01*
X361276Y539483D01*
X361317Y539600D01*
X361361Y539716D01*
X361409Y539830D01*
X361460Y539942D01*
X361515Y540053D01*
X361573Y540162D01*
X361635Y540269D01*
X361700Y540374D01*
X361769Y540477D01*
X361840Y540577D01*
X361915Y540676D01*
X361993Y540772D01*
X362074Y540865D01*
X362158Y540956D01*
X362245Y541044D01*
X362334Y541129D01*
X362426Y541212D01*
X362521Y541291D01*
X362618Y541367D01*
X362718Y541441D01*
X362819Y541511D01*
X362923Y541578D01*
X363030Y541641D01*
X363138Y541701D01*
X363247Y541758D01*
X363359Y541811D01*
X363472Y541861D01*
X363587Y541907D01*
X363703Y541949D01*
X363820Y541987D01*
X363939Y542022D01*
X364059Y542053D01*
X364179Y542080D01*
X364301Y542104D01*
X364423Y542123D01*
X364545Y542139D01*
X364668Y542151D01*
X364792Y542159D01*
X364915Y542163D01*
X365039Y542163D01*
X365162Y542159D01*
X365286Y542151D01*
X365409Y542139D01*
X365531Y542123D01*
X365653Y542104D01*
X365775Y542080D01*
X365895Y542053D01*
X366015Y542022D01*
X366134Y541987D01*
X366251Y541949D01*
X366367Y541907D01*
X366482Y541861D01*
X366595Y541811D01*
X366707Y541758D01*
X366816Y541701D01*
X366925Y541641D01*
X367031Y541578D01*
X367135Y541511D01*
X367236Y541441D01*
X367336Y541367D01*
X367433Y541291D01*
X367528Y541212D01*
X367620Y541129D01*
X367709Y541044D01*
X367796Y540956D01*
X367880Y540865D01*
X367961Y540772D01*
X368039Y540676D01*
X368114Y540577D01*
X368185Y540477D01*
X368254Y540374D01*
X368319Y540269D01*
X368381Y540162D01*
X368439Y540053D01*
X368494Y539942D01*
X368545Y539830D01*
X368593Y539716D01*
X368637Y539600D01*
X368678Y539483D01*
X368714Y539365D01*
X368747Y539246D01*
X368776Y539126D01*
X368802Y539005D01*
X368823Y538883D01*
X368841Y538761D01*
X368854Y538638D01*
X368864Y538515D01*
X368870Y538392D01*
X368872Y538268D01*
X368871Y538268D02*
X368871Y534374D01*
X368872Y534374D02*
X368870Y534250D01*
X368864Y534127D01*
X368854Y534004D01*
X368841Y533881D01*
X368823Y533759D01*
X368802Y533637D01*
X368776Y533516D01*
X368747Y533396D01*
X368714Y533277D01*
X368678Y533159D01*
X368637Y533042D01*
X368593Y532926D01*
X368545Y532812D01*
X368494Y532700D01*
X368439Y532589D01*
X368381Y532480D01*
X368319Y532373D01*
X368254Y532268D01*
X368185Y532165D01*
X368114Y532065D01*
X368039Y531966D01*
X367961Y531870D01*
X367880Y531777D01*
X367796Y531686D01*
X367709Y531598D01*
X367620Y531513D01*
X367528Y531430D01*
X367433Y531351D01*
X367336Y531275D01*
X367236Y531201D01*
X367135Y531131D01*
X367031Y531064D01*
X366925Y531001D01*
X366816Y530941D01*
X366707Y530884D01*
X366595Y530831D01*
X366482Y530781D01*
X366367Y530735D01*
X366251Y530693D01*
X366134Y530655D01*
X366015Y530620D01*
X365895Y530589D01*
X365775Y530562D01*
X365653Y530538D01*
X365531Y530519D01*
X365409Y530503D01*
X365286Y530491D01*
X365162Y530483D01*
X365039Y530479D01*
X364915Y530479D01*
X364792Y530483D01*
X364668Y530491D01*
X364545Y530503D01*
X364423Y530519D01*
X364301Y530538D01*
X364179Y530562D01*
X364059Y530589D01*
X363939Y530620D01*
X363820Y530655D01*
X363703Y530693D01*
X363587Y530735D01*
X363472Y530781D01*
X363359Y530831D01*
X363247Y530884D01*
X363138Y530941D01*
X363030Y531001D01*
X362923Y531064D01*
X362819Y531131D01*
X362718Y531201D01*
X362618Y531275D01*
X362521Y531351D01*
X362426Y531430D01*
X362334Y531513D01*
X362245Y531598D01*
X362158Y531686D01*
X362074Y531777D01*
X361993Y531870D01*
X361915Y531966D01*
X361840Y532065D01*
X361769Y532165D01*
X361700Y532268D01*
X361635Y532373D01*
X361573Y532480D01*
X361515Y532589D01*
X361460Y532700D01*
X361409Y532812D01*
X361361Y532926D01*
X361317Y533042D01*
X361276Y533159D01*
X361240Y533277D01*
X361207Y533396D01*
X361178Y533516D01*
X361152Y533637D01*
X361131Y533759D01*
X361113Y533881D01*
X361100Y534004D01*
X361090Y534127D01*
X361084Y534250D01*
X361082Y534374D01*
X374094Y542163D02*
X379936Y542163D01*
X376041Y548005D02*
X376041Y533400D01*
X376043Y533293D01*
X376049Y533187D01*
X376059Y533081D01*
X376072Y532975D01*
X376090Y532869D01*
X376111Y532765D01*
X376136Y532661D01*
X376165Y532558D01*
X376197Y532457D01*
X376234Y532357D01*
X376274Y532258D01*
X376317Y532160D01*
X376364Y532064D01*
X376415Y531970D01*
X376469Y531878D01*
X376526Y531788D01*
X376586Y531700D01*
X376650Y531615D01*
X376717Y531532D01*
X376787Y531451D01*
X376859Y531373D01*
X376935Y531297D01*
X377013Y531225D01*
X377094Y531155D01*
X377177Y531088D01*
X377262Y531024D01*
X377350Y530964D01*
X377440Y530907D01*
X377532Y530853D01*
X377626Y530802D01*
X377722Y530755D01*
X377820Y530712D01*
X377919Y530672D01*
X378019Y530635D01*
X378120Y530603D01*
X378223Y530574D01*
X378327Y530549D01*
X378431Y530528D01*
X378537Y530510D01*
X378643Y530497D01*
X378749Y530487D01*
X378855Y530481D01*
X378962Y530479D01*
X379936Y530479D01*
X385931Y534374D02*
X385931Y538268D01*
X385933Y538392D01*
X385939Y538515D01*
X385949Y538638D01*
X385962Y538761D01*
X385980Y538883D01*
X386001Y539005D01*
X386027Y539126D01*
X386056Y539246D01*
X386089Y539365D01*
X386125Y539483D01*
X386166Y539600D01*
X386210Y539716D01*
X386258Y539830D01*
X386309Y539942D01*
X386364Y540053D01*
X386422Y540162D01*
X386484Y540269D01*
X386549Y540374D01*
X386618Y540477D01*
X386689Y540577D01*
X386764Y540676D01*
X386842Y540772D01*
X386923Y540865D01*
X387007Y540956D01*
X387094Y541044D01*
X387183Y541129D01*
X387275Y541212D01*
X387370Y541291D01*
X387467Y541367D01*
X387567Y541441D01*
X387668Y541511D01*
X387772Y541578D01*
X387879Y541641D01*
X387987Y541701D01*
X388096Y541758D01*
X388208Y541811D01*
X388321Y541861D01*
X388436Y541907D01*
X388552Y541949D01*
X388669Y541987D01*
X388788Y542022D01*
X388908Y542053D01*
X389028Y542080D01*
X389150Y542104D01*
X389272Y542123D01*
X389394Y542139D01*
X389517Y542151D01*
X389641Y542159D01*
X389764Y542163D01*
X389888Y542163D01*
X390011Y542159D01*
X390135Y542151D01*
X390258Y542139D01*
X390380Y542123D01*
X390502Y542104D01*
X390624Y542080D01*
X390744Y542053D01*
X390864Y542022D01*
X390983Y541987D01*
X391100Y541949D01*
X391216Y541907D01*
X391331Y541861D01*
X391444Y541811D01*
X391556Y541758D01*
X391665Y541701D01*
X391774Y541641D01*
X391880Y541578D01*
X391984Y541511D01*
X392085Y541441D01*
X392185Y541367D01*
X392282Y541291D01*
X392377Y541212D01*
X392469Y541129D01*
X392558Y541044D01*
X392645Y540956D01*
X392729Y540865D01*
X392810Y540772D01*
X392888Y540676D01*
X392963Y540577D01*
X393034Y540477D01*
X393103Y540374D01*
X393168Y540269D01*
X393230Y540162D01*
X393288Y540053D01*
X393343Y539942D01*
X393394Y539830D01*
X393442Y539716D01*
X393486Y539600D01*
X393527Y539483D01*
X393563Y539365D01*
X393596Y539246D01*
X393625Y539126D01*
X393651Y539005D01*
X393672Y538883D01*
X393690Y538761D01*
X393703Y538638D01*
X393713Y538515D01*
X393719Y538392D01*
X393721Y538268D01*
X393721Y534374D01*
X393719Y534250D01*
X393713Y534127D01*
X393703Y534004D01*
X393690Y533881D01*
X393672Y533759D01*
X393651Y533637D01*
X393625Y533516D01*
X393596Y533396D01*
X393563Y533277D01*
X393527Y533159D01*
X393486Y533042D01*
X393442Y532926D01*
X393394Y532812D01*
X393343Y532700D01*
X393288Y532589D01*
X393230Y532480D01*
X393168Y532373D01*
X393103Y532268D01*
X393034Y532165D01*
X392963Y532065D01*
X392888Y531966D01*
X392810Y531870D01*
X392729Y531777D01*
X392645Y531686D01*
X392558Y531598D01*
X392469Y531513D01*
X392377Y531430D01*
X392282Y531351D01*
X392185Y531275D01*
X392085Y531201D01*
X391984Y531131D01*
X391880Y531064D01*
X391774Y531001D01*
X391665Y530941D01*
X391556Y530884D01*
X391444Y530831D01*
X391331Y530781D01*
X391216Y530735D01*
X391100Y530693D01*
X390983Y530655D01*
X390864Y530620D01*
X390744Y530589D01*
X390624Y530562D01*
X390502Y530538D01*
X390380Y530519D01*
X390258Y530503D01*
X390135Y530491D01*
X390011Y530483D01*
X389888Y530479D01*
X389764Y530479D01*
X389641Y530483D01*
X389517Y530491D01*
X389394Y530503D01*
X389272Y530519D01*
X389150Y530538D01*
X389028Y530562D01*
X388908Y530589D01*
X388788Y530620D01*
X388669Y530655D01*
X388552Y530693D01*
X388436Y530735D01*
X388321Y530781D01*
X388208Y530831D01*
X388096Y530884D01*
X387987Y530941D01*
X387879Y531001D01*
X387772Y531064D01*
X387668Y531131D01*
X387567Y531201D01*
X387467Y531275D01*
X387370Y531351D01*
X387275Y531430D01*
X387183Y531513D01*
X387094Y531598D01*
X387007Y531686D01*
X386923Y531777D01*
X386842Y531870D01*
X386764Y531966D01*
X386689Y532065D01*
X386618Y532165D01*
X386549Y532268D01*
X386484Y532373D01*
X386422Y532480D01*
X386364Y532589D01*
X386309Y532700D01*
X386258Y532812D01*
X386210Y532926D01*
X386166Y533042D01*
X386125Y533159D01*
X386089Y533277D01*
X386056Y533396D01*
X386027Y533516D01*
X386001Y533637D01*
X385980Y533759D01*
X385962Y533881D01*
X385949Y534004D01*
X385939Y534127D01*
X385933Y534250D01*
X385931Y534374D01*
X401103Y530479D02*
X401103Y542163D01*
X409866Y542163D01*
X409973Y542161D01*
X410079Y542155D01*
X410185Y542145D01*
X410291Y542132D01*
X410397Y542114D01*
X410501Y542093D01*
X410605Y542068D01*
X410708Y542039D01*
X410809Y542007D01*
X410909Y541970D01*
X411008Y541930D01*
X411106Y541887D01*
X411202Y541840D01*
X411296Y541789D01*
X411388Y541735D01*
X411478Y541678D01*
X411566Y541618D01*
X411651Y541554D01*
X411734Y541487D01*
X411815Y541417D01*
X411893Y541345D01*
X411969Y541269D01*
X412041Y541191D01*
X412111Y541110D01*
X412178Y541027D01*
X412242Y540942D01*
X412302Y540854D01*
X412359Y540764D01*
X412413Y540672D01*
X412464Y540578D01*
X412511Y540482D01*
X412554Y540384D01*
X412594Y540285D01*
X412631Y540185D01*
X412663Y540084D01*
X412692Y539981D01*
X412717Y539877D01*
X412738Y539773D01*
X412756Y539667D01*
X412769Y539561D01*
X412779Y539455D01*
X412785Y539349D01*
X412787Y539242D01*
X412787Y530479D01*
X406945Y530479D02*
X406945Y542163D01*
X420198Y542163D02*
X420198Y530479D01*
X419711Y547031D02*
X419711Y548005D01*
X420684Y548005D01*
X420684Y547031D01*
X419711Y547031D01*
X426243Y542163D02*
X434032Y542163D01*
X426243Y530479D01*
X434032Y530479D01*
X442969Y530479D02*
X447837Y530479D01*
X442969Y530479D02*
X442862Y530481D01*
X442756Y530487D01*
X442650Y530497D01*
X442544Y530510D01*
X442438Y530528D01*
X442334Y530549D01*
X442230Y530574D01*
X442127Y530603D01*
X442026Y530635D01*
X441926Y530672D01*
X441827Y530712D01*
X441729Y530755D01*
X441633Y530802D01*
X441539Y530853D01*
X441447Y530907D01*
X441357Y530964D01*
X441269Y531024D01*
X441184Y531088D01*
X441101Y531155D01*
X441020Y531225D01*
X440942Y531297D01*
X440866Y531373D01*
X440794Y531451D01*
X440724Y531532D01*
X440657Y531615D01*
X440593Y531700D01*
X440533Y531788D01*
X440476Y531878D01*
X440422Y531970D01*
X440371Y532064D01*
X440324Y532160D01*
X440281Y532258D01*
X440241Y532357D01*
X440204Y532457D01*
X440172Y532558D01*
X440143Y532661D01*
X440118Y532765D01*
X440097Y532869D01*
X440079Y532975D01*
X440066Y533081D01*
X440056Y533187D01*
X440050Y533293D01*
X440048Y533400D01*
X440048Y538268D01*
X440050Y538392D01*
X440056Y538515D01*
X440066Y538638D01*
X440079Y538761D01*
X440097Y538883D01*
X440118Y539005D01*
X440144Y539126D01*
X440173Y539246D01*
X440206Y539365D01*
X440242Y539483D01*
X440283Y539600D01*
X440327Y539716D01*
X440375Y539830D01*
X440426Y539942D01*
X440481Y540053D01*
X440539Y540162D01*
X440601Y540269D01*
X440666Y540374D01*
X440735Y540477D01*
X440806Y540577D01*
X440881Y540676D01*
X440959Y540772D01*
X441040Y540865D01*
X441124Y540956D01*
X441211Y541044D01*
X441300Y541129D01*
X441392Y541212D01*
X441487Y541291D01*
X441584Y541367D01*
X441684Y541441D01*
X441785Y541511D01*
X441889Y541578D01*
X441996Y541641D01*
X442104Y541701D01*
X442213Y541758D01*
X442325Y541811D01*
X442438Y541861D01*
X442553Y541907D01*
X442669Y541949D01*
X442786Y541987D01*
X442905Y542022D01*
X443025Y542053D01*
X443145Y542080D01*
X443267Y542104D01*
X443389Y542123D01*
X443511Y542139D01*
X443634Y542151D01*
X443758Y542159D01*
X443881Y542163D01*
X444005Y542163D01*
X444128Y542159D01*
X444252Y542151D01*
X444375Y542139D01*
X444497Y542123D01*
X444619Y542104D01*
X444741Y542080D01*
X444861Y542053D01*
X444981Y542022D01*
X445100Y541987D01*
X445217Y541949D01*
X445333Y541907D01*
X445448Y541861D01*
X445561Y541811D01*
X445673Y541758D01*
X445782Y541701D01*
X445891Y541641D01*
X445997Y541578D01*
X446101Y541511D01*
X446202Y541441D01*
X446302Y541367D01*
X446399Y541291D01*
X446494Y541212D01*
X446586Y541129D01*
X446675Y541044D01*
X446762Y540956D01*
X446846Y540865D01*
X446927Y540772D01*
X447005Y540676D01*
X447080Y540577D01*
X447151Y540477D01*
X447220Y540374D01*
X447285Y540269D01*
X447347Y540162D01*
X447405Y540053D01*
X447460Y539942D01*
X447511Y539830D01*
X447559Y539716D01*
X447603Y539600D01*
X447644Y539483D01*
X447680Y539365D01*
X447713Y539246D01*
X447742Y539126D01*
X447768Y539005D01*
X447789Y538883D01*
X447807Y538761D01*
X447820Y538638D01*
X447830Y538515D01*
X447836Y538392D01*
X447838Y538268D01*
X447837Y538268D02*
X447837Y536321D01*
X440048Y536321D01*
X455039Y530479D02*
X455039Y542163D01*
X460881Y542163D01*
X460881Y540216D01*
X184404Y519430D02*
X178562Y501904D01*
X190246Y501904D02*
X184404Y519430D01*
X180023Y506286D02*
X188786Y506286D01*
X196854Y501904D02*
X196854Y519430D01*
X206590Y519430D02*
X196854Y508720D01*
X200748Y512614D02*
X206590Y501904D01*
X211695Y501904D02*
X217537Y519430D01*
X223379Y501904D01*
X221918Y506286D02*
X213155Y506286D01*
X241834Y501904D02*
X241834Y519430D01*
X236966Y519430D02*
X246702Y519430D01*
X252849Y519430D02*
X252849Y501904D01*
X252849Y513588D02*
X257717Y513588D01*
X257824Y513586D01*
X257930Y513580D01*
X258036Y513570D01*
X258142Y513557D01*
X258248Y513539D01*
X258352Y513518D01*
X258456Y513493D01*
X258559Y513464D01*
X258660Y513432D01*
X258760Y513395D01*
X258859Y513355D01*
X258957Y513312D01*
X259053Y513265D01*
X259147Y513214D01*
X259239Y513160D01*
X259329Y513103D01*
X259417Y513043D01*
X259502Y512979D01*
X259585Y512912D01*
X259666Y512842D01*
X259744Y512770D01*
X259820Y512694D01*
X259892Y512616D01*
X259962Y512535D01*
X260029Y512452D01*
X260093Y512367D01*
X260153Y512279D01*
X260210Y512189D01*
X260264Y512097D01*
X260315Y512003D01*
X260362Y511907D01*
X260405Y511809D01*
X260445Y511710D01*
X260482Y511610D01*
X260514Y511509D01*
X260543Y511406D01*
X260568Y511302D01*
X260589Y511198D01*
X260607Y511092D01*
X260620Y510986D01*
X260630Y510880D01*
X260636Y510774D01*
X260638Y510667D01*
X260638Y501904D01*
X270680Y501904D02*
X275548Y501904D01*
X270680Y501904D02*
X270573Y501906D01*
X270467Y501912D01*
X270361Y501922D01*
X270255Y501935D01*
X270149Y501953D01*
X270045Y501974D01*
X269941Y501999D01*
X269838Y502028D01*
X269737Y502060D01*
X269637Y502097D01*
X269538Y502137D01*
X269440Y502180D01*
X269344Y502227D01*
X269250Y502278D01*
X269158Y502332D01*
X269068Y502389D01*
X268980Y502449D01*
X268895Y502513D01*
X268812Y502580D01*
X268731Y502650D01*
X268653Y502722D01*
X268577Y502798D01*
X268505Y502876D01*
X268435Y502957D01*
X268368Y503040D01*
X268304Y503125D01*
X268244Y503213D01*
X268187Y503303D01*
X268133Y503395D01*
X268082Y503489D01*
X268035Y503585D01*
X267992Y503683D01*
X267952Y503782D01*
X267915Y503882D01*
X267883Y503983D01*
X267854Y504086D01*
X267829Y504190D01*
X267808Y504294D01*
X267790Y504400D01*
X267777Y504506D01*
X267767Y504612D01*
X267761Y504718D01*
X267759Y504825D01*
X267759Y509693D01*
X267758Y509693D02*
X267760Y509817D01*
X267766Y509940D01*
X267776Y510063D01*
X267789Y510186D01*
X267807Y510308D01*
X267828Y510430D01*
X267854Y510551D01*
X267883Y510671D01*
X267916Y510790D01*
X267952Y510908D01*
X267993Y511025D01*
X268037Y511141D01*
X268085Y511255D01*
X268136Y511367D01*
X268191Y511478D01*
X268249Y511587D01*
X268311Y511694D01*
X268376Y511799D01*
X268445Y511902D01*
X268516Y512002D01*
X268591Y512101D01*
X268669Y512197D01*
X268750Y512290D01*
X268834Y512381D01*
X268921Y512469D01*
X269010Y512554D01*
X269102Y512637D01*
X269197Y512716D01*
X269294Y512792D01*
X269394Y512866D01*
X269495Y512936D01*
X269599Y513003D01*
X269706Y513066D01*
X269814Y513126D01*
X269923Y513183D01*
X270035Y513236D01*
X270148Y513286D01*
X270263Y513332D01*
X270379Y513374D01*
X270496Y513412D01*
X270615Y513447D01*
X270735Y513478D01*
X270855Y513505D01*
X270977Y513529D01*
X271099Y513548D01*
X271221Y513564D01*
X271344Y513576D01*
X271468Y513584D01*
X271591Y513588D01*
X271715Y513588D01*
X271838Y513584D01*
X271962Y513576D01*
X272085Y513564D01*
X272207Y513548D01*
X272329Y513529D01*
X272451Y513505D01*
X272571Y513478D01*
X272691Y513447D01*
X272810Y513412D01*
X272927Y513374D01*
X273043Y513332D01*
X273158Y513286D01*
X273271Y513236D01*
X273383Y513183D01*
X273492Y513126D01*
X273601Y513066D01*
X273707Y513003D01*
X273811Y512936D01*
X273912Y512866D01*
X274012Y512792D01*
X274109Y512716D01*
X274204Y512637D01*
X274296Y512554D01*
X274385Y512469D01*
X274472Y512381D01*
X274556Y512290D01*
X274637Y512197D01*
X274715Y512101D01*
X274790Y512002D01*
X274861Y511902D01*
X274930Y511799D01*
X274995Y511694D01*
X275057Y511587D01*
X275115Y511478D01*
X275170Y511367D01*
X275221Y511255D01*
X275269Y511141D01*
X275313Y511025D01*
X275354Y510908D01*
X275390Y510790D01*
X275423Y510671D01*
X275452Y510551D01*
X275478Y510430D01*
X275499Y510308D01*
X275517Y510186D01*
X275530Y510063D01*
X275540Y509940D01*
X275546Y509817D01*
X275548Y509693D01*
X275548Y507746D01*
X267759Y507746D01*
X291834Y511641D02*
X296702Y511641D01*
X296702Y511640D02*
X296840Y511638D01*
X296977Y511632D01*
X297115Y511622D01*
X297252Y511609D01*
X297389Y511591D01*
X297525Y511570D01*
X297660Y511545D01*
X297795Y511516D01*
X297929Y511483D01*
X298061Y511446D01*
X298193Y511406D01*
X298324Y511362D01*
X298453Y511314D01*
X298581Y511263D01*
X298707Y511208D01*
X298832Y511149D01*
X298955Y511087D01*
X299076Y511022D01*
X299195Y510953D01*
X299313Y510881D01*
X299428Y510805D01*
X299541Y510726D01*
X299652Y510645D01*
X299760Y510559D01*
X299866Y510471D01*
X299970Y510380D01*
X300070Y510286D01*
X300168Y510190D01*
X300264Y510090D01*
X300356Y509988D01*
X300446Y509883D01*
X300532Y509776D01*
X300616Y509667D01*
X300696Y509555D01*
X300773Y509441D01*
X300847Y509324D01*
X300918Y509206D01*
X300985Y509086D01*
X301049Y508964D01*
X301109Y508840D01*
X301166Y508714D01*
X301219Y508587D01*
X301269Y508459D01*
X301314Y508329D01*
X301357Y508197D01*
X301395Y508065D01*
X301430Y507932D01*
X301461Y507798D01*
X301488Y507663D01*
X301511Y507527D01*
X301531Y507390D01*
X301546Y507253D01*
X301558Y507116D01*
X301566Y506979D01*
X301570Y506841D01*
X301570Y506703D01*
X301566Y506565D01*
X301558Y506428D01*
X301546Y506291D01*
X301531Y506154D01*
X301511Y506017D01*
X301488Y505881D01*
X301461Y505746D01*
X301430Y505612D01*
X301395Y505479D01*
X301357Y505347D01*
X301314Y505215D01*
X301269Y505085D01*
X301219Y504957D01*
X301166Y504830D01*
X301109Y504704D01*
X301049Y504580D01*
X300985Y504458D01*
X300918Y504338D01*
X300847Y504220D01*
X300773Y504103D01*
X300696Y503989D01*
X300616Y503877D01*
X300532Y503768D01*
X300446Y503661D01*
X300356Y503556D01*
X300264Y503454D01*
X300168Y503354D01*
X300070Y503258D01*
X299970Y503164D01*
X299866Y503073D01*
X299760Y502985D01*
X299652Y502899D01*
X299541Y502818D01*
X299428Y502739D01*
X299313Y502663D01*
X299195Y502591D01*
X299076Y502522D01*
X298955Y502457D01*
X298832Y502395D01*
X298707Y502336D01*
X298581Y502281D01*
X298453Y502230D01*
X298324Y502182D01*
X298193Y502138D01*
X298061Y502098D01*
X297929Y502061D01*
X297795Y502028D01*
X297660Y501999D01*
X297525Y501974D01*
X297389Y501953D01*
X297252Y501935D01*
X297115Y501922D01*
X296977Y501912D01*
X296840Y501906D01*
X296702Y501904D01*
X291834Y501904D01*
X291834Y519430D01*
X296702Y519430D01*
X296826Y519428D01*
X296949Y519422D01*
X297072Y519412D01*
X297195Y519399D01*
X297317Y519381D01*
X297439Y519360D01*
X297560Y519334D01*
X297680Y519305D01*
X297799Y519272D01*
X297917Y519236D01*
X298034Y519195D01*
X298150Y519151D01*
X298264Y519103D01*
X298376Y519052D01*
X298487Y518997D01*
X298596Y518939D01*
X298703Y518877D01*
X298808Y518812D01*
X298911Y518743D01*
X299011Y518672D01*
X299110Y518597D01*
X299206Y518519D01*
X299299Y518438D01*
X299390Y518354D01*
X299478Y518267D01*
X299563Y518178D01*
X299646Y518086D01*
X299725Y517991D01*
X299801Y517894D01*
X299875Y517794D01*
X299945Y517693D01*
X300012Y517589D01*
X300075Y517483D01*
X300135Y517374D01*
X300192Y517265D01*
X300245Y517153D01*
X300295Y517040D01*
X300341Y516925D01*
X300383Y516809D01*
X300421Y516692D01*
X300456Y516573D01*
X300487Y516453D01*
X300514Y516333D01*
X300538Y516211D01*
X300557Y516089D01*
X300573Y515967D01*
X300585Y515844D01*
X300593Y515720D01*
X300597Y515597D01*
X300597Y515473D01*
X300593Y515350D01*
X300585Y515226D01*
X300573Y515103D01*
X300557Y514981D01*
X300538Y514859D01*
X300514Y514737D01*
X300487Y514617D01*
X300456Y514497D01*
X300421Y514378D01*
X300383Y514261D01*
X300341Y514145D01*
X300295Y514030D01*
X300245Y513917D01*
X300192Y513805D01*
X300135Y513696D01*
X300075Y513588D01*
X300012Y513481D01*
X299945Y513377D01*
X299875Y513276D01*
X299801Y513176D01*
X299725Y513079D01*
X299646Y512984D01*
X299563Y512892D01*
X299478Y512803D01*
X299390Y512716D01*
X299299Y512632D01*
X299206Y512551D01*
X299110Y512473D01*
X299011Y512398D01*
X298911Y512327D01*
X298808Y512258D01*
X298703Y512193D01*
X298596Y512131D01*
X298487Y512073D01*
X298376Y512018D01*
X298264Y511967D01*
X298150Y511919D01*
X298034Y511875D01*
X297917Y511834D01*
X297799Y511798D01*
X297680Y511765D01*
X297560Y511736D01*
X297439Y511710D01*
X297317Y511689D01*
X297195Y511671D01*
X297072Y511658D01*
X296949Y511648D01*
X296826Y511642D01*
X296702Y511640D01*
X308151Y513588D02*
X308151Y501904D01*
X308151Y513588D02*
X313993Y513588D01*
X313993Y511641D01*
X322453Y508720D02*
X326834Y508720D01*
X322453Y508720D02*
X322338Y508718D01*
X322223Y508712D01*
X322108Y508703D01*
X321994Y508689D01*
X321880Y508672D01*
X321767Y508650D01*
X321655Y508625D01*
X321543Y508596D01*
X321433Y508564D01*
X321324Y508527D01*
X321216Y508487D01*
X321109Y508444D01*
X321004Y508397D01*
X320901Y508346D01*
X320799Y508292D01*
X320699Y508234D01*
X320602Y508173D01*
X320506Y508109D01*
X320413Y508042D01*
X320322Y507971D01*
X320233Y507898D01*
X320147Y507821D01*
X320064Y507742D01*
X319983Y507660D01*
X319905Y507575D01*
X319830Y507488D01*
X319758Y507398D01*
X319689Y507306D01*
X319623Y507211D01*
X319561Y507115D01*
X319502Y507016D01*
X319446Y506915D01*
X319393Y506813D01*
X319344Y506709D01*
X319299Y506603D01*
X319257Y506496D01*
X319219Y506387D01*
X319185Y506277D01*
X319154Y506166D01*
X319127Y506054D01*
X319104Y505942D01*
X319084Y505828D01*
X319069Y505714D01*
X319057Y505599D01*
X319049Y505485D01*
X319045Y505370D01*
X319045Y505254D01*
X319049Y505139D01*
X319057Y505025D01*
X319069Y504910D01*
X319084Y504796D01*
X319104Y504682D01*
X319127Y504570D01*
X319154Y504458D01*
X319185Y504347D01*
X319219Y504237D01*
X319257Y504128D01*
X319299Y504021D01*
X319344Y503915D01*
X319393Y503811D01*
X319446Y503709D01*
X319502Y503608D01*
X319561Y503509D01*
X319623Y503413D01*
X319689Y503318D01*
X319758Y503226D01*
X319830Y503136D01*
X319905Y503049D01*
X319983Y502964D01*
X320064Y502882D01*
X320147Y502803D01*
X320233Y502726D01*
X320322Y502653D01*
X320413Y502582D01*
X320506Y502515D01*
X320602Y502451D01*
X320699Y502390D01*
X320799Y502332D01*
X320901Y502278D01*
X321004Y502227D01*
X321109Y502180D01*
X321216Y502137D01*
X321324Y502097D01*
X321433Y502060D01*
X321543Y502028D01*
X321655Y501999D01*
X321767Y501974D01*
X321880Y501952D01*
X321994Y501935D01*
X322108Y501921D01*
X322223Y501912D01*
X322338Y501906D01*
X322453Y501904D01*
X326834Y501904D01*
X326834Y510667D01*
X326832Y510774D01*
X326826Y510880D01*
X326816Y510986D01*
X326803Y511092D01*
X326785Y511198D01*
X326764Y511302D01*
X326739Y511406D01*
X326710Y511509D01*
X326678Y511610D01*
X326641Y511710D01*
X326601Y511809D01*
X326558Y511907D01*
X326511Y512003D01*
X326460Y512097D01*
X326406Y512189D01*
X326349Y512279D01*
X326289Y512367D01*
X326225Y512452D01*
X326158Y512535D01*
X326088Y512616D01*
X326016Y512694D01*
X325940Y512770D01*
X325862Y512842D01*
X325781Y512912D01*
X325698Y512979D01*
X325613Y513043D01*
X325525Y513103D01*
X325435Y513160D01*
X325343Y513214D01*
X325249Y513265D01*
X325153Y513312D01*
X325055Y513355D01*
X324956Y513395D01*
X324856Y513432D01*
X324755Y513464D01*
X324652Y513493D01*
X324548Y513518D01*
X324444Y513539D01*
X324338Y513557D01*
X324232Y513570D01*
X324126Y513580D01*
X324020Y513586D01*
X323913Y513588D01*
X320019Y513588D01*
X334053Y513588D02*
X334053Y501904D01*
X333566Y518456D02*
X333566Y519430D01*
X334540Y519430D01*
X334540Y518456D01*
X333566Y518456D01*
X341202Y513588D02*
X341202Y501904D01*
X341202Y513588D02*
X346071Y513588D01*
X346178Y513586D01*
X346284Y513580D01*
X346390Y513570D01*
X346496Y513557D01*
X346602Y513539D01*
X346706Y513518D01*
X346810Y513493D01*
X346913Y513464D01*
X347014Y513432D01*
X347114Y513395D01*
X347213Y513355D01*
X347311Y513312D01*
X347407Y513265D01*
X347501Y513214D01*
X347593Y513160D01*
X347683Y513103D01*
X347771Y513043D01*
X347856Y512979D01*
X347939Y512912D01*
X348020Y512842D01*
X348098Y512770D01*
X348174Y512694D01*
X348246Y512616D01*
X348316Y512535D01*
X348383Y512452D01*
X348447Y512367D01*
X348507Y512279D01*
X348564Y512189D01*
X348618Y512097D01*
X348669Y512003D01*
X348716Y511907D01*
X348759Y511809D01*
X348799Y511710D01*
X348836Y511610D01*
X348868Y511509D01*
X348897Y511406D01*
X348922Y511302D01*
X348943Y511198D01*
X348961Y511092D01*
X348974Y510986D01*
X348984Y510880D01*
X348990Y510774D01*
X348992Y510667D01*
X348992Y501904D01*
X365830Y501904D02*
X365830Y519430D01*
X370698Y519430D01*
X370836Y519428D01*
X370973Y519422D01*
X371111Y519412D01*
X371248Y519399D01*
X371385Y519381D01*
X371521Y519360D01*
X371656Y519335D01*
X371791Y519306D01*
X371925Y519273D01*
X372057Y519236D01*
X372189Y519196D01*
X372320Y519152D01*
X372449Y519104D01*
X372577Y519053D01*
X372703Y518998D01*
X372828Y518939D01*
X372951Y518877D01*
X373072Y518812D01*
X373191Y518743D01*
X373309Y518671D01*
X373424Y518595D01*
X373537Y518516D01*
X373648Y518435D01*
X373756Y518349D01*
X373862Y518261D01*
X373966Y518170D01*
X374066Y518076D01*
X374164Y517980D01*
X374260Y517880D01*
X374352Y517778D01*
X374442Y517673D01*
X374528Y517566D01*
X374612Y517457D01*
X374692Y517345D01*
X374769Y517231D01*
X374843Y517114D01*
X374914Y516996D01*
X374981Y516876D01*
X375045Y516754D01*
X375105Y516630D01*
X375162Y516504D01*
X375215Y516377D01*
X375265Y516249D01*
X375310Y516119D01*
X375353Y515987D01*
X375391Y515855D01*
X375426Y515722D01*
X375457Y515588D01*
X375484Y515453D01*
X375507Y515317D01*
X375527Y515180D01*
X375542Y515043D01*
X375554Y514906D01*
X375562Y514769D01*
X375566Y514631D01*
X375566Y514493D01*
X375562Y514355D01*
X375554Y514218D01*
X375542Y514081D01*
X375527Y513944D01*
X375507Y513807D01*
X375484Y513671D01*
X375457Y513536D01*
X375426Y513402D01*
X375391Y513269D01*
X375353Y513137D01*
X375310Y513005D01*
X375265Y512875D01*
X375215Y512747D01*
X375162Y512620D01*
X375105Y512494D01*
X375045Y512370D01*
X374981Y512248D01*
X374914Y512128D01*
X374843Y512010D01*
X374769Y511893D01*
X374692Y511779D01*
X374612Y511667D01*
X374528Y511558D01*
X374442Y511451D01*
X374352Y511346D01*
X374260Y511244D01*
X374164Y511144D01*
X374066Y511048D01*
X373966Y510954D01*
X373862Y510863D01*
X373756Y510775D01*
X373648Y510689D01*
X373537Y510608D01*
X373424Y510529D01*
X373309Y510453D01*
X373191Y510381D01*
X373072Y510312D01*
X372951Y510247D01*
X372828Y510185D01*
X372703Y510126D01*
X372577Y510071D01*
X372449Y510020D01*
X372320Y509972D01*
X372189Y509928D01*
X372057Y509888D01*
X371925Y509851D01*
X371791Y509818D01*
X371656Y509789D01*
X371521Y509764D01*
X371385Y509743D01*
X371248Y509725D01*
X371111Y509712D01*
X370973Y509702D01*
X370836Y509696D01*
X370698Y509694D01*
X370698Y509693D02*
X365830Y509693D01*
X382066Y513588D02*
X382066Y504825D01*
X382068Y504718D01*
X382074Y504612D01*
X382084Y504506D01*
X382097Y504400D01*
X382115Y504294D01*
X382136Y504190D01*
X382161Y504086D01*
X382190Y503983D01*
X382222Y503882D01*
X382259Y503782D01*
X382299Y503683D01*
X382342Y503585D01*
X382389Y503489D01*
X382440Y503395D01*
X382494Y503303D01*
X382551Y503213D01*
X382611Y503125D01*
X382675Y503040D01*
X382742Y502957D01*
X382812Y502876D01*
X382884Y502798D01*
X382960Y502722D01*
X383038Y502650D01*
X383119Y502580D01*
X383202Y502513D01*
X383287Y502449D01*
X383375Y502389D01*
X383465Y502332D01*
X383557Y502278D01*
X383651Y502227D01*
X383747Y502180D01*
X383845Y502137D01*
X383944Y502097D01*
X384044Y502060D01*
X384145Y502028D01*
X384248Y501999D01*
X384352Y501974D01*
X384456Y501953D01*
X384562Y501935D01*
X384668Y501922D01*
X384774Y501912D01*
X384880Y501906D01*
X384987Y501904D01*
X389855Y501904D01*
X389855Y513588D01*
X397261Y519430D02*
X397261Y504825D01*
X397263Y504718D01*
X397269Y504612D01*
X397279Y504506D01*
X397292Y504400D01*
X397310Y504294D01*
X397331Y504190D01*
X397356Y504086D01*
X397385Y503983D01*
X397417Y503882D01*
X397454Y503782D01*
X397494Y503683D01*
X397537Y503585D01*
X397584Y503489D01*
X397635Y503395D01*
X397689Y503303D01*
X397746Y503213D01*
X397806Y503125D01*
X397870Y503040D01*
X397937Y502957D01*
X398007Y502876D01*
X398079Y502798D01*
X398155Y502722D01*
X398233Y502650D01*
X398314Y502580D01*
X398397Y502513D01*
X398482Y502449D01*
X398570Y502389D01*
X398660Y502332D01*
X398752Y502278D01*
X398846Y502227D01*
X398942Y502180D01*
X399040Y502137D01*
X399139Y502097D01*
X399239Y502060D01*
X399340Y502028D01*
X399443Y501999D01*
X399547Y501974D01*
X399651Y501953D01*
X399757Y501935D01*
X399863Y501922D01*
X399969Y501912D01*
X400075Y501906D01*
X400182Y501904D01*
X407272Y508720D02*
X412140Y506772D01*
X407271Y508720D02*
X407179Y508759D01*
X407088Y508801D01*
X407000Y508847D01*
X406913Y508897D01*
X406828Y508950D01*
X406745Y509007D01*
X406665Y509066D01*
X406587Y509129D01*
X406511Y509195D01*
X406439Y509264D01*
X406369Y509335D01*
X406302Y509409D01*
X406237Y509486D01*
X406177Y509566D01*
X406119Y509648D01*
X406064Y509731D01*
X406013Y509818D01*
X405965Y509906D01*
X405921Y509995D01*
X405881Y510087D01*
X405844Y510180D01*
X405811Y510274D01*
X405781Y510370D01*
X405756Y510467D01*
X405734Y510565D01*
X405716Y510663D01*
X405702Y510762D01*
X405692Y510862D01*
X405686Y510962D01*
X405684Y511062D01*
X405686Y511162D01*
X405692Y511262D01*
X405702Y511362D01*
X405715Y511461D01*
X405733Y511559D01*
X405755Y511657D01*
X405780Y511754D01*
X405809Y511850D01*
X405842Y511944D01*
X405879Y512037D01*
X405919Y512129D01*
X405963Y512219D01*
X406011Y512307D01*
X406062Y512393D01*
X406116Y512477D01*
X406174Y512559D01*
X406235Y512638D01*
X406299Y512715D01*
X406366Y512790D01*
X406436Y512861D01*
X406508Y512930D01*
X406584Y512996D01*
X406661Y513059D01*
X406742Y513119D01*
X406824Y513175D01*
X406909Y513229D01*
X406996Y513279D01*
X407085Y513325D01*
X407175Y513368D01*
X407267Y513407D01*
X407361Y513442D01*
X407456Y513474D01*
X407552Y513502D01*
X407649Y513526D01*
X407747Y513546D01*
X407846Y513563D01*
X407945Y513575D01*
X408045Y513584D01*
X408145Y513588D01*
X408245Y513589D01*
X408511Y513582D01*
X408776Y513568D01*
X409042Y513549D01*
X409306Y513523D01*
X409570Y513490D01*
X409833Y513451D01*
X410095Y513406D01*
X410356Y513355D01*
X410615Y513297D01*
X410874Y513233D01*
X411130Y513163D01*
X411385Y513087D01*
X411638Y513004D01*
X411888Y512916D01*
X412137Y512822D01*
X412383Y512721D01*
X412627Y512615D01*
X412140Y506772D02*
X412232Y506733D01*
X412323Y506691D01*
X412411Y506645D01*
X412498Y506595D01*
X412583Y506542D01*
X412666Y506485D01*
X412746Y506426D01*
X412824Y506363D01*
X412900Y506297D01*
X412972Y506228D01*
X413042Y506157D01*
X413109Y506083D01*
X413173Y506006D01*
X413234Y505926D01*
X413292Y505844D01*
X413347Y505761D01*
X413398Y505674D01*
X413446Y505586D01*
X413490Y505497D01*
X413530Y505405D01*
X413567Y505312D01*
X413600Y505218D01*
X413630Y505122D01*
X413655Y505025D01*
X413677Y504927D01*
X413695Y504829D01*
X413709Y504730D01*
X413719Y504630D01*
X413725Y504530D01*
X413727Y504430D01*
X413725Y504330D01*
X413719Y504230D01*
X413709Y504130D01*
X413696Y504031D01*
X413678Y503933D01*
X413656Y503835D01*
X413631Y503738D01*
X413602Y503642D01*
X413569Y503548D01*
X413532Y503455D01*
X413492Y503363D01*
X413448Y503273D01*
X413400Y503185D01*
X413349Y503099D01*
X413295Y503015D01*
X413237Y502933D01*
X413176Y502854D01*
X413112Y502777D01*
X413045Y502702D01*
X412975Y502631D01*
X412903Y502562D01*
X412827Y502496D01*
X412750Y502433D01*
X412669Y502373D01*
X412587Y502317D01*
X412502Y502263D01*
X412415Y502213D01*
X412326Y502167D01*
X412236Y502124D01*
X412144Y502085D01*
X412050Y502050D01*
X411955Y502018D01*
X411859Y501990D01*
X411762Y501966D01*
X411664Y501946D01*
X411565Y501929D01*
X411466Y501917D01*
X411366Y501908D01*
X411266Y501904D01*
X411166Y501903D01*
X411166Y501904D02*
X410776Y501914D01*
X410386Y501933D01*
X409996Y501962D01*
X409607Y502000D01*
X409220Y502047D01*
X408833Y502103D01*
X408448Y502168D01*
X408065Y502243D01*
X407683Y502326D01*
X407304Y502419D01*
X406927Y502520D01*
X406552Y502630D01*
X406180Y502749D01*
X405811Y502877D01*
X423090Y501904D02*
X427958Y501904D01*
X423090Y501904D02*
X422983Y501906D01*
X422877Y501912D01*
X422771Y501922D01*
X422665Y501935D01*
X422559Y501953D01*
X422455Y501974D01*
X422351Y501999D01*
X422248Y502028D01*
X422147Y502060D01*
X422047Y502097D01*
X421948Y502137D01*
X421850Y502180D01*
X421754Y502227D01*
X421660Y502278D01*
X421568Y502332D01*
X421478Y502389D01*
X421390Y502449D01*
X421305Y502513D01*
X421222Y502580D01*
X421141Y502650D01*
X421063Y502722D01*
X420987Y502798D01*
X420915Y502876D01*
X420845Y502957D01*
X420778Y503040D01*
X420714Y503125D01*
X420654Y503213D01*
X420597Y503303D01*
X420543Y503395D01*
X420492Y503489D01*
X420445Y503585D01*
X420402Y503683D01*
X420362Y503782D01*
X420325Y503882D01*
X420293Y503983D01*
X420264Y504086D01*
X420239Y504190D01*
X420218Y504294D01*
X420200Y504400D01*
X420187Y504506D01*
X420177Y504612D01*
X420171Y504718D01*
X420169Y504825D01*
X420169Y509693D01*
X420168Y509693D02*
X420170Y509817D01*
X420176Y509940D01*
X420186Y510063D01*
X420199Y510186D01*
X420217Y510308D01*
X420238Y510430D01*
X420264Y510551D01*
X420293Y510671D01*
X420326Y510790D01*
X420362Y510908D01*
X420403Y511025D01*
X420447Y511141D01*
X420495Y511255D01*
X420546Y511367D01*
X420601Y511478D01*
X420659Y511587D01*
X420721Y511694D01*
X420786Y511799D01*
X420855Y511902D01*
X420926Y512002D01*
X421001Y512101D01*
X421079Y512197D01*
X421160Y512290D01*
X421244Y512381D01*
X421331Y512469D01*
X421420Y512554D01*
X421512Y512637D01*
X421607Y512716D01*
X421704Y512792D01*
X421804Y512866D01*
X421905Y512936D01*
X422009Y513003D01*
X422116Y513066D01*
X422224Y513126D01*
X422333Y513183D01*
X422445Y513236D01*
X422558Y513286D01*
X422673Y513332D01*
X422789Y513374D01*
X422906Y513412D01*
X423025Y513447D01*
X423145Y513478D01*
X423265Y513505D01*
X423387Y513529D01*
X423509Y513548D01*
X423631Y513564D01*
X423754Y513576D01*
X423878Y513584D01*
X424001Y513588D01*
X424125Y513588D01*
X424248Y513584D01*
X424372Y513576D01*
X424495Y513564D01*
X424617Y513548D01*
X424739Y513529D01*
X424861Y513505D01*
X424981Y513478D01*
X425101Y513447D01*
X425220Y513412D01*
X425337Y513374D01*
X425453Y513332D01*
X425568Y513286D01*
X425681Y513236D01*
X425793Y513183D01*
X425902Y513126D01*
X426011Y513066D01*
X426117Y513003D01*
X426221Y512936D01*
X426322Y512866D01*
X426422Y512792D01*
X426519Y512716D01*
X426614Y512637D01*
X426706Y512554D01*
X426795Y512469D01*
X426882Y512381D01*
X426966Y512290D01*
X427047Y512197D01*
X427125Y512101D01*
X427200Y512002D01*
X427271Y511902D01*
X427340Y511799D01*
X427405Y511694D01*
X427467Y511587D01*
X427525Y511478D01*
X427580Y511367D01*
X427631Y511255D01*
X427679Y511141D01*
X427723Y511025D01*
X427764Y510908D01*
X427800Y510790D01*
X427833Y510671D01*
X427862Y510551D01*
X427888Y510430D01*
X427909Y510308D01*
X427927Y510186D01*
X427940Y510063D01*
X427950Y509940D01*
X427956Y509817D01*
X427958Y509693D01*
X427958Y507746D01*
X420169Y507746D01*
X443492Y506772D02*
X443492Y514562D01*
X443494Y514700D01*
X443500Y514837D01*
X443510Y514975D01*
X443523Y515112D01*
X443541Y515249D01*
X443562Y515385D01*
X443587Y515520D01*
X443616Y515655D01*
X443649Y515789D01*
X443686Y515921D01*
X443726Y516053D01*
X443770Y516184D01*
X443818Y516313D01*
X443869Y516441D01*
X443924Y516567D01*
X443983Y516692D01*
X444045Y516815D01*
X444110Y516936D01*
X444179Y517055D01*
X444251Y517173D01*
X444327Y517288D01*
X444406Y517401D01*
X444487Y517512D01*
X444573Y517620D01*
X444661Y517726D01*
X444752Y517830D01*
X444846Y517930D01*
X444942Y518028D01*
X445042Y518124D01*
X445144Y518216D01*
X445249Y518306D01*
X445356Y518392D01*
X445465Y518476D01*
X445577Y518556D01*
X445691Y518633D01*
X445808Y518707D01*
X445926Y518778D01*
X446046Y518845D01*
X446168Y518909D01*
X446292Y518969D01*
X446418Y519026D01*
X446545Y519079D01*
X446673Y519129D01*
X446803Y519174D01*
X446935Y519217D01*
X447067Y519255D01*
X447200Y519290D01*
X447334Y519321D01*
X447469Y519348D01*
X447605Y519371D01*
X447742Y519391D01*
X447879Y519406D01*
X448016Y519418D01*
X448153Y519426D01*
X448291Y519430D01*
X448429Y519430D01*
X448567Y519426D01*
X448704Y519418D01*
X448841Y519406D01*
X448978Y519391D01*
X449115Y519371D01*
X449251Y519348D01*
X449386Y519321D01*
X449520Y519290D01*
X449653Y519255D01*
X449785Y519217D01*
X449917Y519174D01*
X450047Y519129D01*
X450175Y519079D01*
X450302Y519026D01*
X450428Y518969D01*
X450552Y518909D01*
X450674Y518845D01*
X450794Y518778D01*
X450912Y518707D01*
X451029Y518633D01*
X451143Y518556D01*
X451255Y518476D01*
X451364Y518392D01*
X451471Y518306D01*
X451576Y518216D01*
X451678Y518124D01*
X451778Y518028D01*
X451874Y517930D01*
X451968Y517830D01*
X452059Y517726D01*
X452147Y517620D01*
X452233Y517512D01*
X452314Y517401D01*
X452393Y517288D01*
X452469Y517173D01*
X452541Y517055D01*
X452610Y516936D01*
X452675Y516815D01*
X452737Y516692D01*
X452796Y516567D01*
X452851Y516441D01*
X452902Y516313D01*
X452950Y516184D01*
X452994Y516053D01*
X453034Y515921D01*
X453071Y515789D01*
X453104Y515655D01*
X453133Y515520D01*
X453158Y515385D01*
X453179Y515249D01*
X453197Y515112D01*
X453210Y514975D01*
X453220Y514837D01*
X453226Y514700D01*
X453228Y514562D01*
X453229Y514562D02*
X453229Y506772D01*
X453228Y506772D02*
X453226Y506634D01*
X453220Y506497D01*
X453210Y506359D01*
X453197Y506222D01*
X453179Y506085D01*
X453158Y505949D01*
X453133Y505814D01*
X453104Y505679D01*
X453071Y505545D01*
X453034Y505413D01*
X452994Y505281D01*
X452950Y505150D01*
X452902Y505021D01*
X452851Y504893D01*
X452796Y504767D01*
X452737Y504642D01*
X452675Y504519D01*
X452610Y504398D01*
X452541Y504279D01*
X452469Y504161D01*
X452393Y504046D01*
X452314Y503933D01*
X452233Y503822D01*
X452147Y503714D01*
X452059Y503608D01*
X451968Y503504D01*
X451874Y503404D01*
X451778Y503306D01*
X451678Y503210D01*
X451576Y503118D01*
X451471Y503028D01*
X451364Y502942D01*
X451255Y502858D01*
X451143Y502778D01*
X451029Y502701D01*
X450912Y502627D01*
X450794Y502556D01*
X450674Y502489D01*
X450552Y502425D01*
X450428Y502365D01*
X450302Y502308D01*
X450175Y502255D01*
X450047Y502205D01*
X449917Y502160D01*
X449785Y502117D01*
X449653Y502079D01*
X449520Y502044D01*
X449386Y502013D01*
X449251Y501986D01*
X449115Y501963D01*
X448978Y501943D01*
X448841Y501928D01*
X448704Y501916D01*
X448567Y501908D01*
X448429Y501904D01*
X448291Y501904D01*
X448153Y501908D01*
X448016Y501916D01*
X447879Y501928D01*
X447742Y501943D01*
X447605Y501963D01*
X447469Y501986D01*
X447334Y502013D01*
X447200Y502044D01*
X447067Y502079D01*
X446935Y502117D01*
X446803Y502160D01*
X446673Y502205D01*
X446545Y502255D01*
X446418Y502308D01*
X446292Y502365D01*
X446168Y502425D01*
X446046Y502489D01*
X445926Y502556D01*
X445808Y502627D01*
X445691Y502701D01*
X445577Y502778D01*
X445465Y502858D01*
X445356Y502942D01*
X445249Y503028D01*
X445144Y503118D01*
X445042Y503210D01*
X444942Y503306D01*
X444846Y503404D01*
X444752Y503504D01*
X444661Y503608D01*
X444573Y503714D01*
X444487Y503822D01*
X444406Y503933D01*
X444327Y504046D01*
X444251Y504161D01*
X444179Y504279D01*
X444110Y504398D01*
X444045Y504519D01*
X443983Y504642D01*
X443924Y504767D01*
X443869Y504893D01*
X443818Y505021D01*
X443770Y505150D01*
X443726Y505281D01*
X443686Y505413D01*
X443649Y505545D01*
X443616Y505679D01*
X443587Y505814D01*
X443562Y505949D01*
X443541Y506085D01*
X443523Y506222D01*
X443510Y506359D01*
X443500Y506497D01*
X443494Y506634D01*
X443492Y506772D01*
X459375Y501904D02*
X467165Y513588D01*
X459375Y513588D02*
X467165Y501904D01*
X473210Y501904D02*
X473210Y513588D01*
X472723Y518456D02*
X472723Y519430D01*
X473697Y519430D01*
X473697Y518456D01*
X472723Y518456D01*
X480621Y513588D02*
X480621Y501904D01*
X480621Y513588D02*
X489384Y513588D01*
X489491Y513586D01*
X489597Y513580D01*
X489703Y513570D01*
X489809Y513557D01*
X489915Y513539D01*
X490019Y513518D01*
X490123Y513493D01*
X490226Y513464D01*
X490327Y513432D01*
X490427Y513395D01*
X490526Y513355D01*
X490624Y513312D01*
X490720Y513265D01*
X490814Y513214D01*
X490906Y513160D01*
X490996Y513103D01*
X491084Y513043D01*
X491169Y512979D01*
X491252Y512912D01*
X491333Y512842D01*
X491411Y512770D01*
X491487Y512694D01*
X491559Y512616D01*
X491629Y512535D01*
X491696Y512452D01*
X491760Y512367D01*
X491820Y512279D01*
X491877Y512189D01*
X491931Y512097D01*
X491982Y512003D01*
X492029Y511907D01*
X492072Y511809D01*
X492112Y511710D01*
X492149Y511610D01*
X492181Y511509D01*
X492210Y511406D01*
X492235Y511302D01*
X492256Y511198D01*
X492274Y511092D01*
X492287Y510986D01*
X492297Y510880D01*
X492303Y510774D01*
X492305Y510667D01*
X492305Y501904D01*
X486463Y501904D02*
X486463Y513588D01*
X502608Y501904D02*
X507476Y501904D01*
X502608Y501904D02*
X502501Y501906D01*
X502395Y501912D01*
X502289Y501922D01*
X502183Y501935D01*
X502077Y501953D01*
X501973Y501974D01*
X501869Y501999D01*
X501766Y502028D01*
X501665Y502060D01*
X501565Y502097D01*
X501466Y502137D01*
X501368Y502180D01*
X501272Y502227D01*
X501178Y502278D01*
X501086Y502332D01*
X500996Y502389D01*
X500908Y502449D01*
X500823Y502513D01*
X500740Y502580D01*
X500659Y502650D01*
X500581Y502722D01*
X500505Y502798D01*
X500433Y502876D01*
X500363Y502957D01*
X500296Y503040D01*
X500232Y503125D01*
X500172Y503213D01*
X500115Y503303D01*
X500061Y503395D01*
X500010Y503489D01*
X499963Y503585D01*
X499920Y503683D01*
X499880Y503782D01*
X499843Y503882D01*
X499811Y503983D01*
X499782Y504086D01*
X499757Y504190D01*
X499736Y504294D01*
X499718Y504400D01*
X499705Y504506D01*
X499695Y504612D01*
X499689Y504718D01*
X499687Y504825D01*
X499687Y509693D01*
X499686Y509693D02*
X499688Y509817D01*
X499694Y509940D01*
X499704Y510063D01*
X499717Y510186D01*
X499735Y510308D01*
X499756Y510430D01*
X499782Y510551D01*
X499811Y510671D01*
X499844Y510790D01*
X499880Y510908D01*
X499921Y511025D01*
X499965Y511141D01*
X500013Y511255D01*
X500064Y511367D01*
X500119Y511478D01*
X500177Y511587D01*
X500239Y511694D01*
X500304Y511799D01*
X500373Y511902D01*
X500444Y512002D01*
X500519Y512101D01*
X500597Y512197D01*
X500678Y512290D01*
X500762Y512381D01*
X500849Y512469D01*
X500938Y512554D01*
X501030Y512637D01*
X501125Y512716D01*
X501222Y512792D01*
X501322Y512866D01*
X501423Y512936D01*
X501527Y513003D01*
X501634Y513066D01*
X501742Y513126D01*
X501851Y513183D01*
X501963Y513236D01*
X502076Y513286D01*
X502191Y513332D01*
X502307Y513374D01*
X502424Y513412D01*
X502543Y513447D01*
X502663Y513478D01*
X502783Y513505D01*
X502905Y513529D01*
X503027Y513548D01*
X503149Y513564D01*
X503272Y513576D01*
X503396Y513584D01*
X503519Y513588D01*
X503643Y513588D01*
X503766Y513584D01*
X503890Y513576D01*
X504013Y513564D01*
X504135Y513548D01*
X504257Y513529D01*
X504379Y513505D01*
X504499Y513478D01*
X504619Y513447D01*
X504738Y513412D01*
X504855Y513374D01*
X504971Y513332D01*
X505086Y513286D01*
X505199Y513236D01*
X505311Y513183D01*
X505420Y513126D01*
X505529Y513066D01*
X505635Y513003D01*
X505739Y512936D01*
X505840Y512866D01*
X505940Y512792D01*
X506037Y512716D01*
X506132Y512637D01*
X506224Y512554D01*
X506313Y512469D01*
X506400Y512381D01*
X506484Y512290D01*
X506565Y512197D01*
X506643Y512101D01*
X506718Y512002D01*
X506789Y511902D01*
X506858Y511799D01*
X506923Y511694D01*
X506985Y511587D01*
X507043Y511478D01*
X507098Y511367D01*
X507149Y511255D01*
X507197Y511141D01*
X507241Y511025D01*
X507282Y510908D01*
X507318Y510790D01*
X507351Y510671D01*
X507380Y510551D01*
X507406Y510430D01*
X507427Y510308D01*
X507445Y510186D01*
X507458Y510063D01*
X507468Y509940D01*
X507474Y509817D01*
X507476Y509693D01*
X507476Y507746D01*
X499687Y507746D01*
X512698Y513588D02*
X518540Y513588D01*
X514646Y519430D02*
X514646Y504825D01*
X514648Y504718D01*
X514654Y504612D01*
X514664Y504506D01*
X514677Y504400D01*
X514695Y504294D01*
X514716Y504190D01*
X514741Y504086D01*
X514770Y503983D01*
X514802Y503882D01*
X514839Y503782D01*
X514879Y503683D01*
X514922Y503585D01*
X514969Y503489D01*
X515020Y503395D01*
X515074Y503303D01*
X515131Y503213D01*
X515191Y503125D01*
X515255Y503040D01*
X515322Y502957D01*
X515392Y502876D01*
X515464Y502798D01*
X515540Y502722D01*
X515618Y502650D01*
X515699Y502580D01*
X515782Y502513D01*
X515867Y502449D01*
X515955Y502389D01*
X516045Y502332D01*
X516137Y502278D01*
X516231Y502227D01*
X516327Y502180D01*
X516425Y502137D01*
X516524Y502097D01*
X516624Y502060D01*
X516725Y502028D01*
X516828Y501999D01*
X516932Y501974D01*
X517036Y501953D01*
X517142Y501935D01*
X517248Y501922D01*
X517354Y501912D01*
X517460Y501906D01*
X517567Y501904D01*
X518540Y501904D01*
X527457Y501904D02*
X532325Y501904D01*
X527457Y501904D02*
X527350Y501906D01*
X527244Y501912D01*
X527138Y501922D01*
X527032Y501935D01*
X526926Y501953D01*
X526822Y501974D01*
X526718Y501999D01*
X526615Y502028D01*
X526514Y502060D01*
X526414Y502097D01*
X526315Y502137D01*
X526217Y502180D01*
X526121Y502227D01*
X526027Y502278D01*
X525935Y502332D01*
X525845Y502389D01*
X525757Y502449D01*
X525672Y502513D01*
X525589Y502580D01*
X525508Y502650D01*
X525430Y502722D01*
X525354Y502798D01*
X525282Y502876D01*
X525212Y502957D01*
X525145Y503040D01*
X525081Y503125D01*
X525021Y503213D01*
X524964Y503303D01*
X524910Y503395D01*
X524859Y503489D01*
X524812Y503585D01*
X524769Y503683D01*
X524729Y503782D01*
X524692Y503882D01*
X524660Y503983D01*
X524631Y504086D01*
X524606Y504190D01*
X524585Y504294D01*
X524567Y504400D01*
X524554Y504506D01*
X524544Y504612D01*
X524538Y504718D01*
X524536Y504825D01*
X524536Y509693D01*
X524538Y509817D01*
X524544Y509940D01*
X524554Y510063D01*
X524567Y510186D01*
X524585Y510308D01*
X524606Y510430D01*
X524632Y510551D01*
X524661Y510671D01*
X524694Y510790D01*
X524730Y510908D01*
X524771Y511025D01*
X524815Y511141D01*
X524863Y511255D01*
X524914Y511367D01*
X524969Y511478D01*
X525027Y511587D01*
X525089Y511694D01*
X525154Y511799D01*
X525223Y511902D01*
X525294Y512002D01*
X525369Y512101D01*
X525447Y512197D01*
X525528Y512290D01*
X525612Y512381D01*
X525699Y512469D01*
X525788Y512554D01*
X525880Y512637D01*
X525975Y512716D01*
X526072Y512792D01*
X526172Y512866D01*
X526273Y512936D01*
X526377Y513003D01*
X526484Y513066D01*
X526592Y513126D01*
X526701Y513183D01*
X526813Y513236D01*
X526926Y513286D01*
X527041Y513332D01*
X527157Y513374D01*
X527274Y513412D01*
X527393Y513447D01*
X527513Y513478D01*
X527633Y513505D01*
X527755Y513529D01*
X527877Y513548D01*
X527999Y513564D01*
X528122Y513576D01*
X528246Y513584D01*
X528369Y513588D01*
X528493Y513588D01*
X528616Y513584D01*
X528740Y513576D01*
X528863Y513564D01*
X528985Y513548D01*
X529107Y513529D01*
X529229Y513505D01*
X529349Y513478D01*
X529469Y513447D01*
X529588Y513412D01*
X529705Y513374D01*
X529821Y513332D01*
X529936Y513286D01*
X530049Y513236D01*
X530161Y513183D01*
X530270Y513126D01*
X530379Y513066D01*
X530485Y513003D01*
X530589Y512936D01*
X530690Y512866D01*
X530790Y512792D01*
X530887Y512716D01*
X530982Y512637D01*
X531074Y512554D01*
X531163Y512469D01*
X531250Y512381D01*
X531334Y512290D01*
X531415Y512197D01*
X531493Y512101D01*
X531568Y512002D01*
X531639Y511902D01*
X531708Y511799D01*
X531773Y511694D01*
X531835Y511587D01*
X531893Y511478D01*
X531948Y511367D01*
X531999Y511255D01*
X532047Y511141D01*
X532091Y511025D01*
X532132Y510908D01*
X532168Y510790D01*
X532201Y510671D01*
X532230Y510551D01*
X532256Y510430D01*
X532277Y510308D01*
X532295Y510186D01*
X532308Y510063D01*
X532318Y509940D01*
X532324Y509817D01*
X532326Y509693D01*
X532325Y509693D02*
X532325Y507746D01*
X524536Y507746D01*
X539527Y501904D02*
X539527Y513588D01*
X545369Y513588D01*
X545369Y511641D01*
X183430Y483066D02*
X178562Y483066D01*
X183430Y483065D02*
X183568Y483063D01*
X183705Y483057D01*
X183843Y483047D01*
X183980Y483034D01*
X184117Y483016D01*
X184253Y482995D01*
X184388Y482970D01*
X184523Y482941D01*
X184657Y482908D01*
X184789Y482871D01*
X184921Y482831D01*
X185052Y482787D01*
X185181Y482739D01*
X185309Y482688D01*
X185435Y482633D01*
X185560Y482574D01*
X185683Y482512D01*
X185804Y482447D01*
X185923Y482378D01*
X186041Y482306D01*
X186156Y482230D01*
X186269Y482151D01*
X186380Y482070D01*
X186488Y481984D01*
X186594Y481896D01*
X186698Y481805D01*
X186798Y481711D01*
X186896Y481615D01*
X186992Y481515D01*
X187084Y481413D01*
X187174Y481308D01*
X187260Y481201D01*
X187344Y481092D01*
X187424Y480980D01*
X187501Y480866D01*
X187575Y480749D01*
X187646Y480631D01*
X187713Y480511D01*
X187777Y480389D01*
X187837Y480265D01*
X187894Y480139D01*
X187947Y480012D01*
X187997Y479884D01*
X188042Y479754D01*
X188085Y479622D01*
X188123Y479490D01*
X188158Y479357D01*
X188189Y479223D01*
X188216Y479088D01*
X188239Y478952D01*
X188259Y478815D01*
X188274Y478678D01*
X188286Y478541D01*
X188294Y478404D01*
X188298Y478266D01*
X188298Y478128D01*
X188294Y477990D01*
X188286Y477853D01*
X188274Y477716D01*
X188259Y477579D01*
X188239Y477442D01*
X188216Y477306D01*
X188189Y477171D01*
X188158Y477037D01*
X188123Y476904D01*
X188085Y476772D01*
X188042Y476640D01*
X187997Y476510D01*
X187947Y476382D01*
X187894Y476255D01*
X187837Y476129D01*
X187777Y476005D01*
X187713Y475883D01*
X187646Y475763D01*
X187575Y475645D01*
X187501Y475528D01*
X187424Y475414D01*
X187344Y475302D01*
X187260Y475193D01*
X187174Y475086D01*
X187084Y474981D01*
X186992Y474879D01*
X186896Y474779D01*
X186798Y474683D01*
X186698Y474589D01*
X186594Y474498D01*
X186488Y474410D01*
X186380Y474324D01*
X186269Y474243D01*
X186156Y474164D01*
X186041Y474088D01*
X185923Y474016D01*
X185804Y473947D01*
X185683Y473882D01*
X185560Y473820D01*
X185435Y473761D01*
X185309Y473706D01*
X185181Y473655D01*
X185052Y473607D01*
X184921Y473563D01*
X184789Y473523D01*
X184657Y473486D01*
X184523Y473453D01*
X184388Y473424D01*
X184253Y473399D01*
X184117Y473378D01*
X183980Y473360D01*
X183843Y473347D01*
X183705Y473337D01*
X183568Y473331D01*
X183430Y473329D01*
X178562Y473329D01*
X178562Y490855D01*
X183430Y490855D01*
X183554Y490853D01*
X183677Y490847D01*
X183800Y490837D01*
X183923Y490824D01*
X184045Y490806D01*
X184167Y490785D01*
X184288Y490759D01*
X184408Y490730D01*
X184527Y490697D01*
X184645Y490661D01*
X184762Y490620D01*
X184878Y490576D01*
X184992Y490528D01*
X185104Y490477D01*
X185215Y490422D01*
X185324Y490364D01*
X185431Y490302D01*
X185536Y490237D01*
X185639Y490168D01*
X185739Y490097D01*
X185838Y490022D01*
X185934Y489944D01*
X186027Y489863D01*
X186118Y489779D01*
X186206Y489692D01*
X186291Y489603D01*
X186374Y489511D01*
X186453Y489416D01*
X186529Y489319D01*
X186603Y489219D01*
X186673Y489118D01*
X186740Y489014D01*
X186803Y488908D01*
X186863Y488799D01*
X186920Y488690D01*
X186973Y488578D01*
X187023Y488465D01*
X187069Y488350D01*
X187111Y488234D01*
X187149Y488117D01*
X187184Y487998D01*
X187215Y487878D01*
X187242Y487758D01*
X187266Y487636D01*
X187285Y487514D01*
X187301Y487392D01*
X187313Y487269D01*
X187321Y487145D01*
X187325Y487022D01*
X187325Y486898D01*
X187321Y486775D01*
X187313Y486651D01*
X187301Y486528D01*
X187285Y486406D01*
X187266Y486284D01*
X187242Y486162D01*
X187215Y486042D01*
X187184Y485922D01*
X187149Y485803D01*
X187111Y485686D01*
X187069Y485570D01*
X187023Y485455D01*
X186973Y485342D01*
X186920Y485230D01*
X186863Y485121D01*
X186803Y485013D01*
X186740Y484906D01*
X186673Y484802D01*
X186603Y484701D01*
X186529Y484601D01*
X186453Y484504D01*
X186374Y484409D01*
X186291Y484317D01*
X186206Y484228D01*
X186118Y484141D01*
X186027Y484057D01*
X185934Y483976D01*
X185838Y483898D01*
X185739Y483823D01*
X185639Y483752D01*
X185536Y483683D01*
X185431Y483618D01*
X185324Y483556D01*
X185215Y483498D01*
X185104Y483443D01*
X184992Y483392D01*
X184878Y483344D01*
X184762Y483300D01*
X184645Y483259D01*
X184527Y483223D01*
X184408Y483190D01*
X184288Y483161D01*
X184167Y483135D01*
X184045Y483114D01*
X183923Y483096D01*
X183800Y483083D01*
X183677Y483073D01*
X183554Y483067D01*
X183430Y483065D01*
X193694Y467487D02*
X195641Y467487D01*
X201483Y485013D01*
X193694Y485013D02*
X197588Y473329D01*
X220729Y477224D02*
X220729Y490855D01*
X220729Y477224D02*
X220727Y477102D01*
X220721Y476979D01*
X220712Y476857D01*
X220698Y476736D01*
X220681Y476615D01*
X220660Y476494D01*
X220635Y476374D01*
X220607Y476255D01*
X220574Y476137D01*
X220538Y476020D01*
X220499Y475905D01*
X220455Y475790D01*
X220409Y475677D01*
X220358Y475566D01*
X220304Y475456D01*
X220247Y475348D01*
X220187Y475241D01*
X220123Y475137D01*
X220055Y475035D01*
X219985Y474935D01*
X219912Y474837D01*
X219835Y474741D01*
X219756Y474648D01*
X219673Y474558D01*
X219588Y474470D01*
X219500Y474385D01*
X219410Y474302D01*
X219317Y474223D01*
X219221Y474146D01*
X219123Y474073D01*
X219023Y474003D01*
X218921Y473935D01*
X218817Y473871D01*
X218710Y473811D01*
X218602Y473754D01*
X218492Y473700D01*
X218381Y473649D01*
X218268Y473603D01*
X218153Y473559D01*
X218038Y473520D01*
X217921Y473484D01*
X217803Y473451D01*
X217684Y473423D01*
X217564Y473398D01*
X217443Y473377D01*
X217322Y473360D01*
X217201Y473346D01*
X217079Y473337D01*
X216956Y473331D01*
X216834Y473329D01*
X214887Y473329D01*
X227931Y477224D02*
X227931Y481118D01*
X227930Y481118D02*
X227932Y481242D01*
X227938Y481365D01*
X227948Y481488D01*
X227961Y481611D01*
X227979Y481733D01*
X228000Y481855D01*
X228026Y481976D01*
X228055Y482096D01*
X228088Y482215D01*
X228124Y482333D01*
X228165Y482450D01*
X228209Y482566D01*
X228257Y482680D01*
X228308Y482792D01*
X228363Y482903D01*
X228421Y483012D01*
X228483Y483119D01*
X228548Y483224D01*
X228617Y483327D01*
X228688Y483427D01*
X228763Y483526D01*
X228841Y483622D01*
X228922Y483715D01*
X229006Y483806D01*
X229093Y483894D01*
X229182Y483979D01*
X229274Y484062D01*
X229369Y484141D01*
X229466Y484217D01*
X229566Y484291D01*
X229667Y484361D01*
X229771Y484428D01*
X229878Y484491D01*
X229986Y484551D01*
X230095Y484608D01*
X230207Y484661D01*
X230320Y484711D01*
X230435Y484757D01*
X230551Y484799D01*
X230668Y484837D01*
X230787Y484872D01*
X230907Y484903D01*
X231027Y484930D01*
X231149Y484954D01*
X231271Y484973D01*
X231393Y484989D01*
X231516Y485001D01*
X231640Y485009D01*
X231763Y485013D01*
X231887Y485013D01*
X232010Y485009D01*
X232134Y485001D01*
X232257Y484989D01*
X232379Y484973D01*
X232501Y484954D01*
X232623Y484930D01*
X232743Y484903D01*
X232863Y484872D01*
X232982Y484837D01*
X233099Y484799D01*
X233215Y484757D01*
X233330Y484711D01*
X233443Y484661D01*
X233555Y484608D01*
X233664Y484551D01*
X233773Y484491D01*
X233879Y484428D01*
X233983Y484361D01*
X234084Y484291D01*
X234184Y484217D01*
X234281Y484141D01*
X234376Y484062D01*
X234468Y483979D01*
X234557Y483894D01*
X234644Y483806D01*
X234728Y483715D01*
X234809Y483622D01*
X234887Y483526D01*
X234962Y483427D01*
X235033Y483327D01*
X235102Y483224D01*
X235167Y483119D01*
X235229Y483012D01*
X235287Y482903D01*
X235342Y482792D01*
X235393Y482680D01*
X235441Y482566D01*
X235485Y482450D01*
X235526Y482333D01*
X235562Y482215D01*
X235595Y482096D01*
X235624Y481976D01*
X235650Y481855D01*
X235671Y481733D01*
X235689Y481611D01*
X235702Y481488D01*
X235712Y481365D01*
X235718Y481242D01*
X235720Y481118D01*
X235720Y477224D01*
X235718Y477100D01*
X235712Y476977D01*
X235702Y476854D01*
X235689Y476731D01*
X235671Y476609D01*
X235650Y476487D01*
X235624Y476366D01*
X235595Y476246D01*
X235562Y476127D01*
X235526Y476009D01*
X235485Y475892D01*
X235441Y475776D01*
X235393Y475662D01*
X235342Y475550D01*
X235287Y475439D01*
X235229Y475330D01*
X235167Y475223D01*
X235102Y475118D01*
X235033Y475015D01*
X234962Y474915D01*
X234887Y474816D01*
X234809Y474720D01*
X234728Y474627D01*
X234644Y474536D01*
X234557Y474448D01*
X234468Y474363D01*
X234376Y474280D01*
X234281Y474201D01*
X234184Y474125D01*
X234084Y474051D01*
X233983Y473981D01*
X233879Y473914D01*
X233772Y473851D01*
X233664Y473791D01*
X233555Y473734D01*
X233443Y473681D01*
X233330Y473631D01*
X233215Y473585D01*
X233099Y473543D01*
X232982Y473505D01*
X232863Y473470D01*
X232743Y473439D01*
X232623Y473412D01*
X232501Y473388D01*
X232379Y473369D01*
X232257Y473353D01*
X232134Y473341D01*
X232010Y473333D01*
X231887Y473329D01*
X231763Y473329D01*
X231640Y473333D01*
X231516Y473341D01*
X231393Y473353D01*
X231271Y473369D01*
X231149Y473388D01*
X231027Y473412D01*
X230907Y473439D01*
X230787Y473470D01*
X230668Y473505D01*
X230551Y473543D01*
X230435Y473585D01*
X230320Y473631D01*
X230207Y473681D01*
X230095Y473734D01*
X229986Y473791D01*
X229878Y473851D01*
X229771Y473914D01*
X229667Y473981D01*
X229566Y474051D01*
X229466Y474125D01*
X229369Y474201D01*
X229274Y474280D01*
X229182Y474363D01*
X229093Y474448D01*
X229006Y474536D01*
X228922Y474627D01*
X228841Y474720D01*
X228763Y474816D01*
X228688Y474915D01*
X228617Y475015D01*
X228548Y475118D01*
X228483Y475223D01*
X228421Y475330D01*
X228363Y475439D01*
X228308Y475550D01*
X228257Y475662D01*
X228209Y475776D01*
X228165Y475892D01*
X228124Y476009D01*
X228088Y476127D01*
X228055Y476246D01*
X228026Y476366D01*
X228000Y476487D01*
X227979Y476609D01*
X227961Y476731D01*
X227948Y476854D01*
X227938Y476977D01*
X227932Y477100D01*
X227930Y477224D01*
X243749Y480145D02*
X248617Y478197D01*
X243748Y480145D02*
X243656Y480184D01*
X243565Y480226D01*
X243477Y480272D01*
X243390Y480322D01*
X243305Y480375D01*
X243222Y480432D01*
X243142Y480491D01*
X243064Y480554D01*
X242988Y480620D01*
X242916Y480689D01*
X242846Y480760D01*
X242779Y480834D01*
X242714Y480911D01*
X242654Y480991D01*
X242596Y481073D01*
X242541Y481156D01*
X242490Y481243D01*
X242442Y481331D01*
X242398Y481420D01*
X242358Y481512D01*
X242321Y481605D01*
X242288Y481699D01*
X242258Y481795D01*
X242233Y481892D01*
X242211Y481990D01*
X242193Y482088D01*
X242179Y482187D01*
X242169Y482287D01*
X242163Y482387D01*
X242161Y482487D01*
X242163Y482587D01*
X242169Y482687D01*
X242179Y482787D01*
X242192Y482886D01*
X242210Y482984D01*
X242232Y483082D01*
X242257Y483179D01*
X242286Y483275D01*
X242319Y483369D01*
X242356Y483462D01*
X242396Y483554D01*
X242440Y483644D01*
X242488Y483732D01*
X242539Y483818D01*
X242593Y483902D01*
X242651Y483984D01*
X242712Y484063D01*
X242776Y484140D01*
X242843Y484215D01*
X242913Y484286D01*
X242985Y484355D01*
X243061Y484421D01*
X243138Y484484D01*
X243219Y484544D01*
X243301Y484600D01*
X243386Y484654D01*
X243473Y484704D01*
X243562Y484750D01*
X243652Y484793D01*
X243744Y484832D01*
X243838Y484867D01*
X243933Y484899D01*
X244029Y484927D01*
X244126Y484951D01*
X244224Y484971D01*
X244323Y484988D01*
X244422Y485000D01*
X244522Y485009D01*
X244622Y485013D01*
X244722Y485014D01*
X244988Y485007D01*
X245253Y484993D01*
X245519Y484974D01*
X245783Y484948D01*
X246047Y484915D01*
X246310Y484876D01*
X246572Y484831D01*
X246833Y484780D01*
X247092Y484722D01*
X247351Y484658D01*
X247607Y484588D01*
X247862Y484512D01*
X248115Y484429D01*
X248365Y484341D01*
X248614Y484247D01*
X248860Y484146D01*
X249104Y484040D01*
X248617Y478197D02*
X248709Y478158D01*
X248800Y478116D01*
X248888Y478070D01*
X248975Y478020D01*
X249060Y477967D01*
X249143Y477910D01*
X249223Y477851D01*
X249301Y477788D01*
X249377Y477722D01*
X249449Y477653D01*
X249519Y477582D01*
X249586Y477508D01*
X249650Y477431D01*
X249711Y477351D01*
X249769Y477269D01*
X249824Y477186D01*
X249875Y477099D01*
X249923Y477011D01*
X249967Y476922D01*
X250007Y476830D01*
X250044Y476737D01*
X250077Y476643D01*
X250107Y476547D01*
X250132Y476450D01*
X250154Y476352D01*
X250172Y476254D01*
X250186Y476155D01*
X250196Y476055D01*
X250202Y475955D01*
X250204Y475855D01*
X250202Y475755D01*
X250196Y475655D01*
X250186Y475555D01*
X250173Y475456D01*
X250155Y475358D01*
X250133Y475260D01*
X250108Y475163D01*
X250079Y475067D01*
X250046Y474973D01*
X250009Y474880D01*
X249969Y474788D01*
X249925Y474698D01*
X249877Y474610D01*
X249826Y474524D01*
X249772Y474440D01*
X249714Y474358D01*
X249653Y474279D01*
X249589Y474202D01*
X249522Y474127D01*
X249452Y474056D01*
X249380Y473987D01*
X249304Y473921D01*
X249227Y473858D01*
X249146Y473798D01*
X249064Y473742D01*
X248979Y473688D01*
X248892Y473638D01*
X248803Y473592D01*
X248713Y473549D01*
X248621Y473510D01*
X248527Y473475D01*
X248432Y473443D01*
X248336Y473415D01*
X248239Y473391D01*
X248141Y473371D01*
X248042Y473354D01*
X247943Y473342D01*
X247843Y473333D01*
X247743Y473329D01*
X247643Y473328D01*
X247643Y473329D02*
X247253Y473339D01*
X246863Y473358D01*
X246473Y473387D01*
X246084Y473425D01*
X245697Y473472D01*
X245310Y473528D01*
X244925Y473593D01*
X244542Y473668D01*
X244160Y473751D01*
X243781Y473844D01*
X243404Y473945D01*
X243029Y474055D01*
X242657Y474174D01*
X242288Y474302D01*
X257198Y473329D02*
X257198Y490855D01*
X257198Y485013D02*
X262066Y485013D01*
X262173Y485011D01*
X262279Y485005D01*
X262385Y484995D01*
X262491Y484982D01*
X262597Y484964D01*
X262701Y484943D01*
X262805Y484918D01*
X262908Y484889D01*
X263009Y484857D01*
X263109Y484820D01*
X263208Y484780D01*
X263306Y484737D01*
X263402Y484690D01*
X263496Y484639D01*
X263588Y484585D01*
X263678Y484528D01*
X263766Y484468D01*
X263851Y484404D01*
X263934Y484337D01*
X264015Y484267D01*
X264093Y484195D01*
X264169Y484119D01*
X264241Y484041D01*
X264311Y483960D01*
X264378Y483877D01*
X264442Y483792D01*
X264502Y483704D01*
X264559Y483614D01*
X264613Y483522D01*
X264664Y483428D01*
X264711Y483332D01*
X264754Y483234D01*
X264794Y483135D01*
X264831Y483035D01*
X264863Y482934D01*
X264892Y482831D01*
X264917Y482727D01*
X264938Y482623D01*
X264956Y482517D01*
X264969Y482411D01*
X264979Y482305D01*
X264985Y482199D01*
X264987Y482092D01*
X264987Y473329D01*
X272660Y476250D02*
X272660Y485013D01*
X272660Y476250D02*
X272662Y476143D01*
X272668Y476037D01*
X272678Y475931D01*
X272691Y475825D01*
X272709Y475719D01*
X272730Y475615D01*
X272755Y475511D01*
X272784Y475408D01*
X272816Y475307D01*
X272853Y475207D01*
X272893Y475108D01*
X272936Y475010D01*
X272983Y474914D01*
X273034Y474820D01*
X273088Y474728D01*
X273145Y474638D01*
X273205Y474550D01*
X273269Y474465D01*
X273336Y474382D01*
X273406Y474301D01*
X273478Y474223D01*
X273554Y474147D01*
X273632Y474075D01*
X273713Y474005D01*
X273796Y473938D01*
X273881Y473874D01*
X273969Y473814D01*
X274059Y473757D01*
X274151Y473703D01*
X274245Y473652D01*
X274341Y473605D01*
X274439Y473562D01*
X274538Y473522D01*
X274638Y473485D01*
X274739Y473453D01*
X274842Y473424D01*
X274946Y473399D01*
X275050Y473378D01*
X275156Y473360D01*
X275262Y473347D01*
X275368Y473337D01*
X275474Y473331D01*
X275581Y473329D01*
X280449Y473329D01*
X280449Y485013D01*
X290908Y480145D02*
X295289Y480145D01*
X290908Y480145D02*
X290793Y480143D01*
X290678Y480137D01*
X290563Y480128D01*
X290449Y480114D01*
X290335Y480097D01*
X290222Y480075D01*
X290110Y480050D01*
X289998Y480021D01*
X289888Y479989D01*
X289779Y479952D01*
X289671Y479912D01*
X289564Y479869D01*
X289459Y479822D01*
X289356Y479771D01*
X289254Y479717D01*
X289154Y479659D01*
X289057Y479598D01*
X288961Y479534D01*
X288868Y479467D01*
X288777Y479396D01*
X288688Y479323D01*
X288602Y479246D01*
X288519Y479167D01*
X288438Y479085D01*
X288360Y479000D01*
X288285Y478913D01*
X288213Y478823D01*
X288144Y478731D01*
X288078Y478636D01*
X288016Y478540D01*
X287957Y478441D01*
X287901Y478340D01*
X287848Y478238D01*
X287799Y478134D01*
X287754Y478028D01*
X287712Y477921D01*
X287674Y477812D01*
X287640Y477702D01*
X287609Y477591D01*
X287582Y477479D01*
X287559Y477367D01*
X287539Y477253D01*
X287524Y477139D01*
X287512Y477024D01*
X287504Y476910D01*
X287500Y476795D01*
X287500Y476679D01*
X287504Y476564D01*
X287512Y476450D01*
X287524Y476335D01*
X287539Y476221D01*
X287559Y476107D01*
X287582Y475995D01*
X287609Y475883D01*
X287640Y475772D01*
X287674Y475662D01*
X287712Y475553D01*
X287754Y475446D01*
X287799Y475340D01*
X287848Y475236D01*
X287901Y475134D01*
X287957Y475033D01*
X288016Y474934D01*
X288078Y474838D01*
X288144Y474743D01*
X288213Y474651D01*
X288285Y474561D01*
X288360Y474474D01*
X288438Y474389D01*
X288519Y474307D01*
X288602Y474228D01*
X288688Y474151D01*
X288777Y474078D01*
X288868Y474007D01*
X288961Y473940D01*
X289057Y473876D01*
X289154Y473815D01*
X289254Y473757D01*
X289356Y473703D01*
X289459Y473652D01*
X289564Y473605D01*
X289671Y473562D01*
X289779Y473522D01*
X289888Y473485D01*
X289998Y473453D01*
X290110Y473424D01*
X290222Y473399D01*
X290335Y473377D01*
X290449Y473360D01*
X290563Y473346D01*
X290678Y473337D01*
X290793Y473331D01*
X290908Y473329D01*
X295289Y473329D01*
X295289Y482092D01*
X295287Y482199D01*
X295281Y482305D01*
X295271Y482411D01*
X295258Y482517D01*
X295240Y482623D01*
X295219Y482727D01*
X295194Y482831D01*
X295165Y482934D01*
X295133Y483035D01*
X295096Y483135D01*
X295056Y483234D01*
X295013Y483332D01*
X294966Y483428D01*
X294915Y483522D01*
X294861Y483614D01*
X294804Y483704D01*
X294744Y483792D01*
X294680Y483877D01*
X294613Y483960D01*
X294543Y484041D01*
X294471Y484119D01*
X294395Y484195D01*
X294317Y484267D01*
X294236Y484337D01*
X294153Y484404D01*
X294068Y484468D01*
X293980Y484528D01*
X293890Y484585D01*
X293798Y484639D01*
X293704Y484690D01*
X293608Y484737D01*
X293510Y484780D01*
X293411Y484820D01*
X293311Y484857D01*
X293210Y484889D01*
X293107Y484918D01*
X293003Y484943D01*
X292899Y484964D01*
X292793Y484982D01*
X292687Y484995D01*
X292581Y485005D01*
X292475Y485011D01*
X292368Y485013D01*
X288474Y485013D01*
X312197Y483066D02*
X317065Y483066D01*
X317065Y483065D02*
X317203Y483063D01*
X317340Y483057D01*
X317478Y483047D01*
X317615Y483034D01*
X317752Y483016D01*
X317888Y482995D01*
X318023Y482970D01*
X318158Y482941D01*
X318292Y482908D01*
X318424Y482871D01*
X318556Y482831D01*
X318687Y482787D01*
X318816Y482739D01*
X318944Y482688D01*
X319070Y482633D01*
X319195Y482574D01*
X319318Y482512D01*
X319439Y482447D01*
X319558Y482378D01*
X319676Y482306D01*
X319791Y482230D01*
X319904Y482151D01*
X320015Y482070D01*
X320123Y481984D01*
X320229Y481896D01*
X320333Y481805D01*
X320433Y481711D01*
X320531Y481615D01*
X320627Y481515D01*
X320719Y481413D01*
X320809Y481308D01*
X320895Y481201D01*
X320979Y481092D01*
X321059Y480980D01*
X321136Y480866D01*
X321210Y480749D01*
X321281Y480631D01*
X321348Y480511D01*
X321412Y480389D01*
X321472Y480265D01*
X321529Y480139D01*
X321582Y480012D01*
X321632Y479884D01*
X321677Y479754D01*
X321720Y479622D01*
X321758Y479490D01*
X321793Y479357D01*
X321824Y479223D01*
X321851Y479088D01*
X321874Y478952D01*
X321894Y478815D01*
X321909Y478678D01*
X321921Y478541D01*
X321929Y478404D01*
X321933Y478266D01*
X321933Y478128D01*
X321929Y477990D01*
X321921Y477853D01*
X321909Y477716D01*
X321894Y477579D01*
X321874Y477442D01*
X321851Y477306D01*
X321824Y477171D01*
X321793Y477037D01*
X321758Y476904D01*
X321720Y476772D01*
X321677Y476640D01*
X321632Y476510D01*
X321582Y476382D01*
X321529Y476255D01*
X321472Y476129D01*
X321412Y476005D01*
X321348Y475883D01*
X321281Y475763D01*
X321210Y475645D01*
X321136Y475528D01*
X321059Y475414D01*
X320979Y475302D01*
X320895Y475193D01*
X320809Y475086D01*
X320719Y474981D01*
X320627Y474879D01*
X320531Y474779D01*
X320433Y474683D01*
X320333Y474589D01*
X320229Y474498D01*
X320123Y474410D01*
X320015Y474324D01*
X319904Y474243D01*
X319791Y474164D01*
X319676Y474088D01*
X319558Y474016D01*
X319439Y473947D01*
X319318Y473882D01*
X319195Y473820D01*
X319070Y473761D01*
X318944Y473706D01*
X318816Y473655D01*
X318687Y473607D01*
X318556Y473563D01*
X318424Y473523D01*
X318292Y473486D01*
X318158Y473453D01*
X318023Y473424D01*
X317888Y473399D01*
X317752Y473378D01*
X317615Y473360D01*
X317478Y473347D01*
X317340Y473337D01*
X317203Y473331D01*
X317065Y473329D01*
X312197Y473329D01*
X312197Y490855D01*
X317065Y490855D01*
X317189Y490853D01*
X317312Y490847D01*
X317435Y490837D01*
X317558Y490824D01*
X317680Y490806D01*
X317802Y490785D01*
X317923Y490759D01*
X318043Y490730D01*
X318162Y490697D01*
X318280Y490661D01*
X318397Y490620D01*
X318513Y490576D01*
X318627Y490528D01*
X318739Y490477D01*
X318850Y490422D01*
X318959Y490364D01*
X319066Y490302D01*
X319171Y490237D01*
X319274Y490168D01*
X319374Y490097D01*
X319473Y490022D01*
X319569Y489944D01*
X319662Y489863D01*
X319753Y489779D01*
X319841Y489692D01*
X319926Y489603D01*
X320009Y489511D01*
X320088Y489416D01*
X320164Y489319D01*
X320238Y489219D01*
X320308Y489118D01*
X320375Y489014D01*
X320438Y488908D01*
X320498Y488799D01*
X320555Y488690D01*
X320608Y488578D01*
X320658Y488465D01*
X320704Y488350D01*
X320746Y488234D01*
X320784Y488117D01*
X320819Y487998D01*
X320850Y487878D01*
X320877Y487758D01*
X320901Y487636D01*
X320920Y487514D01*
X320936Y487392D01*
X320948Y487269D01*
X320956Y487145D01*
X320960Y487022D01*
X320960Y486898D01*
X320956Y486775D01*
X320948Y486651D01*
X320936Y486528D01*
X320920Y486406D01*
X320901Y486284D01*
X320877Y486162D01*
X320850Y486042D01*
X320819Y485922D01*
X320784Y485803D01*
X320746Y485686D01*
X320704Y485570D01*
X320658Y485455D01*
X320608Y485342D01*
X320555Y485230D01*
X320498Y485121D01*
X320438Y485013D01*
X320375Y484906D01*
X320308Y484802D01*
X320238Y484701D01*
X320164Y484601D01*
X320088Y484504D01*
X320009Y484409D01*
X319926Y484317D01*
X319841Y484228D01*
X319753Y484141D01*
X319662Y484057D01*
X319569Y483976D01*
X319473Y483898D01*
X319374Y483823D01*
X319274Y483752D01*
X319171Y483683D01*
X319066Y483618D01*
X318959Y483556D01*
X318850Y483498D01*
X318739Y483443D01*
X318627Y483392D01*
X318513Y483344D01*
X318397Y483300D01*
X318280Y483259D01*
X318162Y483223D01*
X318043Y483190D01*
X317923Y483161D01*
X317802Y483135D01*
X317680Y483114D01*
X317558Y483096D01*
X317435Y483083D01*
X317312Y483073D01*
X317189Y483067D01*
X317065Y483065D01*
X328514Y485013D02*
X328514Y473329D01*
X328514Y485013D02*
X334356Y485013D01*
X334356Y483066D01*
X342398Y473329D02*
X347266Y473329D01*
X342398Y473329D02*
X342291Y473331D01*
X342185Y473337D01*
X342079Y473347D01*
X341973Y473360D01*
X341867Y473378D01*
X341763Y473399D01*
X341659Y473424D01*
X341556Y473453D01*
X341455Y473485D01*
X341355Y473522D01*
X341256Y473562D01*
X341158Y473605D01*
X341062Y473652D01*
X340968Y473703D01*
X340876Y473757D01*
X340786Y473814D01*
X340698Y473874D01*
X340613Y473938D01*
X340530Y474005D01*
X340449Y474075D01*
X340371Y474147D01*
X340295Y474223D01*
X340223Y474301D01*
X340153Y474382D01*
X340086Y474465D01*
X340022Y474550D01*
X339962Y474638D01*
X339905Y474728D01*
X339851Y474820D01*
X339800Y474914D01*
X339753Y475010D01*
X339710Y475108D01*
X339670Y475207D01*
X339633Y475307D01*
X339601Y475408D01*
X339572Y475511D01*
X339547Y475615D01*
X339526Y475719D01*
X339508Y475825D01*
X339495Y475931D01*
X339485Y476037D01*
X339479Y476143D01*
X339477Y476250D01*
X339477Y481118D01*
X339479Y481242D01*
X339485Y481365D01*
X339495Y481488D01*
X339508Y481611D01*
X339526Y481733D01*
X339547Y481855D01*
X339573Y481976D01*
X339602Y482096D01*
X339635Y482215D01*
X339671Y482333D01*
X339712Y482450D01*
X339756Y482566D01*
X339804Y482680D01*
X339855Y482792D01*
X339910Y482903D01*
X339968Y483012D01*
X340030Y483119D01*
X340095Y483224D01*
X340164Y483327D01*
X340235Y483427D01*
X340310Y483526D01*
X340388Y483622D01*
X340469Y483715D01*
X340553Y483806D01*
X340640Y483894D01*
X340729Y483979D01*
X340821Y484062D01*
X340916Y484141D01*
X341013Y484217D01*
X341113Y484291D01*
X341214Y484361D01*
X341318Y484428D01*
X341425Y484491D01*
X341533Y484551D01*
X341642Y484608D01*
X341754Y484661D01*
X341867Y484711D01*
X341982Y484757D01*
X342098Y484799D01*
X342215Y484837D01*
X342334Y484872D01*
X342454Y484903D01*
X342574Y484930D01*
X342696Y484954D01*
X342818Y484973D01*
X342940Y484989D01*
X343063Y485001D01*
X343187Y485009D01*
X343310Y485013D01*
X343434Y485013D01*
X343557Y485009D01*
X343681Y485001D01*
X343804Y484989D01*
X343926Y484973D01*
X344048Y484954D01*
X344170Y484930D01*
X344290Y484903D01*
X344410Y484872D01*
X344529Y484837D01*
X344646Y484799D01*
X344762Y484757D01*
X344877Y484711D01*
X344990Y484661D01*
X345102Y484608D01*
X345211Y484551D01*
X345320Y484491D01*
X345426Y484428D01*
X345530Y484361D01*
X345631Y484291D01*
X345731Y484217D01*
X345828Y484141D01*
X345923Y484062D01*
X346015Y483979D01*
X346104Y483894D01*
X346191Y483806D01*
X346275Y483715D01*
X346356Y483622D01*
X346434Y483526D01*
X346509Y483427D01*
X346580Y483327D01*
X346649Y483224D01*
X346714Y483119D01*
X346776Y483012D01*
X346834Y482903D01*
X346889Y482792D01*
X346940Y482680D01*
X346988Y482566D01*
X347032Y482450D01*
X347073Y482333D01*
X347109Y482215D01*
X347142Y482096D01*
X347171Y481976D01*
X347197Y481855D01*
X347218Y481733D01*
X347236Y481611D01*
X347249Y481488D01*
X347259Y481365D01*
X347265Y481242D01*
X347267Y481118D01*
X347266Y481118D02*
X347266Y479171D01*
X339477Y479171D01*
X353544Y485013D02*
X356465Y473329D01*
X359386Y481118D01*
X362307Y473329D01*
X365228Y485013D01*
X372966Y480145D02*
X377834Y478197D01*
X372965Y480145D02*
X372873Y480184D01*
X372782Y480226D01*
X372694Y480272D01*
X372607Y480322D01*
X372522Y480375D01*
X372439Y480432D01*
X372359Y480491D01*
X372281Y480554D01*
X372205Y480620D01*
X372133Y480689D01*
X372063Y480760D01*
X371996Y480834D01*
X371931Y480911D01*
X371871Y480991D01*
X371813Y481073D01*
X371758Y481156D01*
X371707Y481243D01*
X371659Y481331D01*
X371615Y481420D01*
X371575Y481512D01*
X371538Y481605D01*
X371505Y481699D01*
X371475Y481795D01*
X371450Y481892D01*
X371428Y481990D01*
X371410Y482088D01*
X371396Y482187D01*
X371386Y482287D01*
X371380Y482387D01*
X371378Y482487D01*
X371380Y482587D01*
X371386Y482687D01*
X371396Y482787D01*
X371409Y482886D01*
X371427Y482984D01*
X371449Y483082D01*
X371474Y483179D01*
X371503Y483275D01*
X371536Y483369D01*
X371573Y483462D01*
X371613Y483554D01*
X371657Y483644D01*
X371705Y483732D01*
X371756Y483818D01*
X371810Y483902D01*
X371868Y483984D01*
X371929Y484063D01*
X371993Y484140D01*
X372060Y484215D01*
X372130Y484286D01*
X372202Y484355D01*
X372278Y484421D01*
X372355Y484484D01*
X372436Y484544D01*
X372518Y484600D01*
X372603Y484654D01*
X372690Y484704D01*
X372779Y484750D01*
X372869Y484793D01*
X372961Y484832D01*
X373055Y484867D01*
X373150Y484899D01*
X373246Y484927D01*
X373343Y484951D01*
X373441Y484971D01*
X373540Y484988D01*
X373639Y485000D01*
X373739Y485009D01*
X373839Y485013D01*
X373939Y485014D01*
X374205Y485007D01*
X374470Y484993D01*
X374736Y484974D01*
X375000Y484948D01*
X375264Y484915D01*
X375527Y484876D01*
X375789Y484831D01*
X376050Y484780D01*
X376309Y484722D01*
X376568Y484658D01*
X376824Y484588D01*
X377079Y484512D01*
X377332Y484429D01*
X377582Y484341D01*
X377831Y484247D01*
X378077Y484146D01*
X378321Y484040D01*
X377834Y478197D02*
X377926Y478158D01*
X378017Y478116D01*
X378105Y478070D01*
X378192Y478020D01*
X378277Y477967D01*
X378360Y477910D01*
X378440Y477851D01*
X378518Y477788D01*
X378594Y477722D01*
X378666Y477653D01*
X378736Y477582D01*
X378803Y477508D01*
X378867Y477431D01*
X378928Y477351D01*
X378986Y477269D01*
X379041Y477186D01*
X379092Y477099D01*
X379140Y477011D01*
X379184Y476922D01*
X379224Y476830D01*
X379261Y476737D01*
X379294Y476643D01*
X379324Y476547D01*
X379349Y476450D01*
X379371Y476352D01*
X379389Y476254D01*
X379403Y476155D01*
X379413Y476055D01*
X379419Y475955D01*
X379421Y475855D01*
X379419Y475755D01*
X379413Y475655D01*
X379403Y475555D01*
X379390Y475456D01*
X379372Y475358D01*
X379350Y475260D01*
X379325Y475163D01*
X379296Y475067D01*
X379263Y474973D01*
X379226Y474880D01*
X379186Y474788D01*
X379142Y474698D01*
X379094Y474610D01*
X379043Y474524D01*
X378989Y474440D01*
X378931Y474358D01*
X378870Y474279D01*
X378806Y474202D01*
X378739Y474127D01*
X378669Y474056D01*
X378597Y473987D01*
X378521Y473921D01*
X378444Y473858D01*
X378363Y473798D01*
X378281Y473742D01*
X378196Y473688D01*
X378109Y473638D01*
X378020Y473592D01*
X377930Y473549D01*
X377838Y473510D01*
X377744Y473475D01*
X377649Y473443D01*
X377553Y473415D01*
X377456Y473391D01*
X377358Y473371D01*
X377259Y473354D01*
X377160Y473342D01*
X377060Y473333D01*
X376960Y473329D01*
X376860Y473328D01*
X376860Y473329D02*
X376470Y473339D01*
X376080Y473358D01*
X375690Y473387D01*
X375301Y473425D01*
X374914Y473472D01*
X374527Y473528D01*
X374142Y473593D01*
X373759Y473668D01*
X373377Y473751D01*
X372998Y473844D01*
X372621Y473945D01*
X372246Y474055D01*
X371874Y474174D01*
X371505Y474302D01*
X384517Y485013D02*
X390359Y485013D01*
X386464Y490855D02*
X386464Y476250D01*
X386466Y476143D01*
X386472Y476037D01*
X386482Y475931D01*
X386495Y475825D01*
X386513Y475719D01*
X386534Y475615D01*
X386559Y475511D01*
X386588Y475408D01*
X386620Y475307D01*
X386657Y475207D01*
X386697Y475108D01*
X386740Y475010D01*
X386787Y474914D01*
X386838Y474820D01*
X386892Y474728D01*
X386949Y474638D01*
X387009Y474550D01*
X387073Y474465D01*
X387140Y474382D01*
X387210Y474301D01*
X387282Y474223D01*
X387358Y474147D01*
X387436Y474075D01*
X387517Y474005D01*
X387600Y473938D01*
X387685Y473874D01*
X387773Y473814D01*
X387863Y473757D01*
X387955Y473703D01*
X388049Y473652D01*
X388145Y473605D01*
X388243Y473562D01*
X388342Y473522D01*
X388442Y473485D01*
X388543Y473453D01*
X388646Y473424D01*
X388750Y473399D01*
X388854Y473378D01*
X388960Y473360D01*
X389066Y473347D01*
X389172Y473337D01*
X389278Y473331D01*
X389385Y473329D01*
X390359Y473329D01*
X399276Y473329D02*
X404144Y473329D01*
X399276Y473329D02*
X399169Y473331D01*
X399063Y473337D01*
X398957Y473347D01*
X398851Y473360D01*
X398745Y473378D01*
X398641Y473399D01*
X398537Y473424D01*
X398434Y473453D01*
X398333Y473485D01*
X398233Y473522D01*
X398134Y473562D01*
X398036Y473605D01*
X397940Y473652D01*
X397846Y473703D01*
X397754Y473757D01*
X397664Y473814D01*
X397576Y473874D01*
X397491Y473938D01*
X397408Y474005D01*
X397327Y474075D01*
X397249Y474147D01*
X397173Y474223D01*
X397101Y474301D01*
X397031Y474382D01*
X396964Y474465D01*
X396900Y474550D01*
X396840Y474638D01*
X396783Y474728D01*
X396729Y474820D01*
X396678Y474914D01*
X396631Y475010D01*
X396588Y475108D01*
X396548Y475207D01*
X396511Y475307D01*
X396479Y475408D01*
X396450Y475511D01*
X396425Y475615D01*
X396404Y475719D01*
X396386Y475825D01*
X396373Y475931D01*
X396363Y476037D01*
X396357Y476143D01*
X396355Y476250D01*
X396355Y481118D01*
X396354Y481118D02*
X396356Y481242D01*
X396362Y481365D01*
X396372Y481488D01*
X396385Y481611D01*
X396403Y481733D01*
X396424Y481855D01*
X396450Y481976D01*
X396479Y482096D01*
X396512Y482215D01*
X396548Y482333D01*
X396589Y482450D01*
X396633Y482566D01*
X396681Y482680D01*
X396732Y482792D01*
X396787Y482903D01*
X396845Y483012D01*
X396907Y483119D01*
X396972Y483224D01*
X397041Y483327D01*
X397112Y483427D01*
X397187Y483526D01*
X397265Y483622D01*
X397346Y483715D01*
X397430Y483806D01*
X397517Y483894D01*
X397606Y483979D01*
X397698Y484062D01*
X397793Y484141D01*
X397890Y484217D01*
X397990Y484291D01*
X398091Y484361D01*
X398195Y484428D01*
X398302Y484491D01*
X398410Y484551D01*
X398519Y484608D01*
X398631Y484661D01*
X398744Y484711D01*
X398859Y484757D01*
X398975Y484799D01*
X399092Y484837D01*
X399211Y484872D01*
X399331Y484903D01*
X399451Y484930D01*
X399573Y484954D01*
X399695Y484973D01*
X399817Y484989D01*
X399940Y485001D01*
X400064Y485009D01*
X400187Y485013D01*
X400311Y485013D01*
X400434Y485009D01*
X400558Y485001D01*
X400681Y484989D01*
X400803Y484973D01*
X400925Y484954D01*
X401047Y484930D01*
X401167Y484903D01*
X401287Y484872D01*
X401406Y484837D01*
X401523Y484799D01*
X401639Y484757D01*
X401754Y484711D01*
X401867Y484661D01*
X401979Y484608D01*
X402088Y484551D01*
X402197Y484491D01*
X402303Y484428D01*
X402407Y484361D01*
X402508Y484291D01*
X402608Y484217D01*
X402705Y484141D01*
X402800Y484062D01*
X402892Y483979D01*
X402981Y483894D01*
X403068Y483806D01*
X403152Y483715D01*
X403233Y483622D01*
X403311Y483526D01*
X403386Y483427D01*
X403457Y483327D01*
X403526Y483224D01*
X403591Y483119D01*
X403653Y483012D01*
X403711Y482903D01*
X403766Y482792D01*
X403817Y482680D01*
X403865Y482566D01*
X403909Y482450D01*
X403950Y482333D01*
X403986Y482215D01*
X404019Y482096D01*
X404048Y481976D01*
X404074Y481855D01*
X404095Y481733D01*
X404113Y481611D01*
X404126Y481488D01*
X404136Y481365D01*
X404142Y481242D01*
X404144Y481118D01*
X404144Y479171D01*
X396355Y479171D01*
X411346Y473329D02*
X411346Y485013D01*
X417188Y485013D01*
X417188Y483066D01*
X180509Y462280D02*
X180509Y444754D01*
X178562Y444754D02*
X182457Y444754D01*
X182457Y462280D02*
X178562Y462280D01*
X189316Y456438D02*
X189316Y444754D01*
X189316Y456438D02*
X194184Y456438D01*
X194291Y456436D01*
X194397Y456430D01*
X194503Y456420D01*
X194609Y456407D01*
X194715Y456389D01*
X194819Y456368D01*
X194923Y456343D01*
X195026Y456314D01*
X195127Y456282D01*
X195227Y456245D01*
X195326Y456205D01*
X195424Y456162D01*
X195520Y456115D01*
X195614Y456064D01*
X195706Y456010D01*
X195796Y455953D01*
X195884Y455893D01*
X195969Y455829D01*
X196052Y455762D01*
X196133Y455692D01*
X196211Y455620D01*
X196287Y455544D01*
X196359Y455466D01*
X196429Y455385D01*
X196496Y455302D01*
X196560Y455217D01*
X196620Y455129D01*
X196677Y455039D01*
X196731Y454947D01*
X196782Y454853D01*
X196829Y454757D01*
X196872Y454659D01*
X196912Y454560D01*
X196949Y454460D01*
X196981Y454359D01*
X197010Y454256D01*
X197035Y454152D01*
X197056Y454048D01*
X197074Y453942D01*
X197087Y453836D01*
X197097Y453730D01*
X197103Y453624D01*
X197105Y453517D01*
X197105Y444754D01*
X205686Y451570D02*
X210554Y449622D01*
X205685Y451570D02*
X205593Y451609D01*
X205502Y451651D01*
X205414Y451697D01*
X205327Y451747D01*
X205242Y451800D01*
X205159Y451857D01*
X205079Y451916D01*
X205001Y451979D01*
X204925Y452045D01*
X204853Y452114D01*
X204783Y452185D01*
X204716Y452259D01*
X204651Y452336D01*
X204591Y452416D01*
X204533Y452498D01*
X204478Y452581D01*
X204427Y452668D01*
X204379Y452756D01*
X204335Y452845D01*
X204295Y452937D01*
X204258Y453030D01*
X204225Y453124D01*
X204195Y453220D01*
X204170Y453317D01*
X204148Y453415D01*
X204130Y453513D01*
X204116Y453612D01*
X204106Y453712D01*
X204100Y453812D01*
X204098Y453912D01*
X204100Y454012D01*
X204106Y454112D01*
X204116Y454212D01*
X204129Y454311D01*
X204147Y454409D01*
X204169Y454507D01*
X204194Y454604D01*
X204223Y454700D01*
X204256Y454794D01*
X204293Y454887D01*
X204333Y454979D01*
X204377Y455069D01*
X204425Y455157D01*
X204476Y455243D01*
X204530Y455327D01*
X204588Y455409D01*
X204649Y455488D01*
X204713Y455565D01*
X204780Y455640D01*
X204850Y455711D01*
X204922Y455780D01*
X204998Y455846D01*
X205075Y455909D01*
X205156Y455969D01*
X205238Y456025D01*
X205323Y456079D01*
X205410Y456129D01*
X205499Y456175D01*
X205589Y456218D01*
X205681Y456257D01*
X205775Y456292D01*
X205870Y456324D01*
X205966Y456352D01*
X206063Y456376D01*
X206161Y456396D01*
X206260Y456413D01*
X206359Y456425D01*
X206459Y456434D01*
X206559Y456438D01*
X206659Y456439D01*
X206925Y456432D01*
X207190Y456418D01*
X207456Y456399D01*
X207720Y456373D01*
X207984Y456340D01*
X208247Y456301D01*
X208509Y456256D01*
X208770Y456205D01*
X209029Y456147D01*
X209288Y456083D01*
X209544Y456013D01*
X209799Y455937D01*
X210052Y455854D01*
X210302Y455766D01*
X210551Y455672D01*
X210797Y455571D01*
X211041Y455465D01*
X210554Y449622D02*
X210646Y449583D01*
X210737Y449541D01*
X210825Y449495D01*
X210912Y449445D01*
X210997Y449392D01*
X211080Y449335D01*
X211160Y449276D01*
X211238Y449213D01*
X211314Y449147D01*
X211386Y449078D01*
X211456Y449007D01*
X211523Y448933D01*
X211587Y448856D01*
X211648Y448776D01*
X211706Y448694D01*
X211761Y448611D01*
X211812Y448524D01*
X211860Y448436D01*
X211904Y448347D01*
X211944Y448255D01*
X211981Y448162D01*
X212014Y448068D01*
X212044Y447972D01*
X212069Y447875D01*
X212091Y447777D01*
X212109Y447679D01*
X212123Y447580D01*
X212133Y447480D01*
X212139Y447380D01*
X212141Y447280D01*
X212139Y447180D01*
X212133Y447080D01*
X212123Y446980D01*
X212110Y446881D01*
X212092Y446783D01*
X212070Y446685D01*
X212045Y446588D01*
X212016Y446492D01*
X211983Y446398D01*
X211946Y446305D01*
X211906Y446213D01*
X211862Y446123D01*
X211814Y446035D01*
X211763Y445949D01*
X211709Y445865D01*
X211651Y445783D01*
X211590Y445704D01*
X211526Y445627D01*
X211459Y445552D01*
X211389Y445481D01*
X211317Y445412D01*
X211241Y445346D01*
X211164Y445283D01*
X211083Y445223D01*
X211001Y445167D01*
X210916Y445113D01*
X210829Y445063D01*
X210740Y445017D01*
X210650Y444974D01*
X210558Y444935D01*
X210464Y444900D01*
X210369Y444868D01*
X210273Y444840D01*
X210176Y444816D01*
X210078Y444796D01*
X209979Y444779D01*
X209880Y444767D01*
X209780Y444758D01*
X209680Y444754D01*
X209580Y444753D01*
X209580Y444754D02*
X209190Y444764D01*
X208800Y444783D01*
X208410Y444812D01*
X208021Y444850D01*
X207634Y444897D01*
X207247Y444953D01*
X206862Y445018D01*
X206479Y445093D01*
X206097Y445176D01*
X205718Y445269D01*
X205341Y445370D01*
X204966Y445480D01*
X204594Y445599D01*
X204225Y445727D01*
X219204Y438912D02*
X219204Y456438D01*
X224072Y456438D01*
X224179Y456436D01*
X224285Y456430D01*
X224391Y456420D01*
X224497Y456407D01*
X224603Y456389D01*
X224707Y456368D01*
X224811Y456343D01*
X224914Y456314D01*
X225015Y456282D01*
X225115Y456245D01*
X225214Y456205D01*
X225312Y456162D01*
X225408Y456115D01*
X225502Y456064D01*
X225594Y456010D01*
X225684Y455953D01*
X225772Y455893D01*
X225857Y455829D01*
X225940Y455762D01*
X226021Y455692D01*
X226099Y455620D01*
X226175Y455544D01*
X226247Y455466D01*
X226317Y455385D01*
X226384Y455302D01*
X226448Y455217D01*
X226508Y455129D01*
X226565Y455039D01*
X226619Y454947D01*
X226670Y454853D01*
X226717Y454757D01*
X226760Y454659D01*
X226800Y454560D01*
X226837Y454460D01*
X226869Y454359D01*
X226898Y454256D01*
X226923Y454152D01*
X226944Y454048D01*
X226962Y453942D01*
X226975Y453836D01*
X226985Y453730D01*
X226991Y453624D01*
X226993Y453517D01*
X226993Y447675D01*
X226991Y447568D01*
X226985Y447462D01*
X226975Y447356D01*
X226962Y447250D01*
X226944Y447144D01*
X226923Y447040D01*
X226898Y446936D01*
X226869Y446833D01*
X226837Y446732D01*
X226800Y446632D01*
X226760Y446533D01*
X226717Y446435D01*
X226670Y446339D01*
X226619Y446245D01*
X226565Y446153D01*
X226508Y446063D01*
X226448Y445975D01*
X226384Y445890D01*
X226317Y445807D01*
X226247Y445726D01*
X226175Y445648D01*
X226099Y445572D01*
X226021Y445500D01*
X225940Y445430D01*
X225857Y445363D01*
X225772Y445299D01*
X225684Y445239D01*
X225594Y445182D01*
X225502Y445128D01*
X225408Y445077D01*
X225312Y445030D01*
X225214Y444987D01*
X225115Y444947D01*
X225015Y444910D01*
X224914Y444878D01*
X224811Y444849D01*
X224707Y444824D01*
X224603Y444803D01*
X224497Y444785D01*
X224391Y444772D01*
X224285Y444762D01*
X224179Y444756D01*
X224072Y444754D01*
X219204Y444754D01*
X233522Y444754D02*
X233522Y456438D01*
X233035Y461306D02*
X233035Y462280D01*
X234008Y462280D01*
X234008Y461306D01*
X233035Y461306D01*
X240752Y456438D02*
X240752Y444754D01*
X240752Y456438D02*
X246594Y456438D01*
X246594Y454491D01*
X254636Y444754D02*
X259505Y444754D01*
X254636Y444754D02*
X254529Y444756D01*
X254423Y444762D01*
X254317Y444772D01*
X254211Y444785D01*
X254105Y444803D01*
X254001Y444824D01*
X253897Y444849D01*
X253794Y444878D01*
X253693Y444910D01*
X253593Y444947D01*
X253494Y444987D01*
X253396Y445030D01*
X253300Y445077D01*
X253206Y445128D01*
X253114Y445182D01*
X253024Y445239D01*
X252936Y445299D01*
X252851Y445363D01*
X252768Y445430D01*
X252687Y445500D01*
X252609Y445572D01*
X252533Y445648D01*
X252461Y445726D01*
X252391Y445807D01*
X252324Y445890D01*
X252260Y445975D01*
X252200Y446063D01*
X252143Y446153D01*
X252089Y446245D01*
X252038Y446339D01*
X251991Y446435D01*
X251948Y446533D01*
X251908Y446632D01*
X251871Y446732D01*
X251839Y446833D01*
X251810Y446936D01*
X251785Y447040D01*
X251764Y447144D01*
X251746Y447250D01*
X251733Y447356D01*
X251723Y447462D01*
X251717Y447568D01*
X251715Y447675D01*
X251715Y452543D01*
X251717Y452667D01*
X251723Y452790D01*
X251733Y452913D01*
X251746Y453036D01*
X251764Y453158D01*
X251785Y453280D01*
X251811Y453401D01*
X251840Y453521D01*
X251873Y453640D01*
X251909Y453758D01*
X251950Y453875D01*
X251994Y453991D01*
X252042Y454105D01*
X252093Y454217D01*
X252148Y454328D01*
X252206Y454437D01*
X252268Y454544D01*
X252333Y454649D01*
X252402Y454752D01*
X252473Y454852D01*
X252548Y454951D01*
X252626Y455047D01*
X252707Y455140D01*
X252791Y455231D01*
X252878Y455319D01*
X252967Y455404D01*
X253059Y455487D01*
X253154Y455566D01*
X253251Y455642D01*
X253351Y455716D01*
X253452Y455786D01*
X253556Y455853D01*
X253663Y455916D01*
X253771Y455976D01*
X253880Y456033D01*
X253992Y456086D01*
X254105Y456136D01*
X254220Y456182D01*
X254336Y456224D01*
X254453Y456262D01*
X254572Y456297D01*
X254692Y456328D01*
X254812Y456355D01*
X254934Y456379D01*
X255056Y456398D01*
X255178Y456414D01*
X255301Y456426D01*
X255425Y456434D01*
X255548Y456438D01*
X255672Y456438D01*
X255795Y456434D01*
X255919Y456426D01*
X256042Y456414D01*
X256164Y456398D01*
X256286Y456379D01*
X256408Y456355D01*
X256528Y456328D01*
X256648Y456297D01*
X256767Y456262D01*
X256884Y456224D01*
X257000Y456182D01*
X257115Y456136D01*
X257228Y456086D01*
X257340Y456033D01*
X257449Y455976D01*
X257558Y455916D01*
X257664Y455853D01*
X257768Y455786D01*
X257869Y455716D01*
X257969Y455642D01*
X258066Y455566D01*
X258161Y455487D01*
X258253Y455404D01*
X258342Y455319D01*
X258429Y455231D01*
X258513Y455140D01*
X258594Y455047D01*
X258672Y454951D01*
X258747Y454852D01*
X258818Y454752D01*
X258887Y454649D01*
X258952Y454544D01*
X259014Y454437D01*
X259072Y454328D01*
X259127Y454217D01*
X259178Y454105D01*
X259226Y453991D01*
X259270Y453875D01*
X259311Y453758D01*
X259347Y453640D01*
X259380Y453521D01*
X259409Y453401D01*
X259435Y453280D01*
X259456Y453158D01*
X259474Y453036D01*
X259487Y452913D01*
X259497Y452790D01*
X259503Y452667D01*
X259505Y452543D01*
X259505Y450596D01*
X251715Y450596D01*
X273793Y444754D02*
X273793Y462280D01*
X273793Y444754D02*
X268924Y444754D01*
X268817Y444756D01*
X268711Y444762D01*
X268605Y444772D01*
X268499Y444785D01*
X268393Y444803D01*
X268289Y444824D01*
X268185Y444849D01*
X268082Y444878D01*
X267981Y444910D01*
X267881Y444947D01*
X267782Y444987D01*
X267684Y445030D01*
X267588Y445077D01*
X267494Y445128D01*
X267402Y445182D01*
X267312Y445239D01*
X267224Y445299D01*
X267139Y445363D01*
X267056Y445430D01*
X266975Y445500D01*
X266897Y445572D01*
X266821Y445648D01*
X266749Y445726D01*
X266679Y445807D01*
X266612Y445890D01*
X266548Y445975D01*
X266488Y446063D01*
X266431Y446153D01*
X266377Y446245D01*
X266326Y446339D01*
X266279Y446435D01*
X266236Y446533D01*
X266196Y446632D01*
X266159Y446732D01*
X266127Y446833D01*
X266098Y446936D01*
X266073Y447040D01*
X266052Y447144D01*
X266034Y447250D01*
X266021Y447356D01*
X266011Y447462D01*
X266005Y447568D01*
X266003Y447675D01*
X266003Y453517D01*
X266005Y453624D01*
X266011Y453730D01*
X266021Y453836D01*
X266034Y453942D01*
X266052Y454048D01*
X266073Y454152D01*
X266098Y454256D01*
X266127Y454359D01*
X266159Y454460D01*
X266196Y454560D01*
X266236Y454659D01*
X266279Y454757D01*
X266326Y454853D01*
X266377Y454947D01*
X266431Y455039D01*
X266488Y455129D01*
X266548Y455217D01*
X266612Y455302D01*
X266679Y455385D01*
X266749Y455466D01*
X266821Y455544D01*
X266897Y455620D01*
X266975Y455692D01*
X267056Y455762D01*
X267139Y455829D01*
X267224Y455893D01*
X267312Y455953D01*
X267402Y456010D01*
X267494Y456064D01*
X267588Y456115D01*
X267684Y456162D01*
X267782Y456205D01*
X267881Y456245D01*
X267981Y456282D01*
X268082Y456314D01*
X268185Y456343D01*
X268289Y456368D01*
X268393Y456389D01*
X268499Y456407D01*
X268605Y456420D01*
X268711Y456430D01*
X268817Y456436D01*
X268924Y456438D01*
X273793Y456438D01*
X290439Y462280D02*
X290439Y444754D01*
X295308Y444754D01*
X295415Y444756D01*
X295521Y444762D01*
X295627Y444772D01*
X295733Y444785D01*
X295839Y444803D01*
X295943Y444824D01*
X296047Y444849D01*
X296150Y444878D01*
X296251Y444910D01*
X296351Y444947D01*
X296450Y444987D01*
X296548Y445030D01*
X296644Y445077D01*
X296738Y445128D01*
X296830Y445182D01*
X296920Y445239D01*
X297008Y445299D01*
X297093Y445363D01*
X297176Y445430D01*
X297257Y445500D01*
X297335Y445572D01*
X297411Y445648D01*
X297483Y445726D01*
X297553Y445807D01*
X297620Y445890D01*
X297684Y445975D01*
X297744Y446063D01*
X297801Y446153D01*
X297855Y446245D01*
X297906Y446339D01*
X297953Y446435D01*
X297996Y446533D01*
X298036Y446632D01*
X298073Y446732D01*
X298105Y446833D01*
X298134Y446936D01*
X298159Y447040D01*
X298180Y447144D01*
X298198Y447250D01*
X298211Y447356D01*
X298221Y447462D01*
X298227Y447568D01*
X298229Y447675D01*
X298229Y453517D01*
X298227Y453624D01*
X298221Y453730D01*
X298211Y453836D01*
X298198Y453942D01*
X298180Y454048D01*
X298159Y454152D01*
X298134Y454256D01*
X298105Y454359D01*
X298073Y454460D01*
X298036Y454560D01*
X297996Y454659D01*
X297953Y454757D01*
X297906Y454853D01*
X297855Y454947D01*
X297801Y455039D01*
X297744Y455129D01*
X297684Y455217D01*
X297620Y455302D01*
X297553Y455385D01*
X297483Y455466D01*
X297411Y455544D01*
X297335Y455620D01*
X297257Y455692D01*
X297176Y455762D01*
X297093Y455829D01*
X297008Y455893D01*
X296920Y455953D01*
X296830Y456010D01*
X296738Y456064D01*
X296644Y456115D01*
X296548Y456162D01*
X296450Y456205D01*
X296351Y456245D01*
X296251Y456282D01*
X296150Y456314D01*
X296047Y456343D01*
X295943Y456368D01*
X295839Y456389D01*
X295733Y456407D01*
X295627Y456420D01*
X295521Y456430D01*
X295415Y456436D01*
X295308Y456438D01*
X290439Y456438D01*
X304175Y438912D02*
X306123Y438912D01*
X311965Y456438D01*
X304175Y456438D02*
X308070Y444754D01*
X330154Y451570D02*
X334536Y451570D01*
X330154Y451570D02*
X330039Y451568D01*
X329924Y451562D01*
X329809Y451553D01*
X329695Y451539D01*
X329581Y451522D01*
X329468Y451500D01*
X329356Y451475D01*
X329244Y451446D01*
X329134Y451414D01*
X329025Y451377D01*
X328917Y451337D01*
X328810Y451294D01*
X328705Y451247D01*
X328602Y451196D01*
X328500Y451142D01*
X328400Y451084D01*
X328303Y451023D01*
X328207Y450959D01*
X328114Y450892D01*
X328023Y450821D01*
X327934Y450748D01*
X327848Y450671D01*
X327765Y450592D01*
X327684Y450510D01*
X327606Y450425D01*
X327531Y450338D01*
X327459Y450248D01*
X327390Y450156D01*
X327324Y450061D01*
X327262Y449965D01*
X327203Y449866D01*
X327147Y449765D01*
X327094Y449663D01*
X327045Y449559D01*
X327000Y449453D01*
X326958Y449346D01*
X326920Y449237D01*
X326886Y449127D01*
X326855Y449016D01*
X326828Y448904D01*
X326805Y448792D01*
X326785Y448678D01*
X326770Y448564D01*
X326758Y448449D01*
X326750Y448335D01*
X326746Y448220D01*
X326746Y448104D01*
X326750Y447989D01*
X326758Y447875D01*
X326770Y447760D01*
X326785Y447646D01*
X326805Y447532D01*
X326828Y447420D01*
X326855Y447308D01*
X326886Y447197D01*
X326920Y447087D01*
X326958Y446978D01*
X327000Y446871D01*
X327045Y446765D01*
X327094Y446661D01*
X327147Y446559D01*
X327203Y446458D01*
X327262Y446359D01*
X327324Y446263D01*
X327390Y446168D01*
X327459Y446076D01*
X327531Y445986D01*
X327606Y445899D01*
X327684Y445814D01*
X327765Y445732D01*
X327848Y445653D01*
X327934Y445576D01*
X328023Y445503D01*
X328114Y445432D01*
X328207Y445365D01*
X328303Y445301D01*
X328400Y445240D01*
X328500Y445182D01*
X328602Y445128D01*
X328705Y445077D01*
X328810Y445030D01*
X328917Y444987D01*
X329025Y444947D01*
X329134Y444910D01*
X329244Y444878D01*
X329356Y444849D01*
X329468Y444824D01*
X329581Y444802D01*
X329695Y444785D01*
X329809Y444771D01*
X329924Y444762D01*
X330039Y444756D01*
X330154Y444754D01*
X334536Y444754D01*
X334536Y453517D01*
X334534Y453624D01*
X334528Y453730D01*
X334518Y453836D01*
X334505Y453942D01*
X334487Y454048D01*
X334466Y454152D01*
X334441Y454256D01*
X334412Y454359D01*
X334380Y454460D01*
X334343Y454560D01*
X334303Y454659D01*
X334260Y454757D01*
X334213Y454853D01*
X334162Y454947D01*
X334108Y455039D01*
X334051Y455129D01*
X333991Y455217D01*
X333927Y455302D01*
X333860Y455385D01*
X333790Y455466D01*
X333718Y455544D01*
X333642Y455620D01*
X333564Y455692D01*
X333483Y455762D01*
X333400Y455829D01*
X333315Y455893D01*
X333227Y455953D01*
X333137Y456010D01*
X333045Y456064D01*
X332951Y456115D01*
X332855Y456162D01*
X332757Y456205D01*
X332658Y456245D01*
X332558Y456282D01*
X332457Y456314D01*
X332354Y456343D01*
X332250Y456368D01*
X332146Y456389D01*
X332040Y456407D01*
X331934Y456420D01*
X331828Y456430D01*
X331722Y456436D01*
X331615Y456438D01*
X327720Y456438D01*
X342011Y462280D02*
X342011Y447675D01*
X342013Y447568D01*
X342019Y447462D01*
X342029Y447356D01*
X342042Y447250D01*
X342060Y447144D01*
X342081Y447040D01*
X342106Y446936D01*
X342135Y446833D01*
X342167Y446732D01*
X342204Y446632D01*
X342244Y446533D01*
X342287Y446435D01*
X342334Y446339D01*
X342385Y446245D01*
X342439Y446153D01*
X342496Y446063D01*
X342556Y445975D01*
X342620Y445890D01*
X342687Y445807D01*
X342757Y445726D01*
X342829Y445648D01*
X342905Y445572D01*
X342983Y445500D01*
X343064Y445430D01*
X343147Y445363D01*
X343232Y445299D01*
X343320Y445239D01*
X343410Y445182D01*
X343502Y445128D01*
X343596Y445077D01*
X343692Y445030D01*
X343790Y444987D01*
X343889Y444947D01*
X343989Y444910D01*
X344090Y444878D01*
X344193Y444849D01*
X344297Y444824D01*
X344401Y444803D01*
X344507Y444785D01*
X344613Y444772D01*
X344719Y444762D01*
X344825Y444756D01*
X344932Y444754D01*
X350846Y447675D02*
X350846Y462280D01*
X350846Y447675D02*
X350848Y447568D01*
X350854Y447462D01*
X350864Y447356D01*
X350877Y447250D01*
X350895Y447144D01*
X350916Y447040D01*
X350941Y446936D01*
X350970Y446833D01*
X351002Y446732D01*
X351039Y446632D01*
X351079Y446533D01*
X351122Y446435D01*
X351169Y446339D01*
X351220Y446245D01*
X351274Y446153D01*
X351331Y446063D01*
X351391Y445975D01*
X351455Y445890D01*
X351522Y445807D01*
X351592Y445726D01*
X351664Y445648D01*
X351740Y445572D01*
X351818Y445500D01*
X351899Y445430D01*
X351982Y445363D01*
X352067Y445299D01*
X352155Y445239D01*
X352245Y445182D01*
X352337Y445128D01*
X352431Y445077D01*
X352527Y445030D01*
X352625Y444987D01*
X352724Y444947D01*
X352824Y444910D01*
X352925Y444878D01*
X353028Y444849D01*
X353132Y444824D01*
X353236Y444803D01*
X353342Y444785D01*
X353448Y444772D01*
X353554Y444762D01*
X353660Y444756D01*
X353767Y444754D01*
X368232Y448649D02*
X368232Y452543D01*
X368231Y452543D02*
X368233Y452667D01*
X368239Y452790D01*
X368249Y452913D01*
X368262Y453036D01*
X368280Y453158D01*
X368301Y453280D01*
X368327Y453401D01*
X368356Y453521D01*
X368389Y453640D01*
X368425Y453758D01*
X368466Y453875D01*
X368510Y453991D01*
X368558Y454105D01*
X368609Y454217D01*
X368664Y454328D01*
X368722Y454437D01*
X368784Y454544D01*
X368849Y454649D01*
X368918Y454752D01*
X368989Y454852D01*
X369064Y454951D01*
X369142Y455047D01*
X369223Y455140D01*
X369307Y455231D01*
X369394Y455319D01*
X369483Y455404D01*
X369575Y455487D01*
X369670Y455566D01*
X369767Y455642D01*
X369867Y455716D01*
X369968Y455786D01*
X370072Y455853D01*
X370179Y455916D01*
X370287Y455976D01*
X370396Y456033D01*
X370508Y456086D01*
X370621Y456136D01*
X370736Y456182D01*
X370852Y456224D01*
X370969Y456262D01*
X371088Y456297D01*
X371208Y456328D01*
X371328Y456355D01*
X371450Y456379D01*
X371572Y456398D01*
X371694Y456414D01*
X371817Y456426D01*
X371941Y456434D01*
X372064Y456438D01*
X372188Y456438D01*
X372311Y456434D01*
X372435Y456426D01*
X372558Y456414D01*
X372680Y456398D01*
X372802Y456379D01*
X372924Y456355D01*
X373044Y456328D01*
X373164Y456297D01*
X373283Y456262D01*
X373400Y456224D01*
X373516Y456182D01*
X373631Y456136D01*
X373744Y456086D01*
X373856Y456033D01*
X373965Y455976D01*
X374074Y455916D01*
X374180Y455853D01*
X374284Y455786D01*
X374385Y455716D01*
X374485Y455642D01*
X374582Y455566D01*
X374677Y455487D01*
X374769Y455404D01*
X374858Y455319D01*
X374945Y455231D01*
X375029Y455140D01*
X375110Y455047D01*
X375188Y454951D01*
X375263Y454852D01*
X375334Y454752D01*
X375403Y454649D01*
X375468Y454544D01*
X375530Y454437D01*
X375588Y454328D01*
X375643Y454217D01*
X375694Y454105D01*
X375742Y453991D01*
X375786Y453875D01*
X375827Y453758D01*
X375863Y453640D01*
X375896Y453521D01*
X375925Y453401D01*
X375951Y453280D01*
X375972Y453158D01*
X375990Y453036D01*
X376003Y452913D01*
X376013Y452790D01*
X376019Y452667D01*
X376021Y452543D01*
X376021Y448649D01*
X376019Y448525D01*
X376013Y448402D01*
X376003Y448279D01*
X375990Y448156D01*
X375972Y448034D01*
X375951Y447912D01*
X375925Y447791D01*
X375896Y447671D01*
X375863Y447552D01*
X375827Y447434D01*
X375786Y447317D01*
X375742Y447201D01*
X375694Y447087D01*
X375643Y446975D01*
X375588Y446864D01*
X375530Y446755D01*
X375468Y446648D01*
X375403Y446543D01*
X375334Y446440D01*
X375263Y446340D01*
X375188Y446241D01*
X375110Y446145D01*
X375029Y446052D01*
X374945Y445961D01*
X374858Y445873D01*
X374769Y445788D01*
X374677Y445705D01*
X374582Y445626D01*
X374485Y445550D01*
X374385Y445476D01*
X374284Y445406D01*
X374180Y445339D01*
X374074Y445276D01*
X373965Y445216D01*
X373856Y445159D01*
X373744Y445106D01*
X373631Y445056D01*
X373516Y445010D01*
X373400Y444968D01*
X373283Y444930D01*
X373164Y444895D01*
X373044Y444864D01*
X372924Y444837D01*
X372802Y444813D01*
X372680Y444794D01*
X372558Y444778D01*
X372435Y444766D01*
X372311Y444758D01*
X372188Y444754D01*
X372064Y444754D01*
X371941Y444758D01*
X371817Y444766D01*
X371694Y444778D01*
X371572Y444794D01*
X371450Y444813D01*
X371328Y444837D01*
X371208Y444864D01*
X371088Y444895D01*
X370969Y444930D01*
X370852Y444968D01*
X370736Y445010D01*
X370621Y445056D01*
X370508Y445106D01*
X370396Y445159D01*
X370287Y445216D01*
X370179Y445276D01*
X370072Y445339D01*
X369968Y445406D01*
X369867Y445476D01*
X369767Y445550D01*
X369670Y445626D01*
X369575Y445705D01*
X369483Y445788D01*
X369394Y445873D01*
X369307Y445961D01*
X369223Y446052D01*
X369142Y446145D01*
X369064Y446241D01*
X368989Y446340D01*
X368918Y446440D01*
X368849Y446543D01*
X368784Y446648D01*
X368722Y446755D01*
X368664Y446864D01*
X368609Y446975D01*
X368558Y447087D01*
X368510Y447201D01*
X368466Y447317D01*
X368425Y447434D01*
X368389Y447552D01*
X368356Y447671D01*
X368327Y447791D01*
X368301Y447912D01*
X368280Y448034D01*
X368262Y448156D01*
X368249Y448279D01*
X368239Y448402D01*
X368233Y448525D01*
X368231Y448649D01*
X383554Y444754D02*
X383554Y459359D01*
X383556Y459466D01*
X383562Y459572D01*
X383572Y459678D01*
X383585Y459784D01*
X383603Y459890D01*
X383624Y459994D01*
X383649Y460098D01*
X383678Y460201D01*
X383710Y460302D01*
X383747Y460402D01*
X383787Y460501D01*
X383830Y460599D01*
X383877Y460695D01*
X383928Y460789D01*
X383982Y460881D01*
X384039Y460971D01*
X384099Y461059D01*
X384163Y461144D01*
X384230Y461227D01*
X384300Y461308D01*
X384372Y461386D01*
X384448Y461462D01*
X384526Y461534D01*
X384607Y461604D01*
X384690Y461671D01*
X384775Y461735D01*
X384863Y461795D01*
X384953Y461852D01*
X385045Y461906D01*
X385139Y461957D01*
X385235Y462004D01*
X385333Y462047D01*
X385432Y462087D01*
X385532Y462124D01*
X385633Y462156D01*
X385736Y462185D01*
X385840Y462210D01*
X385944Y462231D01*
X386050Y462249D01*
X386156Y462262D01*
X386262Y462272D01*
X386368Y462278D01*
X386475Y462280D01*
X387449Y462280D01*
X387449Y456438D02*
X381607Y456438D01*
X400260Y438912D02*
X402207Y438912D01*
X408049Y456438D01*
X400260Y456438D02*
X404154Y444754D01*
X414065Y448649D02*
X414065Y452543D01*
X414067Y452667D01*
X414073Y452790D01*
X414083Y452913D01*
X414096Y453036D01*
X414114Y453158D01*
X414135Y453280D01*
X414161Y453401D01*
X414190Y453521D01*
X414223Y453640D01*
X414259Y453758D01*
X414300Y453875D01*
X414344Y453991D01*
X414392Y454105D01*
X414443Y454217D01*
X414498Y454328D01*
X414556Y454437D01*
X414618Y454544D01*
X414683Y454649D01*
X414752Y454752D01*
X414823Y454852D01*
X414898Y454951D01*
X414976Y455047D01*
X415057Y455140D01*
X415141Y455231D01*
X415228Y455319D01*
X415317Y455404D01*
X415409Y455487D01*
X415504Y455566D01*
X415601Y455642D01*
X415701Y455716D01*
X415802Y455786D01*
X415906Y455853D01*
X416013Y455916D01*
X416121Y455976D01*
X416230Y456033D01*
X416342Y456086D01*
X416455Y456136D01*
X416570Y456182D01*
X416686Y456224D01*
X416803Y456262D01*
X416922Y456297D01*
X417042Y456328D01*
X417162Y456355D01*
X417284Y456379D01*
X417406Y456398D01*
X417528Y456414D01*
X417651Y456426D01*
X417775Y456434D01*
X417898Y456438D01*
X418022Y456438D01*
X418145Y456434D01*
X418269Y456426D01*
X418392Y456414D01*
X418514Y456398D01*
X418636Y456379D01*
X418758Y456355D01*
X418878Y456328D01*
X418998Y456297D01*
X419117Y456262D01*
X419234Y456224D01*
X419350Y456182D01*
X419465Y456136D01*
X419578Y456086D01*
X419690Y456033D01*
X419799Y455976D01*
X419908Y455916D01*
X420014Y455853D01*
X420118Y455786D01*
X420219Y455716D01*
X420319Y455642D01*
X420416Y455566D01*
X420511Y455487D01*
X420603Y455404D01*
X420692Y455319D01*
X420779Y455231D01*
X420863Y455140D01*
X420944Y455047D01*
X421022Y454951D01*
X421097Y454852D01*
X421168Y454752D01*
X421237Y454649D01*
X421302Y454544D01*
X421364Y454437D01*
X421422Y454328D01*
X421477Y454217D01*
X421528Y454105D01*
X421576Y453991D01*
X421620Y453875D01*
X421661Y453758D01*
X421697Y453640D01*
X421730Y453521D01*
X421759Y453401D01*
X421785Y453280D01*
X421806Y453158D01*
X421824Y453036D01*
X421837Y452913D01*
X421847Y452790D01*
X421853Y452667D01*
X421855Y452543D01*
X421854Y452543D02*
X421854Y448649D01*
X421855Y448649D02*
X421853Y448525D01*
X421847Y448402D01*
X421837Y448279D01*
X421824Y448156D01*
X421806Y448034D01*
X421785Y447912D01*
X421759Y447791D01*
X421730Y447671D01*
X421697Y447552D01*
X421661Y447434D01*
X421620Y447317D01*
X421576Y447201D01*
X421528Y447087D01*
X421477Y446975D01*
X421422Y446864D01*
X421364Y446755D01*
X421302Y446648D01*
X421237Y446543D01*
X421168Y446440D01*
X421097Y446340D01*
X421022Y446241D01*
X420944Y446145D01*
X420863Y446052D01*
X420779Y445961D01*
X420692Y445873D01*
X420603Y445788D01*
X420511Y445705D01*
X420416Y445626D01*
X420319Y445550D01*
X420219Y445476D01*
X420118Y445406D01*
X420014Y445339D01*
X419908Y445276D01*
X419799Y445216D01*
X419690Y445159D01*
X419578Y445106D01*
X419465Y445056D01*
X419350Y445010D01*
X419234Y444968D01*
X419117Y444930D01*
X418998Y444895D01*
X418878Y444864D01*
X418758Y444837D01*
X418636Y444813D01*
X418514Y444794D01*
X418392Y444778D01*
X418269Y444766D01*
X418145Y444758D01*
X418022Y444754D01*
X417898Y444754D01*
X417775Y444758D01*
X417651Y444766D01*
X417528Y444778D01*
X417406Y444794D01*
X417284Y444813D01*
X417162Y444837D01*
X417042Y444864D01*
X416922Y444895D01*
X416803Y444930D01*
X416686Y444968D01*
X416570Y445010D01*
X416455Y445056D01*
X416342Y445106D01*
X416230Y445159D01*
X416121Y445216D01*
X416013Y445276D01*
X415906Y445339D01*
X415802Y445406D01*
X415701Y445476D01*
X415601Y445550D01*
X415504Y445626D01*
X415409Y445705D01*
X415317Y445788D01*
X415228Y445873D01*
X415141Y445961D01*
X415057Y446052D01*
X414976Y446145D01*
X414898Y446241D01*
X414823Y446340D01*
X414752Y446440D01*
X414683Y446543D01*
X414618Y446648D01*
X414556Y446755D01*
X414498Y446864D01*
X414443Y446975D01*
X414392Y447087D01*
X414344Y447201D01*
X414300Y447317D01*
X414259Y447434D01*
X414223Y447552D01*
X414190Y447671D01*
X414161Y447791D01*
X414135Y447912D01*
X414114Y448034D01*
X414096Y448156D01*
X414083Y448279D01*
X414073Y448402D01*
X414067Y448525D01*
X414065Y448649D01*
X428975Y447675D02*
X428975Y456438D01*
X428975Y447675D02*
X428977Y447568D01*
X428983Y447462D01*
X428993Y447356D01*
X429006Y447250D01*
X429024Y447144D01*
X429045Y447040D01*
X429070Y446936D01*
X429099Y446833D01*
X429131Y446732D01*
X429168Y446632D01*
X429208Y446533D01*
X429251Y446435D01*
X429298Y446339D01*
X429349Y446245D01*
X429403Y446153D01*
X429460Y446063D01*
X429520Y445975D01*
X429584Y445890D01*
X429651Y445807D01*
X429721Y445726D01*
X429793Y445648D01*
X429869Y445572D01*
X429947Y445500D01*
X430028Y445430D01*
X430111Y445363D01*
X430196Y445299D01*
X430284Y445239D01*
X430374Y445182D01*
X430466Y445128D01*
X430560Y445077D01*
X430656Y445030D01*
X430754Y444987D01*
X430853Y444947D01*
X430953Y444910D01*
X431054Y444878D01*
X431157Y444849D01*
X431261Y444824D01*
X431365Y444803D01*
X431471Y444785D01*
X431577Y444772D01*
X431683Y444762D01*
X431789Y444756D01*
X431896Y444754D01*
X436764Y444754D01*
X436764Y456438D01*
X443427Y445728D02*
X443427Y444754D01*
X443427Y445728D02*
X444400Y445728D01*
X444400Y444754D01*
X443427Y444754D01*
X1905762Y615442D02*
X1918462Y615442D01*
X1905762Y615442D02*
X1899412Y621792D01*
X1899412Y634492D01*
X1905762Y640842D01*
X1943862Y615442D02*
X1950212Y621792D01*
X1943862Y615442D02*
X1931162Y615442D01*
X1924812Y621792D01*
X1924812Y634492D01*
X1931162Y640842D01*
X1943862Y640842D01*
X1950212Y634492D01*
X1924812Y621792D02*
X1918462Y615442D01*
X1924812Y634492D02*
X1918462Y640842D01*
X1905762Y640842D01*
X1981962Y615442D02*
X1994662Y615442D01*
X1981962Y615442D02*
X1975612Y621792D01*
X1975612Y634492D01*
X1981962Y640842D01*
X1975612Y621792D02*
X1969262Y615442D01*
X1956562Y615442D01*
X1950212Y621792D01*
X1950212Y634492D01*
X1956562Y640842D01*
X1969262Y640842D01*
X1975612Y634492D01*
X2001012Y634492D02*
X2001012Y621792D01*
X1994662Y615442D01*
X2001012Y634492D02*
X1994662Y640842D01*
X1981962Y640842D01*
X1893062Y615442D02*
X1880362Y615442D01*
X1874012Y621792D01*
X1874012Y634492D01*
X1880362Y640842D01*
X1899412Y621792D02*
X1893062Y615442D01*
X1899412Y634492D02*
X1893062Y640842D01*
X1880362Y640842D01*
X1956562Y575818D02*
X1969262Y575818D01*
X1975612Y569468D01*
X1975612Y556768D01*
X1969262Y550418D01*
X1931162Y575818D02*
X1924812Y569468D01*
X1931162Y575818D02*
X1943862Y575818D01*
X1950212Y569468D01*
X1950212Y556768D01*
X1943862Y550418D01*
X1931162Y550418D01*
X1924812Y556768D01*
X1950212Y569468D02*
X1956562Y575818D01*
X1950212Y556768D02*
X1956562Y550418D01*
X1969262Y550418D01*
X1893062Y575818D02*
X1880362Y575818D01*
X1893062Y575818D02*
X1899412Y569468D01*
X1899412Y556768D01*
X1893062Y550418D01*
X1899412Y569468D02*
X1905762Y575818D01*
X1918462Y575818D01*
X1924812Y569468D01*
X1924812Y556768D01*
X1918462Y550418D01*
X1905762Y550418D01*
X1899412Y556768D01*
X1874012Y556768D02*
X1874012Y569468D01*
X1880362Y575818D01*
X1874012Y556768D02*
X1880362Y550418D01*
X1893062Y550418D01*
X1981962Y575818D02*
X1994662Y575818D01*
X2001012Y569468D01*
X2001012Y556768D01*
X1994662Y550418D01*
X1975612Y569468D02*
X1981962Y575818D01*
X1975612Y556768D02*
X1981962Y550418D01*
X1994662Y550418D01*
D12*
X2518156Y543560D02*
X2518156Y513080D01*
X2513076Y538480D02*
X2533396Y538480D01*
X2533396Y518160D02*
X2513076Y518160D01*
D11*
X2548467Y518922D02*
X2553885Y535178D01*
X2559304Y518922D01*
X2557949Y522986D02*
X2549821Y522986D01*
D12*
X2518156Y513080D02*
X2518156Y482600D01*
X2513076Y508000D02*
X2533396Y508000D01*
X2533396Y487680D02*
X2513076Y487680D01*
D11*
X2548467Y488442D02*
X2553885Y504698D01*
X2559304Y488442D01*
X2557949Y492506D02*
X2549821Y492506D01*
X585978Y403860D02*
X579628Y397510D01*
X585978Y403860D02*
X598678Y403860D01*
X605028Y397510D01*
X605028Y384810D01*
X598678Y378460D01*
X585978Y378460D01*
X579628Y384810D01*
X547878Y403860D02*
X535178Y403860D01*
X547878Y403860D02*
X554228Y397510D01*
X554228Y384810D01*
X547878Y378460D01*
X554228Y397510D02*
X560578Y403860D01*
X573278Y403860D01*
X579628Y397510D01*
X579628Y384810D01*
X573278Y378460D01*
X560578Y378460D01*
X554228Y384810D01*
X509778Y403860D02*
X503428Y397510D01*
X509778Y403860D02*
X522478Y403860D01*
X528828Y397510D01*
X528828Y384810D01*
X522478Y378460D01*
X509778Y378460D01*
X503428Y384810D01*
X528828Y397510D02*
X535178Y403860D01*
X528828Y384810D02*
X535178Y378460D01*
X547878Y378460D01*
X471678Y403860D02*
X458978Y403860D01*
X471678Y403860D02*
X478028Y397510D01*
X478028Y384810D01*
X471678Y378460D01*
X478028Y397510D02*
X484378Y403860D01*
X497078Y403860D01*
X503428Y397510D01*
X503428Y384810D01*
X497078Y378460D01*
X484378Y378460D01*
X478028Y384810D01*
X433578Y403860D02*
X427228Y397510D01*
X433578Y403860D02*
X446278Y403860D01*
X452628Y397510D01*
X452628Y384810D01*
X446278Y378460D01*
X433578Y378460D01*
X427228Y384810D01*
X452628Y397510D02*
X458978Y403860D01*
X452628Y384810D02*
X458978Y378460D01*
X471678Y378460D01*
X395478Y403860D02*
X382778Y403860D01*
X395478Y403860D02*
X401828Y397510D01*
X401828Y384810D01*
X395478Y378460D01*
X401828Y397510D02*
X408178Y403860D01*
X420878Y403860D01*
X427228Y397510D01*
X427228Y384810D01*
X420878Y378460D01*
X408178Y378460D01*
X401828Y384810D01*
X357378Y403860D02*
X351028Y397510D01*
X357378Y403860D02*
X370078Y403860D01*
X376428Y397510D01*
X376428Y384810D01*
X370078Y378460D01*
X357378Y378460D01*
X351028Y384810D01*
X376428Y397510D02*
X382778Y403860D01*
X376428Y384810D02*
X382778Y378460D01*
X395478Y378460D01*
X319278Y403860D02*
X306578Y403860D01*
X319278Y403860D02*
X325628Y397510D01*
X325628Y384810D01*
X319278Y378460D01*
X325628Y397510D02*
X331978Y403860D01*
X344678Y403860D01*
X351028Y397510D01*
X351028Y384810D01*
X344678Y378460D01*
X331978Y378460D01*
X325628Y384810D01*
X281178Y403860D02*
X274828Y397510D01*
X281178Y403860D02*
X293878Y403860D01*
X300228Y397510D01*
X300228Y384810D01*
X293878Y378460D01*
X281178Y378460D01*
X274828Y384810D01*
X300228Y397510D02*
X306578Y403860D01*
X300228Y384810D02*
X306578Y378460D01*
X319278Y378460D01*
X243078Y403860D02*
X230378Y403860D01*
X243078Y403860D02*
X249428Y397510D01*
X249428Y384810D01*
X243078Y378460D01*
X249428Y397510D02*
X255778Y403860D01*
X268478Y403860D01*
X274828Y397510D01*
X274828Y384810D01*
X268478Y378460D01*
X255778Y378460D01*
X249428Y384810D01*
X224028Y384810D02*
X224028Y397510D01*
X230378Y403860D01*
X224028Y384810D02*
X230378Y378460D01*
X243078Y378460D01*
X605028Y397510D02*
X611378Y403860D01*
X624078Y403860D01*
X630428Y397510D01*
X630428Y384810D01*
X624078Y378460D01*
X611378Y378460D01*
X605028Y384810D01*
X598170Y635000D02*
X585470Y635000D01*
X598170Y635000D02*
X604520Y628650D01*
X604520Y615950D01*
X598170Y609600D01*
X560070Y635000D02*
X553720Y628650D01*
X560070Y635000D02*
X572770Y635000D01*
X579120Y628650D01*
X579120Y615950D01*
X572770Y609600D01*
X560070Y609600D01*
X553720Y615950D01*
X579120Y628650D02*
X585470Y635000D01*
X579120Y615950D02*
X585470Y609600D01*
X598170Y609600D01*
X521970Y635000D02*
X509270Y635000D01*
X521970Y635000D02*
X528320Y628650D01*
X528320Y615950D01*
X521970Y609600D01*
X528320Y628650D02*
X534670Y635000D01*
X547370Y635000D01*
X553720Y628650D01*
X553720Y615950D01*
X547370Y609600D01*
X534670Y609600D01*
X528320Y615950D01*
X483870Y635000D02*
X477520Y628650D01*
X483870Y635000D02*
X496570Y635000D01*
X502920Y628650D01*
X502920Y615950D01*
X496570Y609600D01*
X483870Y609600D01*
X477520Y615950D01*
X502920Y628650D02*
X509270Y635000D01*
X502920Y615950D02*
X509270Y609600D01*
X521970Y609600D01*
X445770Y635000D02*
X433070Y635000D01*
X445770Y635000D02*
X452120Y628650D01*
X452120Y615950D01*
X445770Y609600D01*
X452120Y628650D02*
X458470Y635000D01*
X471170Y635000D01*
X477520Y628650D01*
X477520Y615950D01*
X471170Y609600D01*
X458470Y609600D01*
X452120Y615950D01*
X407670Y635000D02*
X401320Y628650D01*
X407670Y635000D02*
X420370Y635000D01*
X426720Y628650D01*
X426720Y615950D01*
X420370Y609600D01*
X407670Y609600D01*
X401320Y615950D01*
X426720Y628650D02*
X433070Y635000D01*
X426720Y615950D02*
X433070Y609600D01*
X445770Y609600D01*
X369570Y635000D02*
X356870Y635000D01*
X369570Y635000D02*
X375920Y628650D01*
X375920Y615950D01*
X369570Y609600D01*
X375920Y628650D02*
X382270Y635000D01*
X394970Y635000D01*
X401320Y628650D01*
X401320Y615950D01*
X394970Y609600D01*
X382270Y609600D01*
X375920Y615950D01*
X331470Y635000D02*
X325120Y628650D01*
X331470Y635000D02*
X344170Y635000D01*
X350520Y628650D01*
X350520Y615950D01*
X344170Y609600D01*
X331470Y609600D01*
X325120Y615950D01*
X350520Y628650D02*
X356870Y635000D01*
X350520Y615950D02*
X356870Y609600D01*
X369570Y609600D01*
X293370Y635000D02*
X280670Y635000D01*
X293370Y635000D02*
X299720Y628650D01*
X299720Y615950D01*
X293370Y609600D01*
X299720Y628650D02*
X306070Y635000D01*
X318770Y635000D01*
X325120Y628650D01*
X325120Y615950D01*
X318770Y609600D01*
X306070Y609600D01*
X299720Y615950D01*
X255270Y635000D02*
X248920Y628650D01*
X255270Y635000D02*
X267970Y635000D01*
X274320Y628650D01*
X274320Y615950D01*
X267970Y609600D01*
X255270Y609600D01*
X248920Y615950D01*
X274320Y628650D02*
X280670Y635000D01*
X274320Y615950D02*
X280670Y609600D01*
X293370Y609600D01*
X217170Y635000D02*
X204470Y635000D01*
X217170Y635000D02*
X223520Y628650D01*
X223520Y615950D01*
X217170Y609600D01*
X223520Y628650D02*
X229870Y635000D01*
X242570Y635000D01*
X248920Y628650D01*
X248920Y615950D01*
X242570Y609600D01*
X229870Y609600D01*
X223520Y615950D01*
X179070Y635000D02*
X172720Y628650D01*
X179070Y635000D02*
X191770Y635000D01*
X198120Y628650D01*
X198120Y615950D01*
X191770Y609600D01*
X179070Y609600D01*
X172720Y615950D01*
X198120Y628650D02*
X204470Y635000D01*
X198120Y615950D02*
X204470Y609600D01*
X217170Y609600D01*
X140970Y635000D02*
X128270Y635000D01*
X140970Y635000D02*
X147320Y628650D01*
X147320Y615950D01*
X140970Y609600D01*
X147320Y628650D02*
X153670Y635000D01*
X166370Y635000D01*
X172720Y628650D01*
X172720Y615950D01*
X166370Y609600D01*
X153670Y609600D01*
X147320Y615950D01*
X121920Y615950D02*
X121920Y628650D01*
X128270Y635000D01*
X121920Y615950D02*
X128270Y609600D01*
X140970Y609600D01*
X610870Y635000D02*
X623570Y635000D01*
X629920Y628650D01*
X629920Y615950D01*
X623570Y609600D01*
X604520Y628650D02*
X610870Y635000D01*
X604520Y615950D02*
X610870Y609600D01*
X623570Y609600D01*
M02*
