G04 EAGLE Gerber RS-274X export*
G75*
%MOMM*%
%FSLAX34Y34*%
%LPD*%
%INSoldermask Bottom*%
%IPPOS*%
%AMOC8*
5,1,8,0,0,1.08239X$1,22.5*%
G01*
%ADD10C,1.303200*%
%ADD11C,1.193800*%
%ADD12C,2.743200*%
%ADD13C,3.203200*%
%ADD14C,1.727200*%
%ADD15P,2.034460X8X202.500000*%
%ADD16C,1.711200*%
%ADD17C,1.511200*%
%ADD18C,2.453200*%
%ADD19C,0.728200*%
%ADD20C,0.555600*%


D10*
X2562352Y556514D03*
X2562352Y635254D03*
D11*
X134620Y622300D03*
X160020Y622300D03*
X185420Y622300D03*
X210820Y622300D03*
X312420Y622300D03*
X287020Y622300D03*
X261620Y622300D03*
X236220Y622300D03*
X414020Y622300D03*
X388620Y622300D03*
X363220Y622300D03*
X337820Y622300D03*
X515620Y622300D03*
X490220Y622300D03*
X464820Y622300D03*
X439420Y622300D03*
X617220Y622300D03*
X591820Y622300D03*
X566420Y622300D03*
X541020Y622300D03*
X541528Y391160D03*
X566928Y391160D03*
X592328Y391160D03*
X617728Y391160D03*
X439928Y391160D03*
X465328Y391160D03*
X490728Y391160D03*
X516128Y391160D03*
X338328Y391160D03*
X363728Y391160D03*
X389128Y391160D03*
X414528Y391160D03*
X236728Y391160D03*
X262128Y391160D03*
X287528Y391160D03*
X312928Y391160D03*
X1886712Y628142D03*
X1912112Y628142D03*
X1937512Y628142D03*
X1962912Y628142D03*
X1988312Y628142D03*
X1988312Y563118D03*
X1962912Y563118D03*
X1937512Y563118D03*
X1912112Y563118D03*
X1886712Y563118D03*
D12*
X137414Y394970D03*
X138176Y582930D03*
X579120Y433578D03*
D13*
X2605588Y570254D03*
X2605588Y624572D03*
D14*
X1988312Y620522D02*
X1988312Y635762D01*
X1962912Y635762D02*
X1962912Y620522D01*
X1937512Y620522D02*
X1937512Y635762D01*
X1912112Y635762D02*
X1912112Y620522D01*
X1886712Y620522D02*
X1886712Y635762D01*
X1886712Y570738D02*
X1886712Y555498D01*
X1912112Y555498D02*
X1912112Y570738D01*
X1937512Y570738D02*
X1937512Y555498D01*
X1962912Y555498D02*
X1962912Y570738D01*
X1988312Y570738D02*
X1988312Y555498D01*
X236728Y398780D02*
X236728Y383540D01*
X262128Y383540D02*
X262128Y398780D01*
X287528Y398780D02*
X287528Y383540D01*
X312928Y383540D02*
X312928Y398780D01*
X338328Y398780D02*
X338328Y383540D01*
X363728Y383540D02*
X363728Y398780D01*
X389128Y398780D02*
X389128Y383540D01*
X414528Y383540D02*
X414528Y398780D01*
X439928Y398780D02*
X439928Y383540D01*
X465328Y383540D02*
X465328Y398780D01*
X490728Y398780D02*
X490728Y383540D01*
X516128Y383540D02*
X516128Y398780D01*
X541528Y398780D02*
X541528Y383540D01*
X566928Y383540D02*
X566928Y398780D01*
X592328Y398780D02*
X592328Y383540D01*
X617728Y383540D02*
X617728Y398780D01*
X134620Y614680D02*
X134620Y629920D01*
X160020Y629920D02*
X160020Y614680D01*
X185420Y614680D02*
X185420Y629920D01*
X210820Y629920D02*
X210820Y614680D01*
X236220Y614680D02*
X236220Y629920D01*
X261620Y629920D02*
X261620Y614680D01*
X287020Y614680D02*
X287020Y629920D01*
X312420Y629920D02*
X312420Y614680D01*
X337820Y614680D02*
X337820Y629920D01*
X363220Y629920D02*
X363220Y614680D01*
X388620Y614680D02*
X388620Y629920D01*
X414020Y629920D02*
X414020Y614680D01*
X439420Y614680D02*
X439420Y629920D01*
X464820Y629920D02*
X464820Y614680D01*
X490220Y614680D02*
X490220Y629920D01*
X515620Y629920D02*
X515620Y614680D01*
X541020Y614680D02*
X541020Y629920D01*
X566420Y629920D02*
X566420Y614680D01*
X591820Y614680D02*
X591820Y629920D01*
X617220Y629920D02*
X617220Y614680D01*
D15*
X543560Y563372D03*
X492760Y563372D03*
X566674Y589026D03*
X515874Y589026D03*
D16*
X471786Y333502D03*
X421786Y333502D03*
D17*
X322580Y332740D03*
X282580Y332740D03*
X342580Y332740D03*
X362580Y332740D03*
D18*
X261580Y332740D03*
X383580Y332740D03*
D19*
X665480Y596900D03*
X619760Y551180D03*
D20*
X617728Y414020D03*
X1974342Y580644D03*
D19*
X477266Y356870D03*
D20*
X1903857Y643509D03*
X272796Y643382D03*
X1930781Y644017D03*
X251714Y645922D03*
D19*
X426720Y581660D03*
X375920Y581660D03*
X350520Y581660D03*
D20*
X287020Y604266D03*
D19*
X624840Y580221D03*
X607314Y551180D03*
X364490Y552196D03*
D20*
X1954022Y581660D03*
X337820Y601980D03*
X1868678Y561340D03*
X388620Y601980D03*
X1901952Y579628D03*
X414020Y601472D03*
X1929257Y582041D03*
D19*
X646684Y600202D03*
X652780Y611124D03*
M02*
