M48
;GenerationSoftware,Autodesk,EAGLE,9.6.2*%
;CreationDate,2021-06-17T23:02:25Z*%
FMAT,2
ICI,OFF
METRIC,TZ,000.000
T9C0.200
T8C0.350
T7C0.813
T6C0.991
T5C1.000
T4C1.016
T3C1.100
T2C2.540
T1C3.000
%
G90
M71
T1
X260559Y57025
X260559Y62457
T2
X57912Y43358
X13818Y58293
X13741Y39497
T3
X256235Y55651
X256235Y63525
T4
X188671Y56312
X43993Y39116
X41453Y39116
X38913Y39116
X36373Y39116
X33833Y39116
X31293Y39116
X28753Y39116
X26213Y39116
X23673Y39116
X198831Y56312
X196291Y56312
X193751Y56312
X191211Y56312
X188671Y62814
X191211Y62814
X46482Y62230
X193751Y62814
X196291Y62814
X198831Y62814
X46533Y39116
X49073Y39116
X51613Y39116
X54153Y39116
X56693Y39116
X59233Y39116
X61773Y39116
X13462Y62230
X16002Y62230
X18542Y62230
X21082Y62230
X23622Y62230
X26162Y62230
X28702Y62230
X31242Y62230
X33782Y62230
X36322Y62230
X38862Y62230
X41402Y62230
X43942Y62230
X49022Y62230
X51562Y62230
X54102Y62230
X56642Y62230
X59182Y62230
X61722Y62230
T5
X27918Y33401
X32918Y33401
X35418Y33401
X37918Y33401
X46696Y33376
X41696Y33376
T6
X26213Y39116
X28753Y39116
X31293Y39116
X188671Y62814
X191211Y62814
X193751Y62814
X196291Y62814
X43993Y39116
X198831Y56312
X196291Y56312
X193751Y56312
X191211Y56312
X188671Y56312
X198831Y62814
X26162Y62230
X13462Y62230
X16002Y62230
X18542Y62230
X21082Y62230
X31242Y62230
X28702Y62230
X23622Y62230
X41402Y62230
X38862Y62230
X36322Y62230
X33782Y62230
X51562Y62230
X49022Y62230
X46482Y62230
X43942Y62230
X61722Y62230
X59182Y62230
X56642Y62230
X54102Y62230
X54153Y39116
X56693Y39116
X59233Y39116
X61773Y39116
X46533Y39116
X49073Y39116
X51613Y39116
X33833Y39116
X36373Y39116
X38913Y39116
X41453Y39116
X23673Y39116
T7
X54356Y56337
X49276Y56337
X56667Y58903
X51587Y58903
T8
X60731Y55118
X62484Y58022
X35052Y58166
X37592Y58166
X42672Y58166
X66548Y59690
X61976Y55118
X65278Y61112
X64668Y60020
X36449Y55220
T9
X33782Y60198
X28702Y60427
X25171Y64592
X193078Y64402
X27280Y64338
X190386Y64351
X197434Y58064
X61773Y41402
X192926Y58204
X41402Y60147
X190195Y57963
X38862Y60198
X186868Y56134
X195402Y58166
M30