M48
;GenerationSoftware,Autodesk,EAGLE,9.6.2*%
;CreationDate,2021-07-08T15:45:12Z*%
FMAT,2
ICI,OFF
METRIC,TZ,000.000
T6C0.200
T5C0.350
T4C0.400
T3C1.016
T2C1.100
T1C3.000
%
G90
M71
T1
X194640Y19685
X194615Y14148
T2
X122707Y16764
X190246Y12954
X190246Y20828
T3
X127787Y13640
X125247Y13640
X122707Y13640
X122707Y20142
X125247Y20142
X127787Y20142
X130327Y20142
X132867Y20142
X130327Y13640
X132867Y13640
T4
X135001Y13360
T5
X123584Y18275
X131000Y18529
X123393Y15189
X128702Y15469
X131102Y15151
X125514Y18098
X126047Y15456
X155473Y13995
X152083Y19545
X134823Y20142
X133998Y14770
X127927Y18250
T6
X153314Y15011
X146406Y15469
X146406Y15875
X146406Y16688
X153441Y15875
X145960Y14808
X151489Y15458
X151489Y16296
X146406Y16281
X151489Y15883
X140767Y15062
X149352Y15088
X150546Y14173
X150038Y17094
M30